{
.appVersion = "3243";
.formatVersion = 3;
axes = (
{
name = Weight;
tag = wght;
}
);
classes = (
{
code = "";
name = DevaIMatras;
}
);
customParameters = (
{
name = fsType;
value = (
);
},
{
name = "Use Typo Metrics";
value = 1;
},
{
name = "meta Table";
value = (
{
data = Hebr;
tag = dlng;
},
{
data = "Hebr,Latn";
tag = slng;
}
);
}
);
date = "2016-03-08 19:28:47 +0000";
familyName = "Miriam Libre";
featurePrefixes = (
{
automatic = 1;
code = "languagesystem DFLT dflt;

languagesystem latn dflt;
languagesystem latn AZE;
languagesystem latn CRT;
languagesystem latn KAZ;
languagesystem latn TAT;
languagesystem latn TRK;
languagesystem latn ROM;
languagesystem latn MOL;

languagesystem hebr dflt;
languagesystem hebr IWR;
";
name = Languagesystems;
}
);
features = (
{
automatic = 1;
code = "feature locl;
feature sups;
feature frac;
feature ordn;
feature pnum;
feature tnum;
feature c2sc;
feature smcp;
feature ss01;
";
tag = aalt;
},
{
code = "lookup ccmp_Other_1 {
	@CombiningTopAccents = [acutecomb brevecomb caroncomb circumflexcomb commaturnedabovecomb dieresiscomb dotaccentcomb gravecomb hungarumlautcomb macroncomb ringcomb tildecomb];
	lookupflag UseMarkFilteringSet @CombiningTopAccents;
	sub i' @CombiningTopAccents by idotless;
	sub iogonek' @CombiningTopAccents by iogonekdotless;
	sub j' @CombiningTopAccents by jdotless;
} ccmp_Other_1;

lookup ccmp_latn_1 {
	lookupflag 0;
	sub fi by f i;
	sub fl by f l;
} ccmp_latn_1;

script latn;
lookup ccmp_latn_1;
";
tag = ccmp;
},
{
automatic = 1;
code = "script latn;
language AZE;
lookup locl_latn_0 {
	sub i by idotaccent;
} locl_latn_0;
language CRT;
lookup locl_latn_0;
language KAZ;
lookup locl_latn_0;
language TAT;
lookup locl_latn_0;
language TRK;
lookup locl_latn_0;

script latn;
language ROM;
lookup locl_latn_1 {
	sub Scedilla by Scommaaccent;
	sub scedilla by scommaaccent;
	sub Tcedilla by Tcommaaccent;
	sub tcedilla by tcommaaccent;
} locl_latn_1;
language MOL;
lookup locl_latn_1;
";
tag = locl;
},
{

glyphs = (
{
glyphname = A;
kernLeft = A;
kernRight = A;
lastChange = "2024-04-10 10:38:30 +0000";
layers = (
{
anchors = (
{
name = bottom;
pos = (305,0);
},
{
name = ogonek;
pos = (546,-1);
},
{
name = top;
pos = (305,687);
}
);
hints = (
{
horizontal = 1;
origin = (0,31);
target = up;
type = BottomGhost;
},
{
horizontal = 1;
origin = (0,4);
target = (1,2);
type = Stem;
},
{
horizontal = 1;
origin = (0,21);
target = down;
type = TopGhost;
}
);
layerId = "DDABD3A5-4A8B-4D55-9B9E-1269DFBEF3A1";
name = Regular;
shapes = (
{
closed = 1;
nodes = (
(100,0,ls),
(108,0,o),
(117,5,o),
(119,13,cs),
(175,187,l),
(435,187,l),
(491,13,ls),
(494,5,o),
(502,0,o),
(510,0,cs),
(559,0,ls),
(569,0,o),
(575,7,o),
(575,15,cs),
(575,17,o),
(575,20,o),
(574,22,cs),
(357,682,l),
(354,690,o),
(346,695,o),
(338,695,cs),
(272,695,ls),
(264,695,o),
(256,690,o),
(253,682,c),
(36,22,ls),
(35,20,o),
(35,17,o),
(35,15,cs),
(35,7,o),
(41,0,o),
(51,0,cs)
);
},
{
closed = 1;
nodes = (
(305,591,l),
(412,260,l),
(198,260,l)
);
}
);
width = 610;
},
{
anchors = (
{
name = bottom;
pos = (318,0);
},
{
name = ogonek;
pos = (542,10);
},
{
name = top;
pos = (319,710);
}
);
hints = (
{
horizontal = 1;
origin = (0,31);
target = up;
type = BottomGhost;
},
{
horizontal = 1;
origin = (0,4);
target = (1,2);
type = Stem;
},
{
horizontal = 1;
origin = (0,21);
target = down;
type = TopGhost;
}
);
layerId = "1D8279CA-6213-4437-A9CB-DE6E86D89D97";
name = Bold;
shapes = (
{
closed = 1;
nodes = (
(124,0,ls),
(138,0,o),
(151,9,o),
(155,23,cs),
(200,167,l),
(434,167,l),
(479,23,ls),
(483,9,o),
(496,0,o),
(510,0,cs),
(582,0,ls),
(596,0,o),
(606,10,o),
(606,23,cs),
(606,25,o),
(606,28,o),
(605,31,cs),
(388,698,ls),
(384,711,o),
(371,720,o),
(357,720,cs),
(279,720,ls),
(265,720,o),
(252,711,o),
(248,698,cs),
(31,31,ls),
(30,28,o),
(30,25,o),
(30,23,cs),
(30,10,o),
(40,0,o),
(54,0,cs)
);
},
{
closed = 1;
nodes = (
(317,547,l),
(399,280,l),
(235,280,l)
);
}
);
width = 637;
}
);
unicode = 65;
},
{
glyphname = Aogonek;
kernLeft = A;
kernRight = A;
lastChange = "2024-04-10 10:42:59 +0000";
layers = (
{
hints = (
{
horizontal = 1;
origin = (0,48);
target = (0,8);
type = Stem;
},
{
horizontal = 1;
origin = (0,35);
target = up;
type = BottomGhost;
},
{
horizontal = 1;
origin = (0,40);
target = (1,2);
type = Stem;
},
{
horizontal = 1;
origin = (0,25);
target = down;
type = TopGhost;
},
{
origin = (0,45);
target = (0,11);
type = Stem;
}
);
layerId = "DDABD3A5-4A8B-4D55-9B9E-1269DFBEF3A1";
name = Regular;
shapes = (
{
closed = 1;
nodes = (
(571,-197,ls),
(579,-197,o),
(586,-190,o),
(586,-182,cs),
(586,-142,ls),
(586,-134,o),
(579,-127,o),
(571,-127,cs),
(544,-127,ls),
(523,-127,o),
(502,-120,o),
(502,-90,cs),
(502,-65,o),
(516,-40,o),
(558,4,cs),
(566,12,o),
(570,21,o),
(570,31,cs),
(570,35,o),
(569,39,o),
(568,43,cs),
(357,682,ls),
(354,690,o),
(346,695,o),
(338,695,cs),
(272,695,ls),
(264,695,o),
(256,690,o),
(253,682,cs),
(36,22,ls),
(35,20,o),
(35,17,o),
(35,15,cs),
(35,7,o),
(41,0,o),
(51,0,cs),
(100,0,ls),
(108,0,o),
(117,5,o),
(119,13,cs),
(175,187,l),
(435,187,l),
(493,7,l),
(462,-19,o),
(423,-63,o),
(423,-112,cs),
(423,-165,o),
(473,-197,o),
(531,-197,cs)
);
},
{
closed = 1;
nodes = (
(305,591,l),
(411,260,l),
(198,260,l)
);
}
);
width = 614;
},
{
hints = (
{
horizontal = 1;
origin = (0,48);
target = (0,8);
type = Stem;
},
{
horizontal = 1;
origin = (0,35);
target = up;
type = BottomGhost;
},
{
horizontal = 1;
origin = (0,40);
target = (1,2);
type = Stem;
},
{
horizontal = 1;
origin = (0,25);
target = down;
type = TopGhost;
},
{
origin = (0,45);
target = (0,11);
type = Stem;
}
);
layerId = "1D8279CA-6213-4437-A9CB-DE6E86D89D97";
name = Bold;
shapes = (
{
closed = 1;
nodes = (
(580,-193,ls),
(589,-193,o),
(597,-185,o),
(597,-176,cs),
(597,-119,ls),
(597,-109,o),
(589,-102,o),
(580,-102,cs),
(559,-102,ls),
(532,-102,o),
(511,-88,o),
(511,-63,cs),
(511,-31,o),
(533,-14,o),
(579,-2,cs),
(594,2,o),
(602,14,o),
(602,28,cs),
(602,32,o),
(601,36,o),
(600,40,cs),
(388,698,ls),
(384,711,o),
(371,720,o),
(357,720,cs),
(279,720,ls),
(265,720,o),
(252,711,o),
(248,698,cs),
(31,31,ls),
(30,28,o),
(30,25,o),
(30,23,cs),
(30,10,o),
(40,0,o),
(54,0,cs),
(124,0,ls),
(138,0,o),
(151,9,o),
(155,23,cs),
(200,167,l),
(434,167,l),
(485,5,l),
(441,-20,o),
(418,-55,o),
(418,-94,cs),
(418,-157,o),
(478,-193,o),
(545,-193,cs)
);
},
{
closed = 1;
nodes = (
(317,547,l),
(398,280,l),
(236,280,l)
);
}
);
width = 633;
}
);
metricLeft = A;
metricRight = A;
unicode = 260;
},
{
glyphname = Aring;
kernLeft = A;
kernRight = A;
lastChange = "2024-04-10 10:44:29 +0000";
layers = (
{
anchors = (
{
name = top;
pos = (300,961);
}
);
background = {
shapes = (
{
closed = 1;
nodes = (
(100,0,ls),
(108,0,o),
(117,5,o),
(119,13,c),
(175,187,l),
(435,187,l),
(491,13,l),
(494,5,o),
(502,0,o),
(510,0,cs),
(559,0,ls),
(571,0,o),
(578,10,o),
(574,22,cs),
(357,682,l),
(354,690,o),
(346,695,o),
(338,695,cs),
(272,695,ls),
(264,695,o),
(256,690,o),
(253,682,c),
(36,22,ls),
(32,10,o),
(39,0,o),
(51,0,cs)
);
},
{
closed = 1;
nodes = (
(305,591,l),
(412,260,l),
(198,260,l)
);
}
);
};
hints = (
{
horizontal = 1;
place = (0,21);
target = up;
type = BottomGhost;
},
{
horizontal = 1;
place = (187,73);
type = Stem;
},
{
horizontal = 1;
place = (695,-20);
target = down;
type = TopGhost;
},
{
horizontal = 1;
place = (739,53);
type = Stem;
},
{
horizontal = 1;
place = (850,53);
type = Stem;
},
{
place = (223,53);
type = Stem;
},
{
place = (334,53);
type = Stem;
}
);
layerId = "DDABD3A5-4A8B-4D55-9B9E-1269DFBEF3A1";
name = Regular;
shapes = (
{
ref = A;
},
{
pos = (87,121);
ref = ringcomb;
}
);
width = 610;
},
{
anchors = (
{
name = top;
pos = (300,961);
}
);
background = {
shapes = (
{
closed = 1;
nodes = (
(124,0,ls),
(138,0,o),
(151,9,o),
(155,23,cs),
(200,167,l),
(434,167,l),
(479,23,ls),
(483,9,o),
(496,0,o),
(510,0,cs),
(582,0,ls),
(596,0,o),
(606,10,o),
(606,23,cs),
(606,25,o),
(606,28,o),
(605,31,cs),
(388,698,ls),
(384,711,o),
(371,720,o),
(357,720,cs),
(279,720,ls),
(265,720,o),
(252,711,o),
(248,698,cs),
(31,31,ls),
(30,28,o),
(30,25,o),
(30,23,cs),
(30,10,o),
(40,0,o),
(54,0,cs)
);
},
{
closed = 1;
nodes = (
(317,547,l),
(399,280,l),
(235,280,l)
);
},
{
closed = 1;
nodes = (
(370,760,o),
(412,802,o),
(412,854,cs),
(412,907,o),
(370,949,o),
(317,949,cs),
(264,949,o),
(222,907,o),
(222,854,cs),
(222,802,o),
(264,760,o),
(317,760,cs)
);
},
{
closed = 1;
nodes = (
(301,824,o),
(286,838,o),
(286,854,cs),
(286,871,o),
(301,885,o),
(317,885,cs),
(333,885,o),
(348,871,o),
(348,854,cs),
(348,838,o),
(333,824,o),
(317,824,cs)
);
}
);
};
hints = (
{
horizontal = 1;
place = (0,21);
target = up;
type = BottomGhost;
},
{
horizontal = 1;
place = (167,113);
type = Stem;
},
{
horizontal = 1;
place = (720,-20);
target = down;
type = TopGhost;
},
{
horizontal = 1;
place = (760,64);
type = Stem;
},
{
horizontal = 1;
place = (885,64);
type = Stem;
},
{
place = (222,64);
type = Stem;
},
{
place = (348,64);
type = Stem;
}
);
layerId = "1D8279CA-6213-4437-A9CB-DE6E86D89D97";
name = Bold;
shapes = (
{
ref = A;
},
{
pos = (56,137);
ref = ringcomb;
}
);
width = 637;
}
);
metricLeft = A;
metricRight = A;
unicode = 197;
},
{
glyphname = AE;
kernRight = E;
lastChange = "2024-04-10 10:37:22 +0000";
layers = (
{
anchors = (
{
name = bottom;
pos = (483,0);
},
{
name = top;
pos = (483,687);
}
);
hints = (
{
horizontal = 1;
origin = (0,45);
target = (0,18);
type = Stem;
},
{
horizontal = 1;
origin = (0,4);
target = (1,2);
type = Stem;
},
{
horizontal = 1;
origin = (0,19);
target = (0,28);
type = Stem;
},
{
horizontal = 1;
origin = (0,38);
target = (0,29);
type = Stem;
},
{
origin = (0,6);
target = (0,18);
type = Stem;
}
);
layerId = "DDABD3A5-4A8B-4D55-9B9E-1269DFBEF3A1";
name = Regular;
shapes = (
{
closed = 1;
nodes = (
(71,0,ls),
(80,0,o),
(89,3,o),
(95,13,cs),
(205,187,l),
(437,187,l),
(437,36,ls),
(437,16,o),
(453,0,o),
(473,0,cs),
(802,0,ls),
(810,0,o),
(816,6,o),
(816,14,cs),
(816,63,ls),
(816,71,o),
(810,77,o),
(802,77,cs),
(519,77,l),
(519,329,l),
(735,329,ls),
(743,329,o),
(749,335,o),
(749,343,cs),
(749,390,ls),
(749,398,o),
(743,404,o),
(735,404,cs),
(519,404,l),
(519,618,l),
(802,618,ls),
(810,618,o),
(816,624,o),
(816,632,cs),
(816,681,ls),
(816,689,o),
(810,695,o),
(802,695,cs),
(454,695,ls),
(445,695,o),
(436,690,o),
(431,682,cs),
(4,22,ls),
(-4,10,o),
(2,0,o),
(14,0,cs)
);
},
{
closed = 1;
nodes = (
(437,552,l),
(437,260,l),
(252,260,l)
);
}
);
width = 871;
},
{
anchors = (
{
name = bottom;
pos = (514,0);
},
{
name = top;
pos = (514,710);
}
);
hints = (
{
horizontal = 1;
origin = (0,45);
target = (0,18);
type = Stem;
},
{
horizontal = 1;
origin = (0,4);
target = (1,2);
type = Stem;
},
{
horizontal = 1;
origin = (0,19);
target = (0,28);
type = Stem;
},
{
horizontal = 1;
origin = (0,38);
target = (0,29);
type = Stem;
},
{
origin = (0,6);
target = (0,18);
type = Stem;
}
);
layerId = "1D8279CA-6213-4437-A9CB-DE6E86D89D97";
name = Bold;
shapes = (
{
closed = 1;
nodes = (
(102,0,ls),
(115,0,o),
(126,6,o),
(133,17,cs),
(228,167,l),
(429,167,l),
(429,43,ls),
(429,19,o),
(448,0,o),
(472,0,cs),
(813,0,ls),
(825,0,o),
(834,9,o),
(834,21,cs),
(834,96,ls),
(834,108,o),
(825,117,o),
(813,117,cs),
(551,117,l),
(551,315,l),
(746,315,ls),
(758,315,o),
(767,324,o),
(767,336,cs),
(767,407,ls),
(767,419,o),
(758,428,o),
(746,428,cs),
(551,428,l),
(551,598,l),
(813,598,ls),
(825,598,o),
(834,607,o),
(834,619,cs),
(834,694,ls),
(834,706,o),
(825,715,o),
(813,715,cs),
(466,715,ls),
(450,715,o),
(434,706,o),
(426,693,cs),
(5,41,ls),
(-7,22,o),
(4,0,o),
(27,0,cs)
);
},
{
closed = 1;
nodes = (
(429,493,l),
(429,276,l),
(295,276,l)
);
}
);
width = 894;
}
);
metricRight = E;
unicode = 198;
},
{
glyphname = B;
kernLeft = H;
kernRight = B;
lastChange = "2024-04-10 10:37:22 +0000";
layers = (
{
anchors = (
{
name = bottom;
pos = (273,0);
},
{
name = top;
pos = (262,687);
}
);
hints = (
{
horizontal = 1;
origin = (0,20);
target = (1,8);
type = Stem;
},
{
horizontal = 1;
origin = (1,0);
target = (2,8);
type = Stem;
},
{
horizontal = 1;
origin = (0,13);
target = (2,0);
type = Stem;
},
{
origin = (0,17);
target = (1,8);
type = Stem;
},
{
origin = (1,4);
target = (0,3);
type = Stem;
},
{
origin = (2,4);
target = (0,9);
type = Stem;
}
);
layerId = "DDABD3A5-4A8B-4D55-9B9E-1269DFBEF3A1";
name = Regular;
shapes = (
{
closed = 1;
nodes = (
(324,0,ls),
(437,0,o),
(527,89,o),
(527,204,cs),
(527,283,o),
(484,350,o),
(413,379,c),
(458,414,o),
(481,464,o),
(481,519,cs),
(481,621,o),
(403,695,o),
(299,695,cs),
(126,695,ls),
(106,695,o),
(90,679,o),
(90,659,cs),
(90,36,ls),
(90,16,o),
(106,0,o),
(126,0,cs)
);
},
{
closed = 1;
nodes = (
(170,323,l),
(319,323,ls),
(391,323,o),
(444,271,o),
(444,200,cs),
(444,129,o),
(391,75,o),
(319,75,cs),
(170,75,l)
);
},
{
closed = 1;
nodes = (
(170,621,l),
(291,621,ls),
(354,621,o),
(400,574,o),
(400,514,cs),
(400,451,o),
(349,398,o),
(286,398,cs),
(170,398,l)
);
}
);
width = 567;
},
{
anchors = (
{
name = bottom;
pos = (275,0);
},
{
name = top;
pos = (265,710);
}
);
hints = (
{
horizontal = 1;
origin = (0,20);
target = (1,8);
type = Stem;
},
{
horizontal = 1;
origin = (1,0);
target = (2,8);
type = Stem;
},
{
horizontal = 1;
origin = (0,13);
target = (2,0);
type = Stem;
},
{
origin = (0,17);
target = (1,8);
type = Stem;
},
{
origin = (1,4);
target = (0,3);
type = Stem;
},
{
origin = (2,4);
target = (0,9);
type = Stem;
}
);
layerId = "1D8279CA-6213-4437-A9CB-DE6E86D89D97";
name = Bold;
shapes = (
{
closed = 1;
nodes = (
(328,0,ls),
(450,0,o),
(547,97,o),
(547,218,cs),
(547,299,o),
(507,360,o),
(440,388,c),
(481,423,o),
(502,465,o),
(502,515,cs),
(502,626,o),
(411,715,o),
(298,715,cs),
(121,715,ls),
(97,715,o),
(78,696,o),
(78,672,cs),
(78,43,ls),
(78,19,o),
(97,0,o),
(121,0,cs)
);
},
{
closed = 1;
nodes = (
(198,318,l),
(323,318,ls),
(382,318,o),
(426,276,o),
(426,218,cs),
(426,157,o),
(383,114,o),
(323,114,cs),
(198,114,l)
);
},
{
closed = 1;
nodes = (
(198,602,l),
(289,602,ls),
(340,602,o),
(382,562,o),
(382,513,cs),
(382,466,o),
(340,426,o),
(289,426,cs),
(198,426,l)
);
}
);
width = 587;
}
);
unicode = 66;
},
{
glyphname = C;
kernLeft = O;
kernRight = C;
lastChange = "2024-04-10 10:45:30 +0000";
layers = (
{
anchors = (
{
name = bottom;
pos = (309,0);
},
{
name = top;
pos = (309,687);
}
);
hints = (
{
horizontal = 1;
origin = (0,55);
target = (0,20);
type = Stem;
},
{
horizontal = 1;
origin = (0,27);
target = (0,48);
type = Stem;
},
{
origin = (0,52);
target = (0,23);
type = Stem;
}
);
layerId = "DDABD3A5-4A8B-4D55-9B9E-1269DFBEF3A1";
name = Regular;
shapes = (
{
closed = 1;
nodes = (
(381,-13,o),
(443,13,o),
(489,59,cs),
(493,63,o),
(494,67,o),
(494,71,cs),
(494,75,o),
(493,80,o),
(489,84,cs),
(482,92,o),
(474,102,o),
(462,114,cs),
(458,117,o),
(453,119,o),
(448,119,cs),
(443,119,o),
(438,117,o),
(433,112,cs),
(401,81,o),
(359,64,o),
(310,64,cs),
(223,64,o),
(153,141,o),
(153,231,cs),
(153,465,ls),
(153,555,o),
(223,632,o),
(310,632,cs),
(359,632,o),
(401,615,o),
(433,584,cs),
(438,579,o),
(443,577,o),
(448,577,cs),
(453,577,o),
(458,579,o),
(462,582,cs),
(474,594,o),
(482,604,o),
(489,612,cs),
(493,617,o),
(494,621,o),
(494,625,cs),
(494,630,o),
(493,634,o),
(489,637,cs),
(443,683,o),
(381,709,o),
(309,709,cs),
(177,709,o),
(70,600,o),
(70,465,cs),
(70,231,ls),
(70,96,o),
(177,-13,o),
(309,-13,cs)
);
}
);
width = 546;
},
{
anchors = (
{
name = bottom;
pos = (320,0);
},
{
name = top;
pos = (320,710);
}
);
hints = (
{
horizontal = 1;
origin = (0,55);
target = (0,20);
type = Stem;
},
{
horizontal = 1;
origin = (0,48);
target = (0,27);
type = Stem;
},
{
origin = (0,52);
target = (0,23);
type = Stem;
},
{
horizontal = 1;
origin = (0,33);
target = up;
type = BottomGhost;
},
{
horizontal = 1;
origin = (0,14);
target = down;
type = TopGhost;
}
);
layerId = "1D8279CA-6213-4437-A9CB-DE6E86D89D97";
name = Bold;
shapes = (
{
closed = 1;
nodes = (
(402,-13,o),
(475,19,o),
(525,76,cs),
(529,81,o),
(531,86,o),
(531,92,cs),
(531,99,o),
(528,106,o),
(522,112,cs),
(507,127,o),
(493,143,o),
(478,158,cs),
(473,163,o),
(467,166,o),
(461,166,cs),
(455,166,o),
(449,163,o),
(444,157,cs),
(413,123,o),
(371,104,o),
(321,104,cs),
(246,104,o),
(183,171,o),
(183,251,cs),
(183,464,ls),
(183,544,o),
(246,611,o),
(321,611,cs),
(371,611,o),
(413,592,o),
(444,558,cs),
(449,552,o),
(456,549,o),
(462,549,cs),
(468,549,o),
(473,552,o),
(478,557,cs),
(493,572,o),
(507,588,o),
(522,603,cs),
(527,609,o),
(530,616,o),
(530,623,cs),
(530,629,o),
(528,635,o),
(524,640,cs),
(474,697,o),
(401,728,o),
(320,728,cs),
(177,728,o),
(61,610,o),
(61,464,cs),
(61,251,ls),
(61,105,o),
(177,-13,o),
(320,-13,cs)
);
}
);
width = 581;
}
);
unicode = 67;
},
{
glyphname = D;
kernLeft = H;
kernRight = D;
lastChange = "2024-04-10 10:37:22 +0000";
layers = (
{
anchors = (
{
name = bottom;
pos = (281,0);
},
{
name = center;
pos = (169,349);
},
{
name = top;
pos = (274,687);
}
);
hints = (
{
horizontal = 1;
origin = (0,15);
target = (1,9);
type = Stem;
},
{
horizontal = 1;
origin = (0,8);
target = (1,0);
type = Stem;
},
{
origin = (0,12);
target = (1,9);
type = Stem;
},
{
origin = (1,5);
target = (0,3);
type = Stem;
}
);
layerId = "DDABD3A5-4A8B-4D55-9B9E-1269DFBEF3A1";
name = Regular;
shapes = (
{
closed = 1;
nodes = (
(304,0,ls),
(448,0,o),
(565,117,o),
(565,264,cs),
(565,431,ls),
(565,578,o),
(448,695,o),
(304,695,cs),
(126,695,ls),
(106,695,o),
(90,679,o),
(90,659,cs),
(90,36,ls),
(90,16,o),
(106,0,o),
(126,0,cs)
);
},
{
closed = 1;
nodes = (
(172,618,l),
(304,618,ls),
(403,618,o),
(483,539,o),
(483,439,cs),
(483,257,ls),
(483,157,o),
(403,77,o),
(304,77,cs),
(172,77,l)
);
}
);
width = 630;
},
{
anchors = (
{
name = bottom;
pos = (308,0);
},
{
name = center;
pos = (152,358);
},
{
name = top;
pos = (308,710);
}
);
hints = (
{
horizontal = 1;
origin = (0,15);
target = (1,9);
type = Stem;
},
{
horizontal = 1;
origin = (0,8);
target = (1,0);
type = Stem;
},
{
origin = (0,12);
target = (1,9);
type = Stem;
},
{
origin = (1,5);
target = (0,3);
type = Stem;
}
);
layerId = "1D8279CA-6213-4437-A9CB-DE6E86D89D97";
name = Bold;
shapes = (
{
closed = 1;
nodes = (
(317,0,ls),
(473,0,o),
(593,122,o),
(593,279,cs),
(593,436,ls),
(593,593,o),
(473,715,o),
(317,715,cs),
(121,715,ls),
(97,715,o),
(78,696,o),
(78,672,cs),
(78,43,ls),
(78,19,o),
(97,0,o),
(121,0,cs)
);
},
{
closed = 1;
nodes = (
(200,598,l),
(312,598,ls),
(400,598,o),
(471,527,o),
(471,439,cs),
(471,277,ls),
(471,188,o),
(400,117,o),
(312,117,cs),
(200,117,l)
);
}
);
width = 652;
}
);
unicode = 68;
},
{
glyphname = E;
kernLeft = H;
kernRight = E;
lastChange = "2024-04-10 10:45:51 +0000";
layers = (
{
anchors = (
{
name = bottom;
pos = (299,0);
},
{
name = ogonek;
pos = (433,1);
},
{
name = top;
pos = (280,687);
}
);
hints = (
{
horizontal = 1;
origin = (0,35);
target = (0,8);
type = Stem;
},
{
horizontal = 1;
origin = (0,9);
target = (0,18);
type = Stem;
},
{
horizontal = 1;
origin = (0,28);
target = (0,19);
type = Stem;
},
{
origin = (0,32);
target = (0,8);
type = Stem;
}
);
layerId = "DDABD3A5-4A8B-4D55-9B9E-1269DFBEF3A1";
name = Regular;
shapes = (
{
closed = 1;
nodes = (
(455,0,ls),
(463,0,o),
(469,6,o),
(469,14,cs),
(469,63,ls),
(469,71,o),
(463,77,o),
(455,77,cs),
(172,77,l),
(172,329,l),
(388,329,ls),
(396,329,o),
(402,335,o),
(402,343,cs),
(402,390,ls),
(402,398,o),
(396,404,o),
(388,404,cs),
(172,404,l),
(172,618,l),
(455,618,ls),
(463,618,o),
(469,624,o),
(469,632,cs),
(469,681,ls),
(469,689,o),
(463,695,o),
(455,695,cs),
(126,695,ls),
(106,695,o),
(90,679,o),
(90,659,cs),
(90,36,ls),
(90,16,o),
(106,0,o),
(126,0,cs)
);
}
);
width = 524;
},
{
anchors = (
{
name = bottom;
pos = (298,0);
},
{
name = ogonek;
pos = (448,10);
},
{
name = top;
pos = (286,710);
}
);
hints = (
{
horizontal = 1;
origin = (0,35);
target = (0,8);
type = Stem;
},
{
horizontal = 1;
origin = (0,9);
target = (0,18);
type = Stem;
},
{
horizontal = 1;
origin = (0,28);
target = (0,19);
type = Stem;
},
{
origin = (0,32);
target = (0,8);
type = Stem;
}
);
layerId = "1D8279CA-6213-4437-A9CB-DE6E86D89D97";
name = Bold;
shapes = (
{
closed = 1;
nodes = (
(462,0,ls),
(474,0,o),
(483,9,o),
(483,21,cs),
(483,96,ls),
(483,108,o),
(474,117,o),
(462,117,cs),
(200,117,l),
(200,315,l),
(395,315,ls),
(407,315,o),
(416,324,o),
(416,336,cs),
(416,407,ls),
(416,419,o),
(407,428,o),
(395,428,cs),
(200,428,l),
(200,598,l),
(462,598,ls),
(474,598,o),
(483,607,o),
(483,619,cs),
(483,694,ls),
(483,706,o),
(474,715,o),
(462,715,cs),
(121,715,ls),
(97,715,o),
(78,696,o),
(78,672,cs),
(78,43,ls),
(78,19,o),
(97,0,o),
(121,0,cs)
);
}
);
width = 543;
}
);
unicode = 69;
},
{
glyphname = Eogonek;
kernLeft = H;
kernRight = E;
lastChange = "2024-04-10 10:37:22 +0000";
layers = (
{
hints = (
{
horizontal = 1;
origin = (0,56);
target = (0,8);
type = Stem;
},
{
horizontal = 1;
origin = (0,49);
target = (0,22);
type = Stem;
},
{
horizontal = 1;
origin = (0,23);
target = (0,32);
type = Stem;
},
{
horizontal = 1;
origin = (0,42);
target = (0,33);
type = Stem;
},
{
origin = (0,46);
target = (0,22);
type = Stem;
},
{
origin = (0,53);
target = (0,11);
type = Stem;
}
);
layerId = "DDABD3A5-4A8B-4D55-9B9E-1269DFBEF3A1";
name = Regular;
shapes = (
{
closed = 1;
nodes = (
(462,-197,ls),
(470,-197,o),
(477,-190,o),
(477,-182,cs),
(477,-142,ls),
(477,-134,o),
(470,-127,o),
(462,-127,cs),
(442,-127,ls),
(421,-127,o),
(400,-120,o),
(400,-90,cs),
(400,-58,o),
(425,-32,o),
(456,0,cs),
(464,8,o),
(469,17,o),
(469,28,cs),
(469,63,ls),
(469,71,o),
(463,77,o),
(455,77,cs),
(172,77,l),
(172,329,l),
(388,329,ls),
(396,329,o),
(402,335,o),
(402,343,cs),
(402,390,ls),
(402,398,o),
(396,404,o),
(388,404,cs),
(172,404,l),
(172,618,l),
(455,618,ls),
(463,618,o),
(469,624,o),
(469,632,cs),
(469,681,ls),
(469,689,o),
(463,695,o),
(455,695,cs),
(126,695,ls),
(106,695,o),
(90,679,o),
(90,659,cs),
(90,36,ls),
(90,16,o),
(106,0,o),
(126,0,cs),
(388,0,l),
(357,-26,o),
(321,-67,o),
(321,-112,cs),
(321,-165,o),
(371,-197,o),
(429,-197,cs)
);
}
);
width = 532;
},
{
hints = (
{
horizontal = 1;
origin = (0,56);
target = (0,8);
type = Stem;
},
{
horizontal = 1;
origin = (0,49);
target = (0,22);
type = Stem;
},
{
horizontal = 1;
origin = (0,23);
target = (0,32);
type = Stem;
},
{
horizontal = 1;
origin = (0,42);
target = (0,33);
type = Stem;
},
{
origin = (0,46);
target = (0,22);
type = Stem;
},
{
origin = (0,53);
target = (0,3);
type = Stem;
}
);
layerId = "1D8279CA-6213-4437-A9CB-DE6E86D89D97";
name = Bold;
shapes = (
{
closed = 1;
nodes = (
(466,-193,ls),
(475,-193,o),
(483,-185,o),
(483,-176,cs),
(483,-119,ls),
(483,-109,o),
(475,-102,o),
(466,-102,cs),
(445,-102,ls),
(418,-102,o),
(397,-88,o),
(397,-63,cs),
(397,-35,o),
(423,-13,o),
(463,-3,cs),
(475,-1,o),
(483,8,o),
(483,19,cs),
(483,96,ls),
(483,108,o),
(474,117,o),
(462,117,cs),
(200,117,l),
(200,315,l),
(395,315,ls),
(407,315,o),
(416,324,o),
(416,336,cs),
(416,407,ls),
(416,419,o),
(407,428,o),
(395,428,cs),
(200,428,l),
(200,598,l),
(462,598,ls),
(474,598,o),
(483,607,o),
(483,619,cs),
(483,694,ls),
(483,706,o),
(474,715,o),
(462,715,cs),
(121,715,ls),
(97,715,o),
(78,696,o),
(78,672,cs),
(78,43,ls),
(78,19,o),
(97,0,o),
(121,0,cs),
(363,0,l),
(324,-24,o),
(304,-57,o),
(304,-94,cs),
(304,-157,o),
(364,-193,o),
(431,-193,cs)
);
}
);
width = 543;
}
);
metricLeft = E;
metricRight = E;
unicode = 280;
},
{
glyphname = F;
kernLeft = H;
kernRight = F;
lastChange = "2024-04-10 10:37:22 +0000";
layers = (
{
anchors = (
{
name = bottom;
pos = (132,0);
},
{
name = top;
pos = (285,687);
}
);
hints = (
{
horizontal = 1;
origin = (0,30);
target = up;
type = BottomGhost;
},
{
horizontal = 1;
origin = (0,4);
target = (0,13);
type = Stem;
},
{
horizontal = 1;
origin = (0,23);
target = (0,14);
type = Stem;
},
{
origin = (0,27);
target = (0,3);
type = Stem;
}
);
layerId = "DDABD3A5-4A8B-4D55-9B9E-1269DFBEF3A1";
name = Regular;
shapes = (
{
closed = 1;
nodes = (
(158,0,ls),
(166,0,o),
(172,6,o),
(172,14,cs),
(172,309,l),
(388,309,ls),
(396,309,o),
(402,315,o),
(402,323,cs),
(402,370,ls),
(402,378,o),
(396,384,o),
(388,384,cs),
(172,384,l),
(172,618,l),
(455,618,ls),
(463,618,o),
(469,624,o),
(469,632,cs),
(469,681,ls),
(469,689,o),
(463,695,o),
(455,695,cs),
(126,695,ls),
(106,695,o),
(90,679,o),
(90,659,cs),
(90,14,ls),
(90,6,o),
(96,0,o),
(104,0,cs)
);
}
);
width = 509;
},
{
anchors = (
{
name = bottom;
pos = (140,0);
},
{
name = top;
pos = (290,710);
}
);
hints = (
{
horizontal = 1;
origin = (0,30);
target = up;
type = BottomGhost;
},
{
horizontal = 1;
origin = (0,4);
target = (0,13);
type = Stem;
},
{
horizontal = 1;
origin = (0,23);
target = (0,14);
type = Stem;
},
{
origin = (0,27);
target = (0,3);
type = Stem;
}
);
layerId = "1D8279CA-6213-4437-A9CB-DE6E86D89D97";
name = Bold;
shapes = (
{
closed = 1;
nodes = (
(179,0,ls),
(191,0,o),
(200,9,o),
(200,21,cs),
(200,298,l),
(395,298,ls),
(407,298,o),
(416,307,o),
(416,319,cs),
(416,390,ls),
(416,402,o),
(407,411,o),
(395,411,cs),
(200,411,l),
(200,598,l),
(462,598,ls),
(474,598,o),
(483,607,o),
(483,619,cs),
(483,694,ls),
(483,706,o),
(474,715,o),
(462,715,cs),
(121,715,ls),
(97,715,o),
(78,696,o),
(78,672,cs),
(78,21,ls),
(78,9,o),
(87,0,o),
(99,0,cs)
);
}
);
width = 528;
}
);
unicode = 70;
},
{
glyphname = G;
kernLeft = O;
kernRight = G;
lastChange = "2024-04-10 10:46:16 +0000";
layers = (
{
anchors = (
{
name = bottom;
pos = (314,0);
},
{
name = top;
pos = (314,687);
}
);
hints = (
{
horizontal = 1;
origin = (0,54);
target = (0,19);
type = Stem;
},
{
horizontal = 1;
origin = (0,14);
target = (0,7);
type = Stem;
},
{
horizontal = 1;
origin = (0,26);
target = (0,47);
type = Stem;
},
{
origin = (0,51);
target = (0,22);
type = Stem;
},
{
origin = (0,16);
target = (0,2);
type = Stem;
}
);
layerId = "DDABD3A5-4A8B-4D55-9B9E-1269DFBEF3A1";
name = Regular;
shapes = (
{
closed = 1;
nodes = (
(448,-12,o),
(557,97,o),
(557,232,cs),
(557,345,ls),
(557,365,o),
(541,381,o),
(521,381,cs),
(336,381,ls),
(328,381,o),
(322,375,o),
(322,367,cs),
(322,321,ls),
(322,313,o),
(328,307,o),
(336,307,cs),
(477,307,l),
(477,228,ls),
(477,138,o),
(404,65,o),
(315,65,cs),
(225,65,o),
(152,142,o),
(152,232,cs),
(152,465,ls),
(152,555,o),
(225,632,o),
(315,632,cs),
(366,632,o),
(410,615,o),
(443,584,cs),
(448,579,o),
(453,577,o),
(458,577,cs),
(463,577,o),
(468,579,o),
(472,582,cs),
(484,594,o),
(493,603,o),
(500,611,cs),
(504,616,o),
(505,620,o),
(505,624,cs),
(505,629,o),
(504,633,o),
(500,636,cs),
(453,683,o),
(388,709,o),
(314,709,cs),
(179,709,o),
(70,600,o),
(70,465,cs),
(70,232,ls),
(70,97,o),
(179,-12,o),
(314,-12,cs)
);
}
);
width = 617;
},
{
anchors = (
{
name = bottom;
pos = (324,0);
},
{
name = top;
pos = (324,710);
}
);
hints = (
{
horizontal = 1;
origin = (0,54);
target = (0,19);
type = Stem;
},
{
horizontal = 1;
origin = (0,14);
target = (0,7);
type = Stem;
},
{
horizontal = 1;
origin = (0,47);
target = (0,26);
type = Stem;
},
{
origin = (0,51);
target = (0,22);
type = Stem;
},
{
origin = (0,16);
target = (0,2);
type = Stem;
},
{
horizontal = 1;
origin = (0,32);
target = up;
type = BottomGhost;
}
);
layerId = "1D8279CA-6213-4437-A9CB-DE6E86D89D97";
name = Bold;
shapes = (
{
closed = 1;
nodes = (
(470,-13,o),
(588,105,o),
(588,251,cs),
(588,367,ls),
(588,391,o),
(569,410,o),
(545,410,cs),
(334,410,ls),
(322,410,o),
(313,401,o),
(313,389,cs),
(313,317,ls),
(313,305,o),
(322,296,o),
(334,296,cs),
(468,296,l),
(468,247,ls),
(468,168,o),
(404,104,o),
(326,104,cs),
(248,104,o),
(183,171,o),
(183,251,cs),
(183,464,ls),
(183,544,o),
(248,611,o),
(326,611,cs),
(378,611,o),
(422,592,o),
(454,558,cs),
(459,552,o),
(466,549,o),
(472,549,cs),
(478,549,o),
(483,552,o),
(488,557,cs),
(503,572,o),
(517,588,o),
(532,603,cs),
(537,609,o),
(540,616,o),
(540,623,cs),
(540,629,o),
(538,635,o),
(534,640,cs),
(483,697,o),
(408,728,o),
(325,728,cs),
(179,728,o),
(61,610,o),
(61,464,cs),
(61,251,ls),
(61,105,o),
(179,-13,o),
(325,-13,cs)
);
}
);
width = 642;
}
);
unicode = 71;
},
{
glyphname = H;
kernLeft = H;
kernRight = H;
lastChange = "2024-04-10 10:46:37 +0000";
layers = (
{
anchors = (
{
name = bottom;
pos = (339,0);
},
{
name = center;
pos = (336,532);
},
{
name = top;
pos = (331,687);
}
);
hints = (
{
horizontal = 1;
origin = (0,35);
target = up;
type = BottomGhost;
},
{
horizontal = 1;
origin = (0,4);
target = (0,23);
type = Stem;
},
{
horizontal = 1;
origin = (0,28);
target = down;
type = TopGhost;
},
{
origin = (0,32);
target = (0,3);
type = Stem;
},
{
origin = (0,6);
target = (0,13);
type = Stem;
}
);
layerId = "DDABD3A5-4A8B-4D55-9B9E-1269DFBEF3A1";
name = Regular;
shapes = (
{
closed = 1;
nodes = (
(158,0,ls),
(166,0,o),
(172,6,o),
(172,14,cs),
(172,329,l),
(508,329,l),
(508,14,ls),
(508,6,o),
(514,0,o),
(522,0,cs),
(576,0,ls),
(584,0,o),
(590,6,o),
(590,14,cs),
(590,681,ls),
(590,689,o),
(584,695,o),
(576,695,cs),
(522,695,ls),
(514,695,o),
(508,689,o),
(508,681,cs),
(508,404,l),
(172,404,l),
(172,681,ls),
(172,689,o),
(166,695,o),
(158,695,cs),
(104,695,ls),
(96,695,o),
(90,689,o),
(90,681,cs),
(90,14,ls),
(90,6,o),
(96,0,o),
(104,0,cs)
);
}
);
width = 680;
},
{
anchors = (
{
name = bottom;
pos = (348,0);
},
{
name = center;
pos = (348,563);
},
{
name = top;
pos = (345,710);
}
);
hints = (
{
horizontal = 1;
origin = (0,35);
target = up;
type = BottomGhost;
},
{
horizontal = 1;
origin = (0,4);
target = (0,23);
type = Stem;
},
{
horizontal = 1;
origin = (0,28);
target = down;
type = TopGhost;
},
{
origin = (0,32);
target = (0,3);
type = Stem;
},
{
origin = (0,6);
target = (0,13);
type = Stem;
}
);
layerId = "1D8279CA-6213-4437-A9CB-DE6E86D89D97";
name = Bold;
shapes = (
{
closed = 1;
nodes = (
(179,0,ls),
(191,0,o),
(200,9,o),
(200,21,cs),
(200,309,l),
(496,309,l),
(496,21,ls),
(496,9,o),
(505,0,o),
(517,0,cs),
(597,0,ls),
(609,0,o),
(618,9,o),
(618,21,cs),
(618,694,ls),
(618,706,o),
(609,715,o),
(597,715,cs),
(517,715,ls),
(505,715,o),
(496,706,o),
(496,694,cs),
(496,424,l),
(200,424,l),
(200,694,ls),
(200,706,o),
(191,715,o),
(179,715,cs),
(99,715,ls),
(87,715,o),
(78,706,o),
(78,694,cs),
(78,21,ls),
(78,9,o),
(87,0,o),
(99,0,cs)
);
}
);
width = 699;
}
);
unicode = 72;
},
{
glyphname = I;
kernLeft = I;
kernRight = I;
lastChange = "2024-04-10 10:46:42 +0000";
layers = (
{
anchors = (
{
name = bottom;
pos = (218,0);
},
{
name = ogonek;
pos = (325,0);
},
{
name = top;
pos = (221,687);
}
);
hints = (
{
horizontal = 1;
origin = (0,35);
target = (0,28);
type = Stem;
},
{
horizontal = 1;
origin = (0,18);
target = (0,25);
type = Stem;
},
{
origin = (0,27);
target = (0,8);
type = Stem;
}
);
layerId = "DDABD3A5-4A8B-4D55-9B9E-1269DFBEF3A1";
name = Regular;
shapes = (
{
closed = 1;
nodes = (
(363,0,ls),
(371,0,o),
(377,6,o),
(377,14,cs),
(377,61,ls),
(377,69,o),
(371,75,o),
(363,75,cs),
(262,75,l),
(262,620,l),
(363,620,ls),
(371,620,o),
(377,626,o),
(377,634,cs),
(377,681,ls),
(377,689,o),
(371,695,o),
(363,695,cs),
(79,695,ls),
(71,695,o),
(65,689,o),
(65,681,cs),
(65,634,ls),
(65,626,o),
(71,620,o),
(79,620,cs),
(180,620,l),
(180,75,l),
(79,75,ls),
(71,75,o),
(65,69,o),
(65,61,cs),
(65,14,ls),
(65,6,o),
(71,0,o),
(79,0,cs)
);
}
);
width = 442;
},
{
anchors = (
{
name = bottom;
pos = (224,0);
},
{
name = ogonek;
pos = (363,10);
},
{
name = top;
pos = (224,710);
}
);
hints = (
{
horizontal = 1;
origin = (0,35);
target = (0,28);
type = Stem;
},
{
horizontal = 1;
origin = (0,18);
target = (0,25);
type = Stem;
},
{
origin = (0,27);
target = (0,8);
type = Stem;
}
);
layerId = "1D8279CA-6213-4437-A9CB-DE6E86D89D97";
name = Bold;
shapes = (
{
closed = 1;
nodes = (
(370,0,ls),
(382,0,o),
(391,9,o),
(391,21,cs),
(391,90,ls),
(391,102,o),
(382,111,o),
(370,111,cs),
(285,111,l),
(285,604,l),
(370,604,ls),
(382,604,o),
(391,613,o),
(391,625,cs),
(391,694,ls),
(391,706,o),
(382,715,o),
(370,715,cs),
(78,715,ls),
(66,715,o),
(57,706,o),
(57,694,cs),
(57,625,ls),
(57,613,o),
(66,604,o),
(78,604,cs),
(163,604,l),
(163,111,l),
(78,111,ls),
(66,111,o),
(57,102,o),
(57,90,cs),
(57,21,ls),
(57,9,o),
(66,0,o),
(78,0,cs)
);
}
);
width = 450;
}
);
unicode = 73;
},
{
glyphname = Iogonek;
kernLeft = I;
kernRight = I;
lastChange = "2024-04-10 10:37:22 +0000";
layers = (
{
hints = (
{
horizontal = 1;
origin = (0,56);
target = (0,8);
type = Stem;
},
{
horizontal = 1;
origin = (0,49);
target = (0,42);
type = Stem;
},
{
horizontal = 1;
origin = (0,32);
target = (0,39);
type = Stem;
},
{
origin = (0,53);
target = (0,11);
type = Stem;
},
{
origin = (0,41);
target = (0,22);
type = Stem;
}
);
layerId = "DDABD3A5-4A8B-4D55-9B9E-1269DFBEF3A1";
name = Regular;
shapes = (
{
closed = 1;
nodes = (
(367,-197,ls),
(375,-197,o),
(382,-190,o),
(382,-182,cs),
(382,-142,ls),
(382,-134,o),
(375,-127,o),
(367,-127,cs),
(350,-127,ls),
(329,-127,o),
(308,-120,o),
(308,-90,cs),
(308,-58,o),
(333,-32,o),
(364,0,cs),
(372,8,o),
(377,17,o),
(377,28,cs),
(377,63,ls),
(377,71,o),
(371,77,o),
(363,77,cs),
(262,77,l),
(262,618,l),
(363,618,ls),
(371,618,o),
(377,624,o),
(377,632,cs),
(377,681,ls),
(377,689,o),
(371,695,o),
(363,695,cs),
(79,695,ls),
(71,695,o),
(65,689,o),
(65,681,cs),
(65,632,ls),
(65,624,o),
(71,618,o),
(79,618,cs),
(180,618,l),
(180,77,l),
(79,77,ls),
(71,77,o),
(65,71,o),
(65,63,cs),
(65,14,ls),
(65,6,o),
(71,0,o),
(79,0,cs),
(296,0,l),
(265,-26,o),
(229,-67,o),
(229,-112,cs),
(229,-165,o),
(279,-197,o),
(337,-197,cs)
);
}
);
width = 437;
},
{
hints = (
{
horizontal = 1;
origin = (0,56);
target = (0,8);
type = Stem;
},
{
horizontal = 1;
origin = (0,49);
target = (0,42);
type = Stem;
},
{
horizontal = 1;
origin = (0,32);
target = (0,39);
type = Stem;
},
{
origin = (0,53);
target = (0,3);
type = Stem;
},
{
origin = (0,41);
target = (0,22);
type = Stem;
}
);
layerId = "1D8279CA-6213-4437-A9CB-DE6E86D89D97";
name = Bold;
shapes = (
{
closed = 1;
nodes = (
(374,-193,ls),
(383,-193,o),
(391,-185,o),
(391,-176,cs),
(391,-119,ls),
(391,-109,o),
(383,-102,o),
(374,-102,cs),
(353,-102,ls),
(326,-102,o),
(305,-88,o),
(305,-63,cs),
(305,-35,o),
(331,-13,o),
(371,-3,cs),
(383,-1,o),
(391,8,o),
(391,19,cs),
(391,93,ls),
(391,105,o),
(382,114,o),
(370,114,cs),
(285,114,l),
(285,601,l),
(370,601,ls),
(382,601,o),
(391,610,o),
(391,622,cs),
(391,694,ls),
(391,706,o),
(382,715,o),
(370,715,cs),
(78,715,ls),
(66,715,o),
(57,706,o),
(57,694,cs),
(57,622,ls),
(57,610,o),
(66,601,o),
(78,601,cs),
(163,601,l),
(163,114,l),
(78,114,ls),
(66,114,o),
(57,105,o),
(57,93,cs),
(57,21,ls),
(57,9,o),
(66,0,o),
(78,0,cs),
(271,0,l),
(232,-24,o),
(212,-57,o),
(212,-94,cs),
(212,-157,o),
(272,-193,o),
(339,-193,cs)
);
}
);
width = 450;
}
);
unicode = 302;
},
{
glyphname = J;
kernLeft = J;
kernRight = J;
lastChange = "2024-04-10 10:37:22 +0000";
layers = (
{
anchors = (
{
name = bottom;
pos = (225,0);
},
{
name = top;
pos = (225,687);
}
);
hints = (
{
horizontal = 1;
origin = (0,23);
target = (0,16);
type = Stem;
},
{
horizontal = 1;
origin = (0,8);
target = down;
type = TopGhost;
},
{
origin = (0,12);
target = (0,3);
type = Stem;
}
);
layerId = "DDABD3A5-4A8B-4D55-9B9E-1269DFBEF3A1";
name = Regular;
shapes = (
{
closed = 1;
nodes = (
(114,0,ls),
(208,0,o),
(264,72,o),
(264,156,cs),
(264,681,ls),
(264,689,o),
(258,695,o),
(250,695,cs),
(196,695,ls),
(188,695,o),
(182,689,o),
(182,681,cs),
(182,157,ls),
(182,108,o),
(151,76,o),
(104,76,cs),
(45,76,ls),
(36,76,o),
(30,70,o),
(30,61,cs),
(30,15,ls),
(30,6,o),
(36,0,o),
(45,0,cs)
);
}
);
width = 359;
},
{
anchors = (
{
name = bottom;
pos = (257,0);
},
{
name = top;
pos = (257,710);
}
);
associatedMasterId = "DDABD3A5-4A8B-4D55-9B9E-1269DFBEF3A1";
hints = (
{
horizontal = 1;
origin = (0,14);
target = (0,7);
type = Stem;
},
{
horizontal = 1;
origin = (0,0);
target = down;
type = TopGhost;
},
{
origin = (0,4);
target = (0,17);
type = Stem;
},
{
horizontal = 1;
place = (200,-20);
target = down;
type = TopGhost;
}
);
layerId = "28D62933-309E-4E6D-AB02-F7020D728988";
name = "Bold Mar 8 16, 21:31";
shapes = (
{
closed = 1;
nodes = (
(216,715,ls),
(204,715,o),
(195,706,o),
(195,694,cs),
(195,157,ls),
(195,124,o),
(175,104,o),
(146,104,cs),
(122,104,o),
(95,118,o),
(77,149,c),
(-5,74,l),
(30,18,o),
(81,-13,o),
(147,-13,cs),
(246,-13,o),
(317,59,o),
(317,161,cs),
(317,694,ls),
(317,706,o),
(308,715,o),
(296,715,cs)
);
}
);
width = 402;
},
{
anchors = (
{
name = bottom;
pos = (244,0);
},
{
name = top;
pos = (244,687);
}
);
associatedMasterId = "DDABD3A5-4A8B-4D55-9B9E-1269DFBEF3A1";
hints = (
{
horizontal = 1;
origin = (0,33);
target = (0,14);
type = Stem;
},
{
horizontal = 1;
origin = (0,7);
target = down;
type = TopGhost;
},
{
origin = (0,11);
target = (0,2);
type = Stem;
},
{
horizontal = 1;
origin = (0,20);
target = down;
type = TopGhost;
}
);
layerId = "095C575A-DA01-45EE-84F8-7137D1EBC8A2";
name = "Regular Mar 8 16, 21:42";
shapes = (
{
closed = 1;
nodes = (
(218,-13,o),
(283,55,o),
(283,156,cs),
(283,681,ls),
(283,689,o),
(277,695,o),
(269,695,cs),
(215,695,ls),
(207,695,o),
(201,689,o),
(201,681,cs),
(201,147,ls),
(201,96,o),
(168,62,o),
(122,62,cs),
(93,62,o),
(74,75,o),
(59,89,cs),
(55,92,o),
(51,94,o),
(47,94,cs),
(43,94,o),
(40,92,o),
(37,89,cs),
(3,51,ls),
(1,49,o),
(0,46,o),
(0,43,cs),
(0,40,o),
(1,38,o),
(3,35,cs),
(31,5,o),
(71,-13,o),
(121,-13,cs)
);
}
);
width = 378;
},
{
anchors = (
{
name = bottom;
pos = (257,0);
},
{
name = top;
pos = (257,710);
}
);
associatedMasterId = "DDABD3A5-4A8B-4D55-9B9E-1269DFBEF3A1";
hints = (
{
horizontal = 1;
origin = (0,33);
target = (0,14);
type = Stem;
},
{
horizontal = 1;
origin = (0,7);
target = down;
type = TopGhost;
},
{
origin = (0,11);
target = (0,2);
type = Stem;
},
{
horizontal = 1;
origin = (0,20);
target = down;
type = TopGhost;
}
);
layerId = "08A4BAF7-7219-47B9-BE5D-B9F8C1F9782B";
name = "Bold Mar 8 16, 21:44";
shapes = (
{
closed = 1;
nodes = (
(241,-13,o),
(317,68,o),
(317,176,cs),
(317,694,ls),
(317,706,o),
(308,715,o),
(296,715,cs),
(216,715,ls),
(204,715,o),
(195,706,o),
(195,694,cs),
(195,166,ls),
(195,128,o),
(172,101,o),
(134,101,cs),
(111,101,o),
(90,114,o),
(76,128,cs),
(71,133,o),
(64,137,o),
(59,137,cs),
(54,137,o),
(49,135,o),
(45,130,cs),
(-2,80,ls),
(-6,76,o),
(-8,71,o),
(-8,65,cs),
(-8,61,o),
(-6,57,o),
(-3,53,cs),
(31,11,o),
(81,-13,o),
(138,-13,cs)
);
}
);
width = 402;
},
{
anchors = (
{
name = bottom;
pos = (237,0);
},
{
name = top;
pos = (237,710);
}
);
associatedMasterId = "1D8279CA-6213-4437-A9CB-DE6E86D89D97";
hints = (
{
horizontal = 1;
origin = (0,23);
target = (0,16);
type = Stem;
},
{
horizontal = 1;
origin = (0,8);
target = down;
type = TopGhost;
},
{
origin = (0,12);
target = (0,3);
type = Stem;
}
);
layerId = "1E26393A-FBE6-40FD-98D2-4B9D539337C2";
name = Bold;
shapes = (
{
closed = 1;
nodes = (
(130,0,ls),
(227,0,o),
(297,73,o),
(297,173,cs),
(297,694,ls),
(297,706,o),
(288,715,o),
(276,715,cs),
(196,715,ls),
(184,715,o),
(175,706,o),
(175,694,cs),
(175,173,ls),
(175,137,o),
(154,115,o),
(121,115,cs),
(47,115,ls),
(35,115,o),
(26,106,o),
(26,94,cs),
(26,21,ls),
(26,9,o),
(35,0,o),
(47,0,cs)
);
}
);
width = 383;
},
{
anchors = (
{
name = bottom;
pos = (237,0);
},
{
name = top;
pos = (237,710);
}
);
hints = (
{
horizontal = 1;
origin = (0,23);
target = (0,16);
type = Stem;
},
{
horizontal = 1;
origin = (0,8);
target = down;
type = TopGhost;
},
{
origin = (0,12);
target = (0,3);
type = Stem;
}
);
layerId = "1D8279CA-6213-4437-A9CB-DE6E86D89D97";
name = Bold;
shapes = (
{
closed = 1;
nodes = (
(130,0,ls),
(227,0,o),
(297,73,o),
(297,173,cs),
(297,694,ls),
(297,706,o),
(288,715,o),
(276,715,cs),
(196,715,ls),
(184,715,o),
(175,706,o),
(175,694,cs),
(175,173,ls),
(175,137,o),
(154,115,o),
(121,115,cs),
(47,115,ls),
(35,115,o),
(26,106,o),
(26,94,cs),
(26,21,ls),
(26,9,o),
(35,0,o),
(47,0,cs)
);
}
);
width = 383;
}
);
unicode = 74;
},
{
glyphname = K;
kernLeft = H;
kernRight = K;
lastChange = "2024-04-10 10:47:09 +0000";
layers = (
{
anchors = (
{
name = bottom;
pos = (316,0);
},
{
name = top;
pos = (312,687);
}
);
hints = (
{
horizontal = 1;
origin = (0,31);
target = up;
type = BottomGhost;
},
{
horizontal = 1;
origin = (0,36);
target = (0,19);
type = Stem;
},
{
horizontal = 1;
origin = (0,24);
target = down;
type = TopGhost;
},
{
origin = (0,28);
target = (0,35);
type = Stem;
}
);
layerId = "DDABD3A5-4A8B-4D55-9B9E-1269DFBEF3A1";
name = Regular;
shapes = (
{
closed = 1;
nodes = (
(530,0,o),
(537,6,o),
(537,15,cs),
(537,18,o),
(536,22,o),
(533,25,cs),
(275,351,l),
(534,672,ls),
(537,675,o),
(538,679,o),
(538,682,cs),
(538,689,o),
(533,695,o),
(524,695,cs),
(461,695,ls),
(454,695,o),
(448,692,o),
(443,686,cs),
(201,383,l),
(172,383,l),
(172,681,ls),
(172,689,o),
(166,695,o),
(158,695,cs),
(104,695,ls),
(96,695,o),
(90,689,o),
(90,681,cs),
(90,13,ls),
(90,5,o),
(97,0,o),
(105,0,cs),
(157,0,ls),
(165,0,o),
(172,5,o),
(172,13,cs),
(172,308,l),
(205,308,l),
(442,9,ls),
(447,3,o),
(452,0,o),
(459,0,cs),
(522,0,ls)
);
}
);
width = 563;
},
{
anchors = (
{
name = bottom;
pos = (315,0);
},
{
name = top;
pos = (318,710);
}
);
associatedMasterId = "1D8279CA-6213-4437-A9CB-DE6E86D89D97";
hints = (
{
horizontal = 1;
origin = (0,31);
target = up;
type = BottomGhost;
},
{
horizontal = 1;
origin = (0,36);
target = (0,19);
type = Stem;
},
{
horizontal = 1;
origin = (0,24);
target = down;
type = TopGhost;
},
{
origin = (0,28);
target = (0,35);
type = Stem;
}
);
layerId = "10353682-C4CF-488F-B68A-1E8A6F7F7F7A";
name = Bold;
shapes = (
{
closed = 1;
nodes = (
(597,-1,o),
(605,8,o),
(605,17,cs),
(605,22,o),
(603,26,o),
(600,30,cs),
(339,362,l),
(599,684,ls),
(602,688,o),
(604,692,o),
(604,697,cs),
(604,706,o),
(596,715,o),
(584,715,cs),
(493,715,ls),
(481,715,o),
(470,710,o),
(463,701,cs),
(233,412,l),
(200,412,l),
(200,694,ls),
(200,706,o),
(191,715,o),
(179,715,cs),
(99,715,ls),
(87,715,o),
(78,706,o),
(78,694,cs),
(78,21,ls),
(78,9,o),
(87,0,o),
(99,0,cs),
(179,0,ls),
(191,0,o),
(200,9,o),
(200,21,cs),
(200,299,l),
(238,299,l),
(463,14,ls),
(470,5,o),
(481,0,o),
(492,0,cs),
(585,-1,ls)
);
}
);
width = 628;
},
{
anchors = (
{
name = bottom;
pos = (315,0);
},
{
name = top;
pos = (318,710);
}
);
hints = (
{
horizontal = 1;
origin = (0,31);
target = up;
type = BottomGhost;
},
{
horizontal = 1;
origin = (0,36);
target = (0,19);
type = Stem;
},
{
horizontal = 1;
origin = (0,24);
target = down;
type = TopGhost;
},
{
origin = (0,28);
target = (0,35);
type = Stem;
}
);
layerId = "1D8279CA-6213-4437-A9CB-DE6E86D89D97";
name = Bold;
shapes = (
{
closed = 1;
nodes = (
(597,-1,o),
(605,8,o),
(605,17,cs),
(605,22,o),
(603,26,o),
(600,30,cs),
(339,362,l),
(599,684,ls),
(602,688,o),
(604,692,o),
(604,697,cs),
(604,706,o),
(596,715,o),
(584,715,cs),
(493,715,ls),
(481,715,o),
(470,710,o),
(463,701,cs),
(233,412,l),
(200,412,l),
(200,694,ls),
(200,706,o),
(191,715,o),
(179,715,cs),
(99,715,ls),
(87,715,o),
(78,706,o),
(78,694,cs),
(78,21,ls),
(78,9,o),
(87,0,o),
(99,0,cs),
(179,0,ls),
(191,0,o),
(200,9,o),
(200,21,cs),
(200,299,l),
(238,299,l),
(463,14,ls),
(470,5,o),
(481,0,o),
(492,0,cs),
(585,-1,ls)
);
}
);
width = 628;
}
);
unicode = 75;
},
{
glyphname = L;
kernLeft = H;
kernRight = L;
lastChange = "2024-04-10 10:37:22 +0000";
layers = (
{
anchors = (
{
name = bottom;
pos = (272,0);
},
{
name = center;
pos = (164,381);
},
{
name = top;
pos = (130,687);
},
{
name = topright;
pos = (426,687);
}
);
hints = (
{
horizontal = 1;
origin = (0,20);
target = (0,8);
type = Stem;
},
{
horizontal = 1;
origin = (0,13);
target = down;
type = TopGhost;
},
{
origin = (0,17);
target = (0,8);
type = Stem;
}
);
layerId = "DDABD3A5-4A8B-4D55-9B9E-1269DFBEF3A1";
name = Regular;
shapes = (
{
closed = 1;
nodes = (
(425,0,ls),
(433,0,o),
(439,6,o),
(439,14,cs),
(439,63,ls),
(439,71,o),
(433,77,o),
(425,77,cs),
(172,77,l),
(172,681,ls),
(172,689,o),
(166,695,o),
(158,695,cs),
(104,695,ls),
(96,695,o),
(90,689,o),
(90,681,cs),
(90,36,ls),
(90,16,o),
(106,0,o),
(126,0,cs)
);
}
);
width = 474;
},
{
anchors = (
{
name = bottom;
pos = (266,0);
},
{
name = center;
pos = (157,384);
},
{
name = top;
pos = (141,710);
},
{
name = topright;
pos = (463,710);
}
);
hints = (
{
horizontal = 1;
origin = (0,20);
target = (0,8);
type = Stem;
},
{
horizontal = 1;
origin = (0,13);
target = down;
type = TopGhost;
},
{
origin = (0,17);
target = (0,8);
type = Stem;
}
);
layerId = "1D8279CA-6213-4437-A9CB-DE6E86D89D97";
name = Bold;
shapes = (
{
closed = 1;
nodes = (
(432,0,ls),
(444,0,o),
(453,9,o),
(453,21,cs),
(453,96,ls),
(453,108,o),
(444,117,o),
(432,117,cs),
(200,117,l),
(200,694,ls),
(200,706,o),
(191,715,o),
(179,715,cs),
(99,715,ls),
(87,715,o),
(78,706,o),
(78,694,cs),
(78,43,ls),
(78,19,o),
(97,0,o),
(121,0,cs)
);
}
);
width = 485;
}
);
unicode = 76;
},
{
glyphname = Lcaron;
kernLeft = H;
lastChange = "2024-04-10 10:47:24 +0000";
layers = (
{
hints = (
{
horizontal = 1;
origin = (0,20);
target = (0,8);
type = Stem;
},
{
horizontal = 1;
origin = (1,18);
target = (0,13);
type = Stem;
},
{
origin = (0,17);
target = (0,8);
type = Stem;
}
);
layerId = "DDABD3A5-4A8B-4D55-9B9E-1269DFBEF3A1";
name = Regular;
shapes = (
{
closed = 1;
nodes = (
(425,0,ls),
(433,0,o),
(439,6,o),
(439,14,cs),
(439,63,ls),
(439,71,o),
(433,77,o),
(425,77,cs),
(172,77,l),
(172,681,ls),
(172,689,o),
(166,695,o),
(158,695,cs),
(104,695,ls),
(96,695,o),
(90,689,o),
(90,681,cs),
(90,36,ls),
(90,16,o),
(106,0,o),
(126,0,cs)
);
},
{
closed = 1;
nodes = (
(346,567,ls),
(359,567,o),
(366,572,o),
(372,579,cs),
(453,672,ls),
(456,675,o),
(457,678,o),
(457,682,cs),
(457,689,o),
(452,695,o),
(443,695,cs),
(376,695,ls),
(361,695,o),
(352,686,o),
(348,676,cs),
(311,586,ls),
(307,576,o),
(311,567,o),
(322,567,cs)
);
}
);
width = 474;
},
{
hints = (
{
horizontal = 1;
origin = (0,20);
target = (0,8);
type = Stem;
},
{
horizontal = 1;
origin = (1,18);
target = (0,13);
type = Stem;
},
{
origin = (0,17);
target = (0,8);
type = Stem;
}
);
layerId = "1D8279CA-6213-4437-A9CB-DE6E86D89D97";
name = Bold;
shapes = (
{
closed = 1;
nodes = (
(432,0,ls),
(444,0,o),
(453,9,o),
(453,21,cs),
(453,96,ls),
(453,108,o),
(444,117,o),
(432,117,cs),
(200,117,l),
(200,694,ls),
(200,706,o),
(191,715,o),
(179,715,cs),
(99,715,ls),
(87,715,o),
(78,706,o),
(78,694,cs),
(78,43,ls),
(78,19,o),
(97,0,o),
(121,0,cs)
);
},
{
closed = 1;
nodes = (
(383,585,ls),
(390,585,o),
(398,587,o),
(404,593,cs),
(507,689,ls),
(510,692,o),
(512,697,o),
(512,700,cs),
(512,708,o),
(506,715,o),
(497,715,cs),
(389,715,ls),
(381,715,o),
(372,710,o),
(369,702,cs),
(324,605,ls),
(319,594,o),
(326,585,o),
(337,585,cs)
);
}
);
width = 520;
}
);
metricLeft = L;
unicode = 317;
},
{
glyphname = Lslash;
kernRight = L;
lastChange = "2024-04-10 10:54:48 +0000";
layers = (
{
hints = (
{
horizontal = 1;
origin = (0,20);
target = (0,8);
type = Stem;
},
{
horizontal = 1;
origin = (0,13);
target = down;
type = TopGhost;
},
{
origin = (0,17);
target = (0,8);
type = Stem;
}
);
layerId = "DDABD3A5-4A8B-4D55-9B9E-1269DFBEF3A1";
name = Regular;
shapes = (
{
closed = 1;
nodes = (
(440,0,ls),
(448,0,o),
(454,6,o),
(454,14,cs),
(454,63,ls),
(454,71,o),
(448,77,o),
(440,77,cs),
(187,77,l),
(187,681,ls),
(187,689,o),
(181,695,o),
(173,695,cs),
(119,695,ls),
(111,695,o),
(105,689,o),
(105,681,cs),
(105,36,ls),
(105,16,o),
(121,0,o),
(141,0,cs)
);
},
{
closed = 1;
nodes = (
(37,191,o),
(40,193,o),
(43,195,cs),
(332,451,ls),
(336,455,o),
(338,459,o),
(338,464,cs),
(338,514,ls),
(338,523,o),
(332,529,o),
(325,529,cs),
(321,529,o),
(318,527,o),
(315,525,cs),
(26,270,ls),
(22,266,o),
(20,262,o),
(20,257,cs),
(20,206,ls),
(20,197,o),
(26,191,o),
(33,191,cs)
);
}
);
width = 489;
},
{
hints = (
{
horizontal = 1;
origin = (0,20);
target = (0,8);
type = Stem;
},
{
horizontal = 1;
origin = (0,13);
target = down;
type = TopGhost;
},
{
origin = (0,17);
target = (0,8);
type = Stem;
},
{
horizontal = 1;
origin = (1,10);
target = down;
type = TopGhost;
},
{
horizontal = 1;
origin = (1,21);
target = up;
type = BottomGhost;
}
);
layerId = "1D8279CA-6213-4437-A9CB-DE6E86D89D97";
name = Bold;
shapes = (
{
closed = 1;
nodes = (
(432,0,ls),
(444,0,o),
(453,9,o),
(453,21,cs),
(453,96,ls),
(453,108,o),
(444,117,o),
(432,117,cs),
(200,117,l),
(200,694,ls),
(200,706,o),
(191,715,o),
(179,715,cs),
(99,715,ls),
(87,715,o),
(78,706,o),
(78,694,cs),
(78,43,ls),
(78,19,o),
(97,0,o),
(121,0,cs)
);
},
{
closed = 1;
nodes = (
(17,200,o),
(22,202,o),
(27,206,cs),
(309,455,ls),
(316,461,o),
(319,469,o),
(319,478,cs),
(318,549,ls),
(318,561,o),
(310,569,o),
(300,569,cs),
(296,569,o),
(291,567,o),
(286,563,cs),
(4,314,ls),
(-3,308,o),
(-6,300,o),
(-6,291,cs),
(-5,220,ls),
(-5,208,o),
(3,200,o),
(13,200,cs)
);
}
);
width = 485;
}
);
unicode = 321;
},
{
glyphname = M;
kernLeft = M;
kernRight = M;
lastChange = "2024-04-10 10:55:24 +0000";
layers = (
{
anchors = (
{
name = bottom;
pos = (450,0);
},
{
name = top;
pos = (450,687);
}
);
hints = (
{
horizontal = 1;
origin = (0,48);
target = up;
type = BottomGhost;
},
{
horizontal = 1;
origin = (0,30);
target = down;
type = TopGhost;
},
{
horizontal = 1;
origin = (0,37);
target = up;
type = BottomGhost;
},
{
horizontal = 1;
origin = (0,0);
target = (0,24);
type = Stem;
},
{
horizontal = 1;
origin = (0,29);
target = (0,43);
type = Stem;
}
);
layerId = "DDABD3A5-4A8B-4D55-9B9E-1269DFBEF3A1";
name = Regular;
shapes = (
{
closed = 1;
nodes = (
(475,-13,ls),
(483,-13,o),
(491,-8,o),
(494,0,cs),
(653,458,l),
(686,554,l),
(697,467,l),
(752,17,l),
(754,6,o),
(762,0,o),
(772,0,cs),
(820,0,ls),
(830,0,o),
(837,9,o),
(836,18,cs),
(750,678,l),
(749,689,o),
(740,695,o),
(730,695,cs),
(661,695,ls),
(656,695,o),
(651,692,o),
(649,686,cs),
(468,164,l),
(450,111,l),
(433,161,l),
(253,682,l),
(251,690,o),
(242,695,o),
(234,695,cs),
(164,695,ls),
(158,695,o),
(153,690,o),
(152,684,c),
(65,18,ls),
(64,9,o),
(70,0,o),
(81,0,cs),
(128,0,ls),
(138,0,o),
(146,6,o),
(148,17,c),
(203,463,l),
(214,556,l),
(243,473,l),
(406,0,ls),
(409,-8,o),
(417,-13,o),
(425,-13,cs)
);
}
);
width = 901;
},
{
anchors = (
{
name = bottom;
pos = (466,0);
},
{
name = top;
pos = (466,710);
}
);
hints = (
{
horizontal = 1;
origin = (0,48);
target = up;
type = BottomGhost;
},
{
horizontal = 1;
origin = (0,30);
target = down;
type = TopGhost;
},
{
horizontal = 1;
origin = (0,37);
target = up;
type = BottomGhost;
},
{
horizontal = 1;
origin = (0,0);
target = (0,24);
type = Stem;
},
{
horizontal = 1;
origin = (0,29);
target = (0,43);
type = Stem;
}
);
layerId = "1D8279CA-6213-4437-A9CB-DE6E86D89D97";
name = Bold;
shapes = (
{
closed = 1;
nodes = (
(499,-6,ls),
(513,-6,o),
(526,3,o),
(530,17,cs),
(659,416,l),
(685,510,l),
(695,424,l),
(740,24,ls),
(742,10,o),
(754,0,o),
(768,0,cs),
(846,0,ls),
(860,0,o),
(870,10,o),
(868,25,cs),
(785,688,ls),
(783,706,o),
(769,718,o),
(751,718,cs),
(668,718,ls),
(654,718,o),
(641,709,o),
(637,696,cs),
(486,233,l),
(466,165,l),
(446,234,l),
(296,695,ls),
(292,709,o),
(279,718,o),
(265,718,cs),
(174,718,ls),
(156,718,o),
(142,706,o),
(140,688,cs),
(57,25,ls),
(55,10,o),
(65,0,o),
(79,0,cs),
(154,0,ls),
(168,0,o),
(180,11,o),
(182,25,cs),
(225,417,l),
(235,510,l),
(260,420,l),
(392,16,ls),
(396,3,o),
(409,-6,o),
(423,-6,cs)
);
}
);
width = 927;
}
);
unicode = 77;
},
{
glyphname = N;
kernLeft = H;
kernRight = H;
lastChange = "2024-04-10 10:55:36 +0000";
layers = (
{
anchors = (
{
name = bottom;
pos = (340,0);
},
{
name = top;
pos = (340,687);
}
);
hints = (
{
horizontal = 1;
origin = (0,35);
target = up;
type = BottomGhost;
},
{
horizontal = 1;
origin = (0,28);
target = down;
type = TopGhost;
},
{
origin = (0,32);
target = (0,3);
type = Stem;
},
{
origin = (0,22);
target = (0,13);
type = Stem;
}
);
layerId = "DDABD3A5-4A8B-4D55-9B9E-1269DFBEF3A1";
name = Regular;
shapes = (
{
closed = 1;
nodes = (
(154,0,ls),
(162,0,o),
(168,6,o),
(168,14,cs),
(168,565,l),
(210,491,l),
(483,14,ls),
(488,5,o),
(499,0,o),
(509,0,cs),
(569,0,ls),
(581,0,o),
(590,9,o),
(590,21,cs),
(590,681,ls),
(590,689,o),
(584,695,o),
(576,695,cs),
(526,695,ls),
(518,695,o),
(512,689,o),
(512,681,cs),
(512,129,l),
(464,213,l),
(196,681,ls),
(191,690,o),
(180,695,o),
(170,695,cs),
(111,695,ls),
(99,695,o),
(90,686,o),
(90,674,cs),
(90,14,ls),
(90,6,o),
(96,0,o),
(104,0,cs)
);
}
);
width = 680;
},
{
anchors = (
{
name = bottom;
pos = (348,0);
},
{
name = top;
pos = (356,710);
}
);
hints = (
{
horizontal = 1;
origin = (0,35);
target = up;
type = BottomGhost;
},
{
horizontal = 1;
origin = (0,28);
target = down;
type = TopGhost;
},
{
origin = (0,32);
target = (0,3);
type = Stem;
},
{
origin = (0,9);
target = (0,13);
type = Stem;
}
);
layerId = "1D8279CA-6213-4437-A9CB-DE6E86D89D97";
name = Bold;
shapes = (
{
closed = 1;
nodes = (
(171,0,ls),
(183,0,o),
(192,8,o),
(192,21,cs),
(192,503,l),
(231,435,l),
(479,15,l),
(485,6,o),
(495,0,o),
(506,0,cs),
(589,0,ls),
(605,0,o),
(618,13,o),
(618,29,cs),
(618,694,ls),
(618,706,o),
(609,715,o),
(597,715,cs),
(525,715,ls),
(513,715,o),
(504,706,o),
(504,694,cs),
(504,210,l),
(456,294,l),
(216,700,l),
(210,709,o),
(200,715,o),
(189,715,cs),
(107,715,ls),
(91,715,o),
(78,702,o),
(78,686,cs),
(78,21,ls),
(78,9,o),
(87,0,o),
(99,0,cs)
);
}
);
width = 699;
}
);
unicode = 78;
},
{
glyphname = Eng;
kernLeft = H;
lastChange = "2024-04-10 10:37:22 +0000";
layers = (
{
hints = (
{
horizontal = 1;
origin = (0,42);
target = (0,35);
type = Stem;
},
{
horizontal = 1;
origin = (0,24);
target = up;
type = BottomGhost;
},
{
horizontal = 1;
origin = (0,17);
target = down;
type = TopGhost;
},
{
origin = (0,21);
target = (0,28);
type = Stem;
},
{
origin = (0,12);
target = (0,3);
type = Stem;
}
);
layerId = "DDABD3A5-4A8B-4D55-9B9E-1269DFBEF3A1";
name = Regular;
shapes = (
{
closed = 1;
nodes = (
(440,-197,ls),
(534,-197,o),
(590,-125,o),
(590,-41,cs),
(590,681,ls),
(590,689,o),
(584,695,o),
(576,695,cs),
(526,695,ls),
(518,695,o),
(512,689,o),
(512,681,cs),
(512,157,l),
(196,681,l),
(191,690,o),
(180,695,o),
(170,695,cs),
(111,695,ls),
(99,695,o),
(90,686,o),
(90,674,cs),
(90,14,ls),
(90,6,o),
(96,0,o),
(104,0,cs),
(154,0,ls),
(162,0,o),
(168,6,o),
(168,14,cs),
(168,567,l),
(508,-1,l),
(508,-40,ls),
(508,-89,o),
(477,-121,o),
(430,-121,cs),
(371,-121,ls),
(362,-121,o),
(356,-127,o),
(356,-136,cs),
(356,-182,ls),
(356,-191,o),
(362,-197,o),
(371,-197,cs)
);
}
);
width = 680;
},
{
hints = (
{
horizontal = 1;
origin = (0,42);
target = (0,35);
type = Stem;
},
{
horizontal = 1;
origin = (0,24);
target = up;
type = BottomGhost;
},
{
horizontal = 1;
origin = (0,17);
target = down;
type = TopGhost;
},
{
origin = (0,21);
target = (0,28);
type = Stem;
},
{
origin = (0,12);
target = (0,3);
type = Stem;
}
);
layerId = "1D8279CA-6213-4437-A9CB-DE6E86D89D97";
name = Bold;
shapes = (
{
closed = 1;
nodes = (
(451,-193,ls),
(548,-193,o),
(618,-120,o),
(618,-20,cs),
(618,694,ls),
(618,706,o),
(609,715,o),
(597,715,cs),
(524,715,ls),
(512,715,o),
(503,706,o),
(503,694,cs),
(503,215,l),
(216,700,l),
(210,709,o),
(200,715,o),
(189,715,cs),
(107,715,ls),
(91,715,o),
(78,702,o),
(78,686,cs),
(78,21,ls),
(78,9,o),
(87,0,o),
(99,0,cs),
(171,0,ls),
(183,0,o),
(192,8,o),
(192,21,cs),
(192,501,l),
(496,-13,l),
(496,-20,ls),
(496,-56,o),
(475,-78,o),
(442,-78,cs),
(368,-78,ls),
(356,-78,o),
(347,-87,o),
(347,-99,cs),
(347,-172,ls),
(347,-184,o),
(356,-193,o),
(368,-193,cs)
);
}
);
width = 699;
}
);
metricLeft = N;
unicode = 330;
},
{
glyphname = O;
kernLeft = O;
kernRight = O;
lastChange = "2024-04-10 10:55:46 +0000";
layers = (
{
anchors = (
{
name = bottom;
pos = (315,0);
},
{
name = center;
pos = (315,349);
},
{
name = ogonek;
pos = (356,0);
},
{
name = top;
pos = (315,687);
},
{
name = topright;
pos = (625,687);
}
);
hints = (
{
horizontal = 1;
place = (-13,77);
type = Stem;
},
{
horizontal = 1;
place = (708,-77);
type = Stem;
},
{
place = (70,82);
type = Stem;
},
{
place = (485,82);
type = Stem;
}
);
layerId = "DDABD3A5-4A8B-4D55-9B9E-1269DFBEF3A1";
name = Regular;
shapes = (
{
closed = 1;
nodes = (
(450,-13,o),
(560,96,o),
(560,231,cs),
(560,464,ls),
(560,599,o),
(450,708,o),
(315,708,cs),
(180,708,o),
(70,599,o),
(70,464,cs),
(70,231,ls),
(70,96,o),
(180,-13,o),
(315,-13,cs)
);
},
{
closed = 1;
nodes = (
(225,64,o),
(152,141,o),
(152,231,cs),
(152,464,ls),
(152,554,o),
(225,631,o),
(315,631,cs),
(405,631,o),
(478,554,o),
(478,464,cs),
(478,231,ls),
(478,141,o),
(405,64,o),
(315,64,cs)
);
}
);
width = 630;
},
{
anchors = (
{
name = bottom;
pos = (326,0);
},
{
name = center;
pos = (326,358);
},
{
name = ogonek;
pos = (397,0);
},
{
name = top;
pos = (326,710);
},
{
name = topright;
pos = (636,710);
}
);
hints = (
{
horizontal = 1;
origin = (0,13);
target = (1,13);
type = Stem;
},
{
horizontal = 1;
origin = (0,6);
target = (1,6);
type = Stem;
},
{
origin = (0,10);
target = (1,2);
type = Stem;
},
{
origin = (1,10);
target = (0,2);
type = Stem;
}
);
layerId = "1D8279CA-6213-4437-A9CB-DE6E86D89D97";
name = Bold;
shapes = (
{
closed = 1;
nodes = (
(472,-13,o),
(591,105,o),
(591,251,cs),
(591,464,ls),
(591,610,o),
(472,728,o),
(326,728,cs),
(180,728,o),
(61,610,o),
(61,464,cs),
(61,251,ls),
(61,105,o),
(180,-13,o),
(326,-13,cs)
);
},
{
closed = 1;
nodes = (
(248,104,o),
(183,171,o),
(183,251,cs),
(183,464,ls),
(183,544,o),
(248,611,o),
(326,611,cs),
(404,611,o),
(469,544,o),
(469,464,cs),
(469,251,ls),
(469,171,o),
(404,104,o),
(326,104,cs)
);
}
);
width = 654;
}
);
unicode = 79;
},
{
glyphname = Oslash;
kernLeft = O;
kernRight = O;
lastChange = "2024-04-10 10:37:22 +0000";
layers = (
{
anchors = (
{
name = bottom;
pos = (321,0);
},
{
name = top;
pos = (321,687);
}
);
hints = (
{
horizontal = 1;
origin = (1,13);
target = (2,13);
type = Stem;
},
{
horizontal = 1;
origin = (0,8);
target = down;
type = TopGhost;
},
{
horizontal = 1;
origin = (0,15);
target = up;
type = BottomGhost;
},
{
horizontal = 1;
origin = (1,6);
target = (2,6);
type = Stem;
},
{
origin = (1,10);
target = (2,2);
type = Stem;
},
{
origin = (2,10);
target = (1,2);
type = Stem;
}
);
layerId = "DDABD3A5-4A8B-4D55-9B9E-1269DFBEF3A1";
name = Regular;
shapes = (
{
closed = 1;
nodes = (
(119,0,ls),
(127,0,o),
(136,5,o),
(140,12,cs),
(586,678,ls),
(592,687,o),
(587,695,o),
(578,695,cs),
(526,695,ls),
(518,695,o),
(509,690,o),
(505,683,cs),
(57,17,ls),
(51,8,o),
(57,0,o),
(66,0,cs)
);
},
{
closed = 1;
nodes = (
(456,-13,o),
(566,96,o),
(566,231,cs),
(566,464,ls),
(566,599,o),
(456,708,o),
(321,708,cs),
(186,708,o),
(76,599,o),
(76,464,cs),
(76,231,ls),
(76,96,o),
(186,-13,o),
(321,-13,cs)
);
},
{
closed = 1;
nodes = (
(231,64,o),
(158,141,o),
(158,231,cs),
(158,464,ls),
(158,554,o),
(231,631,o),
(321,631,cs),
(411,631,o),
(484,554,o),
(484,464,cs),
(484,231,ls),
(484,141,o),
(411,64,o),
(321,64,cs)
);
}
);
width = 644;
},
{
anchors = (
{
name = bottom;
pos = (333,0);
},
{
name = top;
pos = (333,710);
}
);
hints = (
{
horizontal = 1;
origin = (1,13);
target = (2,13);
type = Stem;
},
{
horizontal = 1;
origin = (1,6);
target = down;
type = TopGhost;
},
{
horizontal = 1;
place = (0,21);
target = up;
type = BottomGhost;
},
{
horizontal = 1;
origin = (1,6);
target = (2,6);
type = Stem;
},
{
origin = (1,10);
target = (2,2);
type = Stem;
},
{
origin = (2,10);
target = (1,2);
type = Stem;
}
);
layerId = "1D8279CA-6213-4437-A9CB-DE6E86D89D97";
name = Bold;
shapes = (
{
closed = 1;
nodes = (
(111,0,ls),
(118,0,o),
(125,3,o),
(129,9,cs),
(646,693,ls),
(653,702,o),
(647,715,o),
(635,715,cs),
(561,715,ls),
(554,715,o),
(548,712,o),
(543,706,cs),
(26,22,ls),
(19,13,o),
(24,0,o),
(36,0,cs)
);
},
{
closed = 1;
nodes = (
(479,-13,o),
(598,105,o),
(598,251,cs),
(598,464,ls),
(598,610,o),
(479,728,o),
(333,728,cs),
(187,728,o),
(68,610,o),
(68,464,cs),
(68,251,ls),
(68,105,o),
(187,-13,o),
(333,-13,cs)
);
},
{
closed = 1;
nodes = (
(255,104,o),
(190,171,o),
(190,251,cs),
(190,464,ls),
(190,544,o),
(255,611,o),
(333,611,cs),
(411,611,o),
(476,544,o),
(476,464,cs),
(476,251,ls),
(476,171,o),
(411,104,o),
(333,104,cs)
);
}
);
width = 671;
}
);
unicode = 216;
},
{
glyphname = OE;
kernLeft = O;
kernRight = E;
lastChange = "2024-04-10 10:56:14 +0000";
layers = (
{
anchors = (
{
name = bottom;
pos = (434,0);
},
{
name = top;
pos = (434,687);
}
);
hints = (
{
horizontal = 1;
origin = (0,41);
target = (1,13);
type = Stem;
},
{
horizontal = 1;
origin = (0,12);
target = (0,21);
type = Stem;
},
{
horizontal = 1;
origin = (0,34);
target = (1,6);
type = Stem;
},
{
origin = (0,38);
target = (1,2);
type = Stem;
},
{
origin = (1,10);
target = (0,11);
type = Stem;
}
);
layerId = "DDABD3A5-4A8B-4D55-9B9E-1269DFBEF3A1";
name = Regular;
shapes = (
{
closed = 1;
nodes = (
(339,0,o),
(364,0,o),
(388,0,c),
(753,0,l),
(761,0,o),
(767,6,o),
(767,14,cs),
(767,63,ls),
(767,71,o),
(761,77,o),
(753,77,cs),
(470,77,l),
(470,329,l),
(686,329,ls),
(694,329,o),
(700,335,o),
(700,343,cs),
(700,390,ls),
(700,398,o),
(694,404,o),
(686,404,cs),
(470,404,l),
(470,618,l),
(753,618,ls),
(761,618,o),
(767,624,o),
(767,632,cs),
(767,681,ls),
(767,689,o),
(761,695,o),
(753,695,c),
(394,695,l),
(368,695,o),
(341,695,o),
(315,695,cs),
(180,695,o),
(70,586,o),
(70,451,cs),
(70,244,ls),
(70,109,o),
(180,0,o),
(315,0,cs)
);
},
{
closed = 1;
nodes = (
(225,77,o),
(152,154,o),
(152,244,cs),
(152,451,ls),
(152,541,o),
(225,618,o),
(315,618,cs),
(339,618,o),
(364,618,o),
(388,618,c),
(388,77,l),
(364,77,o),
(339,77,o),
(315,77,cs)
);
}
);
width = 822;
},
{
anchors = (
{
name = bottom;
pos = (438,0);
},
{
name = top;
pos = (438,710);
}
);
hints = (
{
horizontal = 1;
origin = (0,41);
target = (1,13);
type = Stem;
},
{
horizontal = 1;
origin = (0,12);
target = (0,21);
type = Stem;
},
{
horizontal = 1;
origin = (0,31);
target = (0,22);
type = Stem;
},
{
horizontal = 1;
origin = (0,2);
target = (0,11);
type = Stem;
},
{
horizontal = 1;
origin = (0,34);
target = (1,6);
type = Stem;
},
{
origin = (0,38);
target = (1,2);
type = Stem;
},
{
origin = (1,10);
target = (0,11);
type = Stem;
}
);
layerId = "1D8279CA-6213-4437-A9CB-DE6E86D89D97";
name = Bold;
shapes = (
{
closed = 1;
nodes = (
(355,-13,o),
(383,-8,o),
(409,0,c),
(763,0,ls),
(775,0,o),
(784,9,o),
(784,21,cs),
(784,96,ls),
(784,108,o),
(775,117,o),
(763,117,cs),
(501,117,l),
(501,315,l),
(696,315,ls),
(708,315,o),
(717,324,o),
(717,336,cs),
(717,407,ls),
(717,419,o),
(708,428,o),
(696,428,cs),
(501,428,l),
(501,598,l),
(763,598,ls),
(775,598,o),
(784,607,o),
(784,619,cs),
(784,694,ls),
(784,706,o),
(775,715,o),
(763,715,cs),
(408,715,l),
(382,723,o),
(355,728,o),
(326,728,cs),
(180,728,o),
(61,610,o),
(61,464,cs),
(61,251,ls),
(61,105,o),
(180,-13,o),
(326,-13,cs)
);
},
{
closed = 1;
nodes = (
(248,104,o),
(183,171,o),
(183,251,cs),
(183,464,ls),
(183,544,o),
(248,611,o),
(326,611,cs),
(345,611,o),
(363,607,o),
(379,600,c),
(379,115,l),
(362,108,o),
(345,104,o),
(326,104,cs)
);
}
);
width = 844;
}
);
metricLeft = O;
metricRight = E;
unicode = 338;
},
{
glyphname = P;
kernLeft = H;
kernRight = P;
lastChange = "2024-04-10 10:37:22 +0000";
layers = (
{
anchors = (
{
name = bottom;
pos = (133,0);
},
{
name = top;
pos = (255,687);
}
);
hints = (
{
horizontal = 1;
origin = (0,19);
target = up;
type = BottomGhost;
},
{
horizontal = 1;
origin = (0,4);
target = (1,8);
type = Stem;
},
{
horizontal = 1;
origin = (0,12);
target = (1,0);
type = Stem;
},
{
origin = (0,16);
target = (0,3);
type = Stem;
},
{
origin = (1,4);
target = (0,8);
type = Stem;
}
);
layerId = "DDABD3A5-4A8B-4D55-9B9E-1269DFBEF3A1";
name = Regular;
shapes = (
{
closed = 1;
nodes = (
(158,0,ls),
(166,0,o),
(172,6,o),
(172,14,cs),
(172,265,l),
(294,265,ls),
(415,265,o),
(512,361,o),
(512,480,cs),
(512,599,o),
(415,695,o),
(294,695,cs),
(126,695,ls),
(106,695,o),
(90,679,o),
(90,659,cs),
(90,14,ls),
(90,6,o),
(96,0,o),
(104,0,cs)
);
},
{
closed = 1;
nodes = (
(172,618,l),
(289,618,ls),
(366,618,o),
(428,556,o),
(428,480,cs),
(428,404,o),
(366,342,o),
(289,342,cs),
(172,342,l)
);
}
);
width = 557;
},
{
anchors = (
{
name = bottom;
pos = (144,0);
},
{
name = top;
pos = (285,710);
}
);
hints = (
{
horizontal = 1;
origin = (0,19);
target = up;
type = BottomGhost;
},
{
horizontal = 1;
origin = (0,4);
target = (1,8);
type = Stem;
},
{
horizontal = 1;
origin = (0,12);
target = (1,0);
type = Stem;
},
{
origin = (0,16);
target = (0,3);
type = Stem;
},
{
origin = (1,4);
target = (0,8);
type = Stem;
}
);
layerId = "1D8279CA-6213-4437-A9CB-DE6E86D89D97";
name = Bold;
shapes = (
{
closed = 1;
nodes = (
(179,0,ls),
(191,0,o),
(200,9,o),
(200,21,cs),
(200,254,l),
(299,254,ls),
(428,254,o),
(532,357,o),
(532,485,cs),
(532,612,o),
(428,715,o),
(299,715,cs),
(121,715,ls),
(97,715,o),
(78,696,o),
(78,672,cs),
(78,21,ls),
(78,9,o),
(87,0,o),
(99,0,cs)
);
},
{
closed = 1;
nodes = (
(200,600,l),
(294,600,ls),
(358,600,o),
(410,548,o),
(410,485,cs),
(410,421,o),
(358,369,o),
(294,369,cs),
(200,369,l)
);
}
);
width = 573;
}
);
unicode = 80;
},
{
glyphname = Thorn;
kernLeft = H;
lastChange = "2024-04-10 10:37:22 +0000";
layers = (
{
anchors = (
{
name = bottom;
pos = (133,0);
},
{
name = top;
pos = (132,687);
}
);
hints = (
{
horizontal = 1;
origin = (0,24);
target = up;
type = BottomGhost;
},
{
horizontal = 1;
origin = (0,4);
target = (1,8);
type = Stem;
},
{
horizontal = 1;
origin = (0,12);
target = (1,0);
type = Stem;
},
{
horizontal = 1;
origin = (0,17);
target = down;
type = TopGhost;
},
{
origin = (0,21);
target = (0,3);
type = Stem;
},
{
origin = (1,4);
target = (0,8);
type = Stem;
}
);
layerId = "DDABD3A5-4A8B-4D55-9B9E-1269DFBEF3A1";
name = Regular;
shapes = (
{
closed = 1;
nodes = (
(158,0,ls),
(166,0,o),
(172,6,o),
(172,14,cs),
(172,136,l),
(294,136,ls),
(415,136,o),
(512,232,o),
(512,351,cs),
(512,470,o),
(415,566,o),
(294,566,cs),
(172,566,l),
(172,681,ls),
(172,689,o),
(166,695,o),
(158,695,cs),
(104,695,ls),
(96,695,o),
(90,689,o),
(90,681,cs),
(90,14,ls),
(90,6,o),
(96,0,o),
(104,0,cs)
);
},
{
closed = 1;
nodes = (
(172,489,l),
(289,489,ls),
(366,489,o),
(428,427,o),
(428,351,cs),
(428,275,o),
(366,213,o),
(289,213,cs),
(172,213,l)
);
}
);
width = 557;
},
{
anchors = (
{
name = bottom;
pos = (138,0);
},
{
name = top;
pos = (135,710);
}
);
hints = (
{
horizontal = 1;
origin = (0,24);
target = up;
type = BottomGhost;
},
{
horizontal = 1;
origin = (0,4);
target = (1,8);
type = Stem;
},
{
horizontal = 1;
origin = (1,0);
target = (0,12);
type = Stem;
},
{
horizontal = 1;
origin = (0,17);
target = down;
type = TopGhost;
},
{
origin = (0,21);
target = (0,3);
type = Stem;
},
{
origin = (1,4);
target = (0,8);
type = Stem;
}
);
layerId = "1D8279CA-6213-4437-A9CB-DE6E86D89D97";
name = Bold;
shapes = (
{
closed = 1;
nodes = (
(179,0,ls),
(191,0,o),
(200,9,o),
(200,21,cs),
(200,127,l),
(299,127,ls),
(428,127,o),
(532,230,o),
(532,358,cs),
(532,485,o),
(428,588,o),
(299,588,cs),
(200,588,l),
(200,694,ls),
(200,706,o),
(191,715,o),
(179,715,cs),
(99,715,ls),
(87,715,o),
(78,706,o),
(78,694,cs),
(78,21,ls),
(78,9,o),
(87,0,o),
(99,0,cs)
);
},
{
closed = 1;
nodes = (
(200,473,l),
(294,473,ls),
(358,473,o),
(410,421,o),
(410,358,cs),
(410,294,o),
(358,242,o),
(294,242,cs),
(200,242,l)
);
}
);
width = 573;
}
);
unicode = 222;
},
{
glyphname = Q;
kernLeft = O;
kernRight = Q;
lastChange = "2024-04-10 10:56:45 +0000";
layers = (
{
anchors = (
{
name = bottom;
pos = (316,0);
},
{
name = top;
pos = (313,687);
}
);
hints = (
{
horizontal = 1;
origin = (0,8);
target = (0,17);
type = Stem;
},
{
horizontal = 1;
origin = (0,35);
target = (1,13);
type = Stem;
},
{
horizontal = 1;
origin = (0,28);
target = (1,6);
type = Stem;
},
{
origin = (0,32);
target = (1,2);
type = Stem;
},
{
origin = (1,10);
target = (0,24);
type = Stem;
}
);
layerId = "DDABD3A5-4A8B-4D55-9B9E-1269DFBEF3A1";
name = Regular;
shapes = (
{
closed = 1;
nodes = (
(351,-13,o),
(374,-22,o),
(402,-41,cs),
(425,-56,o),
(450,-77,o),
(489,-106,cs),
(544,-147,o),
(591,-193,o),
(664,-193,cs),
(685,-193,ls),
(694,-193,o),
(699,-187,o),
(699,-179,cs),
(699,-135,ls),
(699,-127,o),
(693,-121,o),
(685,-121,cs),
(672,-121,ls),
(616,-121,o),
(571,-75,o),
(521,-35,cs),
(446,25,l),
(514,68,o),
(560,144,o),
(560,231,cs),
(560,464,ls),
(560,599,o),
(450,708,o),
(315,708,cs),
(180,708,o),
(70,599,o),
(70,464,cs),
(70,231,ls),
(70,96,o),
(180,-13,o),
(315,-13,cs)
);
},
{
closed = 1;
nodes = (
(225,64,o),
(152,141,o),
(152,231,cs),
(152,464,ls),
(152,554,o),
(225,631,o),
(315,631,cs),
(405,631,o),
(478,554,o),
(478,464,cs),
(478,231,ls),
(478,141,o),
(405,64,o),
(315,64,cs)
);
}
);
width = 639;
},
{
anchors = (
{
name = bottom;
pos = (326,0);
},
{
name = top;
pos = (326,710);
}
);
associatedMasterId = "1D8279CA-6213-4437-A9CB-DE6E86D89D97";
hints = (
{
horizontal = 1;
origin = (1,20);
target = (1,8);
type = Stem;
},
{
horizontal = 1;
origin = (0,13);
target = (2,13);
type = Stem;
},
{
horizontal = 1;
origin = (0,6);
target = (2,6);
type = Stem;
},
{
origin = (0,10);
target = (2,2);
type = Stem;
},
{
origin = (2,10);
target = (0,2);
type = Stem;
}
);
layerId = "FD6E8949-FE85-4D32-B024-3ABFB9E7F0ED";
name = Bold;
shapes = (
{
closed = 1;
nodes = (
(472,-14,o),
(591,104,o),
(591,250,cs),
(591,464,ls),
(591,610,o),
(472,728,o),
(326,728,cs),
(180,728,o),
(61,610,o),
(61,464,cs),
(61,250,ls),
(61,104,o),
(180,-14,o),
(326,-14,cs)
);
},
{
closed = 1;
nodes = (
(736,-193,ls),
(748,-193,o),
(757,-184,o),
(757,-172,cs),
(757,-102,ls),
(757,-90,o),
(748,-81,o),
(736,-81,cs),
(685,-81,ls),
(633,-81,o),
(597,-45,o),
(542,0,cs),
(487,45,l),
(326,-14,l),
(371,-14,o),
(388,-24,o),
(413,-44,cs),
(488,-102,ls),
(544,-145,o),
(601,-193,o),
(684,-193,cs)
);
},
{
closed = 1;
nodes = (
(248,103,o),
(183,170,o),
(183,250,cs),
(183,464,ls),
(183,544,o),
(248,611,o),
(326,611,cs),
(404,611,o),
(469,544,o),
(469,464,cs),
(469,250,ls),
(469,170,o),
(404,103,o),
(326,103,cs)
);
}
);
width = 667;
},
{
anchors = (
{
name = bottom;
pos = (326,0);
},
{
name = top;
pos = (326,710);
}
);
hints = (
{
horizontal = 1;
origin = (0,8);
target = (0,17);
type = Stem;
},
{
horizontal = 1;
origin = (0,35);
target = (1,13);
type = Stem;
},
{
horizontal = 1;
origin = (0,28);
target = (1,6);
type = Stem;
},
{
origin = (0,32);
target = (1,2);
type = Stem;
},
{
origin = (1,10);
target = (0,24);
type = Stem;
}
);
layerId = "1D8279CA-6213-4437-A9CB-DE6E86D89D97";
name = Bold;
shapes = (
{
closed = 1;
nodes = (
(371,-14,o),
(388,-24,o),
(413,-44,cs),
(438,-63,o),
(463,-83,o),
(488,-102,cs),
(544,-145,o),
(601,-193,o),
(684,-193,cs),
(736,-193,ls),
(748,-193,o),
(757,-184,o),
(757,-172,cs),
(757,-102,ls),
(757,-90,o),
(748,-81,o),
(736,-81,cs),
(685,-81,ls),
(633,-81,o),
(597,-45,o),
(542,0,cs),
(490,43,l),
(551,91,o),
(591,166,o),
(591,250,cs),
(591,464,ls),
(591,610,o),
(472,728,o),
(326,728,cs),
(180,728,o),
(61,610,o),
(61,464,cs),
(61,250,ls),
(61,104,o),
(180,-14,o),
(326,-14,cs)
);
},
{
closed = 1;
nodes = (
(248,103,o),
(183,170,o),
(183,250,cs),
(183,464,ls),
(183,544,o),
(248,611,o),
(326,611,cs),
(404,611,o),
(469,544,o),
(469,464,cs),
(469,250,ls),
(469,170,o),
(404,103,o),
(326,103,cs)
);
}
);
width = 667;
}
);
unicode = 81;
},
{
glyphname = R;
kernLeft = H;
kernRight = R;
lastChange = "2024-04-10 10:56:57 +0000";
layers = (
{
anchors = (
{
name = bottom;
pos = (303,0);
},
{
name = top;
pos = (263,687);
}
);
hints = (
{
horizontal = 1;
origin = (0,31);
target = up;
type = BottomGhost;
},
{
horizontal = 1;
origin = (0,4);
target = (1,8);
type = Stem;
},
{
horizontal = 1;
origin = (0,24);
target = (1,0);
type = Stem;
},
{
origin = (0,28);
target = (0,3);
type = Stem;
},
{
origin = (1,4);
target = (0,20);
type = Stem;
}
);
layerId = "DDABD3A5-4A8B-4D55-9B9E-1269DFBEF3A1";
name = Regular;
shapes = (
{
closed = 1;
nodes = (
(158,0,ls),
(166,0,o),
(172,6,o),
(172,14,cs),
(172,292,l),
(250,292,l),
(425,9,ls),
(428,3,o),
(433,0,o),
(440,0,cs),
(491,0,ls),
(502,0,o),
(510,8,o),
(510,18,cs),
(510,21,o),
(509,25,o),
(507,28,cs),
(341,296,l),
(434,315,o),
(503,395,o),
(503,493,cs),
(503,605,o),
(413,695,o),
(300,695,cs),
(126,695,ls),
(106,695,o),
(90,679,o),
(90,659,cs),
(90,14,ls),
(90,6,o),
(96,0,o),
(104,0,cs)
);
},
{
closed = 1;
nodes = (
(172,618,l),
(294,618,ls),
(366,618,o),
(419,565,o),
(419,492,cs),
(419,422,o),
(366,369,o),
(294,369,cs),
(172,369,l)
);
}
);
width = 562;
},
{
anchors = (
{
name = bottom;
pos = (300,0);
},
{
name = top;
pos = (267,710);
}
);
hints = (
{
horizontal = 1;
origin = (0,31);
target = up;
type = BottomGhost;
},
{
horizontal = 1;
origin = (0,4);
target = (1,8);
type = Stem;
},
{
horizontal = 1;
origin = (0,24);
target = (1,0);
type = Stem;
},
{
origin = (0,28);
target = (0,3);
type = Stem;
},
{
origin = (1,4);
target = (0,20);
type = Stem;
}
);
layerId = "1D8279CA-6213-4437-A9CB-DE6E86D89D97";
name = Bold;
shapes = (
{
closed = 1;
nodes = (
(179,0,ls),
(191,0,o),
(200,9,o),
(200,21,cs),
(200,281,l),
(249,281,l),
(415,14,ls),
(421,5,o),
(431,0,o),
(441,0,cs),
(523,0,ls),
(537,0,o),
(546,9,o),
(546,21,cs),
(546,26,o),
(545,30,o),
(542,35,cs),
(376,292,l),
(466,320,o),
(531,400,o),
(531,498,cs),
(531,618,o),
(432,715,o),
(308,715,cs),
(121,715,ls),
(97,715,o),
(78,696,o),
(78,672,cs),
(78,21,ls),
(78,9,o),
(87,0,o),
(99,0,cs)
);
},
{
closed = 1;
nodes = (
(200,600,l),
(302,600,ls),
(363,600,o),
(407,557,o),
(407,497,cs),
(407,439,o),
(363,396,o),
(302,396,cs),
(200,396,l)
);
}
);
width = 593;
}
);
unicode = 82;
},
{
glyphname = S;
kernLeft = S;
kernRight = S;
lastChange = "2024-04-10 10:57:09 +0000";
layers = (
{
anchors = (
{
name = bottom;
pos = (260,0);
},
{
name = top;
pos = (260,687);
}
);
hints = (
{
horizontal = 1;
origin = (0,55);
target = (0,39);
type = Stem;
},
{
horizontal = 1;
origin = (0,27);
target = (0,11);
type = Stem;
},
{
origin = (0,30);
target = (0,8);
type = Stem;
},
{
origin = (0,36);
target = (0,2);
type = Stem;
},
{
horizontal = 1;
origin = (0,15);
target = up;
type = BottomGhost;
},
{
horizontal = 1;
origin = (0,45);
target = down;
type = TopGhost;
}
);
layerId = "DDABD3A5-4A8B-4D55-9B9E-1269DFBEF3A1";
name = Regular;
shapes = (
{
closed = 1;
nodes = (
(380,-13,o),
(476,64,o),
(476,190,cs),
(476,327,o),
(360,360,o),
(281,391,cs),
(207,420,o),
(143,444,o),
(143,521,cs),
(143,591,o),
(196,633,o),
(277,633,cs),
(325,633,o),
(369,618,o),
(411,593,cs),
(413,591,o),
(416,591,o),
(419,591,cs),
(424,591,o),
(429,594,o),
(432,599,cs),
(454,640,ls),
(458,647,o),
(455,655,o),
(450,658,cs),
(404,688,o),
(341,708,o),
(276,708,cs),
(162,708,o),
(60,647,o),
(60,517,cs),
(60,384,o),
(167,346,o),
(255,312,cs),
(327,284,o),
(393,259,o),
(393,183,cs),
(393,108,o),
(330,63,o),
(247,63,cs),
(191,63,o),
(143,84,o),
(101,109,cs),
(98,111,o),
(96,111,o),
(93,111,cs),
(87,111,o),
(82,108,o),
(79,102,cs),
(56,57,ls),
(54,51,o),
(56,43,o),
(61,40,cs),
(110,6,o),
(180,-13,o),
(246,-13,cs)
);
}
);
width = 531;
},
{
anchors = (
{
name = bottom;
pos = (271,0);
},
{
name = top;
pos = (271,710);
}
);
associatedMasterId = "1D8279CA-6213-4437-A9CB-DE6E86D89D97";
hints = (
{
horizontal = 1;
origin = (0,55);
target = (0,39);
type = Stem;
},
{
horizontal = 1;
origin = (0,27);
target = (0,11);
type = Stem;
},
{
origin = (0,30);
target = (0,8);
type = Stem;
},
{
origin = (0,36);
target = (0,2);
type = Stem;
},
{
horizontal = 1;
origin = (0,17);
target = up;
type = BottomGhost;
},
{
horizontal = 1;
origin = (0,45);
target = down;
type = TopGhost;
}
);
layerId = "D301D347-A69C-4392-B40D-F37BE3124CE6";
name = Bold;
shapes = (
{
closed = 1;
nodes = (
(399,-12,o),
(494,76,o),
(494,201,cs),
(494,341,o),
(376,378,o),
(296,411,cs),
(218,443,o),
(176,472,o),
(176,527,cs),
(176,577,o),
(212,614,o),
(273,614,cs),
(304,614,o),
(354,604,o),
(411,567,cs),
(418,563,o),
(421,563,o),
(426,563,cs),
(433,563,o),
(441,567,o),
(445,575,cs),
(478,638,ls),
(482,646,o),
(478,658,o),
(472,662,cs),
(416,704,o),
(342,728,o),
(272,728,cs),
(143,728,o),
(55,644,o),
(55,521,cs),
(55,388,o),
(157,340,o),
(216,315,cs),
(310,276,o),
(373,258,o),
(373,194,cs),
(373,141,o),
(331,102,o),
(259,102,cs),
(223,102,o),
(178,112,o),
(119,149,cs),
(112,153,o),
(109,153,o),
(104,153,cs),
(97,153,o),
(89,149,o),
(85,141,cs),
(50,78,ls),
(46,70,o),
(50,58,o),
(56,54,cs),
(115,13,o),
(186,-12,o),
(260,-12,cs)
);
}
);
width = 546;
},
{
anchors = (
{
name = bottom;
pos = (271,0);
},
{
name = top;
pos = (271,710);
}
);
hints = (
{
horizontal = 1;
origin = (0,55);
target = (0,39);
type = Stem;
},
{
horizontal = 1;
origin = (0,27);
target = (0,11);
type = Stem;
},
{
origin = (0,30);
target = (0,8);
type = Stem;
},
{
origin = (0,36);
target = (0,2);
type = Stem;
},
{
horizontal = 1;
origin = (0,17);
target = up;
type = BottomGhost;
},
{
horizontal = 1;
origin = (0,45);
target = down;
type = TopGhost;
}
);
layerId = "1D8279CA-6213-4437-A9CB-DE6E86D89D97";
name = Bold;
shapes = (
{
closed = 1;
nodes = (
(399,-12,o),
(494,76,o),
(494,201,cs),
(494,341,o),
(376,378,o),
(296,411,cs),
(218,443,o),
(176,472,o),
(176,527,cs),
(176,577,o),
(212,614,o),
(273,614,cs),
(304,614,o),
(354,604,o),
(411,567,cs),
(418,563,o),
(421,563,o),
(426,563,cs),
(433,563,o),
(441,567,o),
(445,575,cs),
(478,638,ls),
(482,646,o),
(478,658,o),
(472,662,cs),
(416,704,o),
(342,728,o),
(272,728,cs),
(143,728,o),
(55,644,o),
(55,521,cs),
(55,388,o),
(157,340,o),
(216,315,cs),
(310,276,o),
(373,258,o),
(373,194,cs),
(373,141,o),
(331,102,o),
(259,102,cs),
(223,102,o),
(178,112,o),
(119,149,cs),
(112,153,o),
(109,153,o),
(104,153,cs),
(97,153,o),
(89,149,o),
(85,141,cs),
(50,78,ls),
(46,70,o),
(50,58,o),
(56,54,cs),
(115,13,o),
(186,-12,o),
(260,-12,cs)
);
}
);
width = 546;
}
);
unicode = 83;
},
{
glyphname = T;
kernLeft = T;
kernRight = T;
lastChange = "2024-04-10 10:37:22 +0000";
layers = (
{
anchors = (
{
name = bottom;
pos = (272,0);
},
{
name = center;
pos = (273,383);
},
{
name = top;
pos = (272,687);
}
);
hints = (
{
horizontal = 1;
origin = (0,25);
target = up;
type = BottomGhost;
},
{
horizontal = 1;
origin = (0,13);
target = (0,20);
type = Stem;
},
{
origin = (0,22);
target = (0,3);
type = Stem;
}
);
layerId = "DDABD3A5-4A8B-4D55-9B9E-1269DFBEF3A1";
name = Regular;
shapes = (
{
closed = 1;
nodes = (
(299,0,ls),
(307,0,o),
(313,6,o),
(313,14,cs),
(313,618,l),
(486,618,ls),
(494,618,o),
(500,624,o),
(500,632,cs),
(500,681,ls),
(500,689,o),
(494,695,o),
(486,695,cs),
(58,695,ls),
(50,695,o),
(44,689,o),
(44,681,cs),
(44,632,ls),
(44,624,o),
(50,618,o),
(58,618,cs),
(231,618,l),
(231,14,ls),
(231,6,o),
(237,0,o),
(245,0,cs)
);
}
);
width = 544;
},
{
anchors = (
{
name = bottom;
pos = (285,0);
},
{
name = center;
pos = (290,358);
},
{
name = top;
pos = (290,710);
}
);
hints = (
{
horizontal = 1;
origin = (0,25);
target = up;
type = BottomGhost;
},
{
horizontal = 1;
origin = (0,13);
target = (0,20);
type = Stem;
},
{
origin = (0,22);
target = (0,3);
type = Stem;
}
);
layerId = "1D8279CA-6213-4437-A9CB-DE6E86D89D97";
name = Bold;
shapes = (
{
closed = 1;
nodes = (
(330,0,ls),
(342,0,o),
(351,9,o),
(351,21,cs),
(351,598,l),
(519,598,ls),
(531,598,o),
(540,607,o),
(540,619,cs),
(540,694,ls),
(540,706,o),
(531,715,o),
(519,715,cs),
(61,715,ls),
(49,715,o),
(40,706,o),
(40,694,cs),
(40,619,ls),
(40,607,o),
(49,598,o),
(61,598,cs),
(229,598,l),
(229,21,ls),
(229,9,o),
(238,0,o),
(250,0,cs)
);
}
);
width = 581;
}
);
unicode = 84;
},
{
glyphname = Tbar;
kernLeft = T;
kernRight = T;
lastChange = "2024-04-10 10:57:21 +0000";
layers = (
{
background = {
shapes = (
{
closed = 1;
nodes = (
(300,0,ls),
(308,0,o),
(314,6,o),
(314,14,cs),
(314,618,l),
(487,618,ls),
(495,618,o),
(501,624,o),
(501,632,cs),
(501,681,ls),
(501,689,o),
(495,695,o),
(487,695,cs),
(59,695,ls),
(51,695,o),
(45,689,o),
(45,681,cs),
(45,632,ls),
(45,624,o),
(51,618,o),
(59,618,cs),
(232,618,l),
(232,14,ls),
(232,6,o),
(238,0,o),
(246,0,cs)
);
},
{
closed = 1;
nodes = (
(433,368,ls),
(441,368,o),
(447,374,o),
(447,382,cs),
(447,419,ls),
(447,427,o),
(441,433,o),
(433,433,cs),
(113,433,ls),
(105,433,o),
(99,427,o),
(99,419,cs),
(99,382,ls),
(99,374,o),
(105,368,o),
(113,368,cs)
);
}
);
};
hints = (
{
horizontal = 1;
place = (0,21);
target = up;
type = BottomGhost;
},
{
horizontal = 1;
place = (368,65);
type = Stem;
},
{
horizontal = 1;
place = (695,77);
type = Stem;
},
{
place = (232,82);
type = Stem;
}
);
layerId = "DDABD3A5-4A8B-4D55-9B9E-1269DFBEF3A1";
name = Regular;
shapes = (
{
ref = T;
},
{
pos = (31,74);
ref = strokeshortcomb;
}
);
width = 544;
},
{
layerId = "1D8279CA-6213-4437-A9CB-DE6E86D89D97";
name = Bold;
shapes = (
{
ref = T;
},
{
pos = (16,49);
ref = strokeshortcomb;
}
);
width = 581;
}
);
unicode = 358;
},
{
glyphname = U;
kernLeft = U;
kernRight = U;
lastChange = "2024-04-10 10:37:22 +0000";
layers = (
{
anchors = (
{
name = bottom;
pos = (335,0);
},
{
name = ogonek;
pos = (424,0);
},
{
name = top;
pos = (335,687);
},
{
name = topright;
pos = (668,687);
}
);
hints = (
{
horizontal = 1;
origin = (0,29);
target = (0,14);
type = Stem;
},
{
horizontal = 1;
origin = (0,22);
target = down;
type = TopGhost;
},
{
origin = (0,26);
target = (0,17);
type = Stem;
},
{
origin = (0,11);
target = (0,2);
type = Stem;
}
);
layerId = "DDABD3A5-4A8B-4D55-9B9E-1269DFBEF3A1";
name = Regular;
shapes = (
{
closed = 1;
nodes = (
(473,-13,o),
(581,93,o),
(581,251,cs),
(581,681,ls),
(581,689,o),
(575,695,o),
(567,695,cs),
(513,695,ls),
(505,695,o),
(499,689,o),
(499,681,cs),
(499,246,ls),
(499,135,o),
(428,66,o),
(336,66,cs),
(243,66,o),
(172,135,o),
(172,246,cs),
(172,681,ls),
(172,689,o),
(166,695,o),
(158,695,cs),
(104,695,ls),
(96,695,o),
(90,689,o),
(90,681,cs),
(90,251,ls),
(90,93,o),
(198,-13,o),
(336,-13,cs)
);
}
);
width = 671;
},
{
anchors = (
{
name = bottom;
pos = (344,0);
},
{
name = ogonek;
pos = (397,10);
},
{
name = top;
pos = (344,710);
},
{
name = topright;
pos = (669,710);
}
);
hints = (
{
horizontal = 1;
origin = (0,29);
target = (0,14);
type = Stem;
},
{
horizontal = 1;
origin = (0,22);
target = down;
type = TopGhost;
},
{
origin = (0,26);
target = (0,17);
type = Stem;
},
{
origin = (0,11);
target = (0,2);
type = Stem;
}
);
layerId = "1D8279CA-6213-4437-A9CB-DE6E86D89D97";
name = Bold;
shapes = (
{
closed = 1;
nodes = (
(497,-13,o),
(609,107,o),
(609,271,cs),
(609,694,ls),
(609,706,o),
(600,715,o),
(588,715,cs),
(508,715,ls),
(496,715,o),
(487,706,o),
(487,694,cs),
(487,266,ls),
(487,170,o),
(429,106,o),
(344,106,cs),
(258,106,o),
(200,170,o),
(200,266,cs),
(200,694,ls),
(200,706,o),
(191,715,o),
(179,715,cs),
(99,715,ls),
(87,715,o),
(78,706,o),
(78,694,cs),
(78,271,ls),
(78,107,o),
(191,-13,o),
(344,-13,cs)
);
}
);
width = 690;
}
);
unicode = 85;
},
{
glyphname = Uogonek;
kernLeft = U;
kernRight = U;
lastChange = "2024-04-10 10:57:43 +0000";
layers = (
{
hints = (
{
horizontal = 1;
origin = (0,53);
target = (0,8);
type = Stem;
},
{
horizontal = 1;
origin = (0,44);
target = (0,29);
type = Stem;
},
{
horizontal = 1;
origin = (0,37);
target = down;
type = TopGhost;
},
{
origin = (0,41);
target = (0,32);
type = Stem;
},
{
origin = (0,50);
target = (0,11);
type = Stem;
},
{
origin = (0,26);
target = (0,17);
type = Stem;
}
);
layerId = "DDABD3A5-4A8B-4D55-9B9E-1269DFBEF3A1";
name = Regular;
shapes = (
{
closed = 1;
nodes = (
(453,-197,ls),
(461,-197,o),
(468,-190,o),
(468,-182,cs),
(468,-142,ls),
(468,-134,o),
(461,-127,o),
(453,-127,cs),
(426,-127,ls),
(405,-127,o),
(384,-120,o),
(384,-90,cs),
(384,-49,o),
(425,-12,o),
(490,41,cs),
(547,87,o),
(581,161,o),
(581,251,cs),
(581,681,ls),
(581,689,o),
(575,695,o),
(567,695,cs),
(513,695,ls),
(505,695,o),
(499,689,o),
(499,681,cs),
(499,246,ls),
(499,135,o),
(428,66,o),
(336,66,cs),
(243,66,o),
(172,135,o),
(172,246,cs),
(172,681,ls),
(172,689,o),
(166,695,o),
(158,695,cs),
(104,695,ls),
(96,695,o),
(90,689,o),
(90,681,cs),
(90,251,ls),
(90,93,o),
(198,-13,o),
(336,-13,cs),
(344,-13,o),
(350,-13,o),
(359,-12,c),
(329,-38,o),
(305,-75,o),
(305,-112,cs),
(305,-165,o),
(355,-197,o),
(413,-197,cs)
);
}
);
width = 671;
},
{
hints = (
{
horizontal = 1;
origin = (0,53);
target = (0,8);
type = Stem;
},
{
horizontal = 1;
origin = (0,47);
target = down;
type = TopGhost;
},
{
horizontal = 1;
origin = (0,37);
target = down;
type = TopGhost;
},
{
origin = (0,41);
target = (0,32);
type = Stem;
},
{
origin = (0,50);
target = (0,11);
type = Stem;
},
{
origin = (0,26);
target = (0,17);
type = Stem;
}
);
layerId = "1D8279CA-6213-4437-A9CB-DE6E86D89D97";
name = Bold;
shapes = (
{
closed = 1;
nodes = (
(434,-193,ls),
(443,-193,o),
(451,-185,o),
(451,-176,cs),
(451,-119,ls),
(451,-109,o),
(443,-102,o),
(434,-102,cs),
(413,-102,ls),
(386,-102,o),
(365,-88,o),
(365,-63,cs),
(365,-19,o),
(429,-8,o),
(481,24,cs),
(558,72,o),
(609,162,o),
(609,271,cs),
(609,694,ls),
(609,706,o),
(600,715,o),
(588,715,cs),
(508,715,ls),
(496,715,o),
(487,706,o),
(487,694,cs),
(487,266,ls),
(487,170,o),
(429,106,o),
(344,106,cs),
(258,106,o),
(200,170,o),
(200,266,cs),
(200,694,ls),
(200,706,o),
(191,715,o),
(179,715,cs),
(99,715,ls),
(87,715,o),
(78,706,o),
(78,694,cs),
(78,271,ls),
(78,125,o),
(168,14,o),
(296,-9,cs),
(302,-10,o),
(309,-11,o),
(315,-12,c),
(287,-34,o),
(272,-63,o),
(272,-94,cs),
(272,-157,o),
(332,-193,o),
(399,-193,cs)
);
}
);
width = 690;
}
);
unicode = 370;
},
{
glyphname = V;
kernLeft = W;
kernRight = W;
lastChange = "2024-04-10 10:57:59 +0000";
layers = (
{
anchors = (
{
name = bottom;
pos = (307,0);
},
{
name = top;
pos = (308,687);
}
);
hints = (
{
horizontal = 1;
origin = (0,30);
target = up;
type = BottomGhost;
},
{
horizontal = 1;
origin = (0,20);
target = down;
type = TopGhost;
},
{
place = (34.96,518.06);
type = Stem;
}
);
layerId = "DDABD3A5-4A8B-4D55-9B9E-1269DFBEF3A1";
name = Regular;
shapes = (
{
closed = 1;
nodes = (
(337,0,ls),
(345,0,o),
(354,5,o),
(356,13,cs),
(562,673,ls),
(563,675,o),
(563,678,o),
(563,680,cs),
(563,688,o),
(557,695,o),
(547,695,cs),
(498,695,ls),
(490,695,o),
(482,690,o),
(479,682,cs),
(304,104,l),
(129,682,ls),
(127,690,o),
(118,695,o),
(110,695,cs),
(61,695,ls),
(51,695,o),
(45,688,o),
(45,680,cs),
(45,678,o),
(45,675,o),
(46,673,cs),
(252,13,ls),
(255,5,o),
(263,0,o),
(271,0,cs)
);
}
);
width = 608;
},
{
anchors = (
{
name = bottom;
pos = (328,0);
},
{
name = top;
pos = (327,710);
}
);
hints = (
{
horizontal = 1;
origin = (0,30);
target = up;
type = BottomGhost;
},
{
horizontal = 1;
origin = (0,20);
target = down;
type = TopGhost;
},
{
origin = (0,23);
target = (0,7);
type = Stem;
}
);
layerId = "1D8279CA-6213-4437-A9CB-DE6E86D89D97";
name = Bold;
shapes = (
{
closed = 1;
nodes = (
(367,-5,ls),
(381,-5,o),
(394,4,o),
(398,17,cs),
(615,684,ls),
(616,687,o),
(616,690,o),
(616,692,cs),
(616,705,o),
(606,715,o),
(592,715,cs),
(520,715,ls),
(506,715,o),
(493,706,o),
(489,692,cs),
(327,170,l),
(165,692,ls),
(161,706,o),
(148,715,o),
(134,715,cs),
(64,715,ls),
(50,715,o),
(40,705,o),
(40,692,cs),
(40,690,o),
(40,687,o),
(41,684,cs),
(258,17,ls),
(262,4,o),
(275,-5,o),
(289,-5,cs)
);
}
);
width = 657;
}
);
unicode = 86;
},
{
glyphname = W;
kernLeft = W;
kernRight = W;
lastChange = "2024-04-10 10:58:09 +0000";
layers = (
{
anchors = (
{
name = bottom;
pos = (499,0);
},
{
name = top;
pos = (499,687);
}
);
hints = (
{
horizontal = 1;
origin = (0,45);
target = up;
type = BottomGhost;
},
{
horizontal = 1;
origin = (0,35);
target = down;
type = TopGhost;
},
{
horizontal = 1;
origin = (0,45);
target = (0,30);
type = Stem;
}
);
layerId = "DDABD3A5-4A8B-4D55-9B9E-1269DFBEF3A1";
name = Regular;
shapes = (
{
closed = 1;
nodes = (
(322,0,ls),
(333,0,o),
(344,7,o),
(347,18,cs),
(499,553,l),
(653,18,ls),
(656,7,o),
(667,0,o),
(678,0,cs),
(734,0,ls),
(745,0,o),
(756,7,o),
(759,18,cs),
(954,674,ls),
(957,685,o),
(949,695,o),
(938,695,cs),
(886,695,ls),
(877,695,o),
(869,689,o),
(867,681,cs),
(706,119,l),
(545,681,ls),
(543,689,o),
(535,695,o),
(526,695,cs),
(474,695,ls),
(465,695,o),
(457,689,o),
(455,681,cs),
(294,119,l),
(133,681,ls),
(131,689,o),
(123,695,o),
(114,695,cs),
(62,695,ls),
(53,695,o),
(45,688,o),
(45,679,cs),
(45,678,o),
(45,676,o),
(46,674,c),
(241,18,ls),
(244,7,o),
(255,0,o),
(266,0,cs)
);
}
);
width = 999;
},
{
anchors = (
{
name = bottom;
pos = (520,0);
},
{
name = top;
pos = (520,710);
}
);
hints = (
{
horizontal = 1;
origin = (0,45);
target = up;
type = BottomGhost;
},
{
horizontal = 1;
origin = (0,35);
target = down;
type = TopGhost;
}
);
layerId = "1D8279CA-6213-4437-A9CB-DE6E86D89D97";
name = Bold;
shapes = (
{
closed = 1;
nodes = (
(356,-2,ls),
(368,-2,o),
(379,5,o),
(382,17,c),
(520,503,l),
(656,17,ls),
(659,6,o),
(669,-2,o),
(681,-2,cs),
(776,-2,ls),
(788,-2,o),
(799,5,o),
(802,17,c),
(1002,689,ls),
(1006,703,o),
(997,715,o),
(983,715,cs),
(901,715,ls),
(889,715,o),
(879,707,o),
(876,696,cs),
(733,182,l),
(584,696,ls),
(581,707,o),
(571,715,o),
(559,715,cs),
(481,715,ls),
(469,715,o),
(459,707,o),
(456,696,cs),
(313,182,l),
(164,696,ls),
(161,707,o),
(151,715,o),
(139,715,cs),
(61,715,ls),
(49,715,o),
(40,706,o),
(40,695,cs),
(40,693,o),
(40,691,o),
(41,689,c),
(236,17,ls),
(239,6,o),
(249,-2,o),
(261,-2,cs)
);
}
);
width = 1043;
}
);
unicode = 87;
},
{
glyphname = X;
kernLeft = X;
kernRight = X;
lastChange = "2024-04-10 10:58:26 +0000";
layers = (
{
anchors = (
{
name = bottom;
pos = (305,0);
},
{
name = top;
pos = (310,687);
}
);
hints = (
{
horizontal = 1;
origin = (0,47);
target = up;
type = BottomGhost;
},
{
horizontal = 1;
origin = (0,33);
target = down;
type = TopGhost;
}
);
layerId = "DDABD3A5-4A8B-4D55-9B9E-1269DFBEF3A1";
name = Regular;
shapes = (
{
closed = 1;
nodes = (
(123,0,ls),
(129,0,o),
(135,3,o),
(138,8,cs),
(304,271,l),
(469,8,ls),
(472,3,o),
(478,0,o),
(484,0,cs),
(539,0,ls),
(550,0,o),
(557,8,o),
(557,17,cs),
(557,21,o),
(556,24,o),
(554,28,cs),
(352,348,l),
(553,667,ls),
(555,671,o),
(556,674,o),
(556,678,cs),
(556,687,o),
(549,695,o),
(538,695,cs),
(484,695,ls),
(478,695,o),
(472,692,o),
(469,687,cs),
(304,425,l),
(138,687,ls),
(135,692,o),
(129,695,o),
(123,695,cs),
(69,695,ls),
(58,695,o),
(51,687,o),
(51,678,cs),
(51,674,o),
(52,671,o),
(54,667,cs),
(255,348,l),
(53,28,ls),
(51,24,o),
(50,21,o),
(50,17,cs),
(50,8,o),
(57,0,o),
(68,0,cs)
);
}
);
width = 607;
},
{
anchors = (
{
name = bottom;
pos = (326,0);
},
{
name = top;
pos = (326,710);
}
);
hints = (
{
horizontal = 1;
origin = (0,47);
target = up;
type = BottomGhost;
},
{
horizontal = 1;
origin = (0,33);
target = down;
type = TopGhost;
}
);
layerId = "1D8279CA-6213-4437-A9CB-DE6E86D89D97";
name = Bold;
shapes = (
{
closed = 1;
nodes = (
(161,0,ls),
(169,0,o),
(178,4,o),
(182,11,c),
(326,239,l),
(470,11,l),
(474,4,o),
(483,0,o),
(491,0,cs),
(579,0,ls),
(593,0,o),
(603,10,o),
(603,22,cs),
(603,27,o),
(602,31,o),
(599,35,c),
(398,354,l),
(604,680,l),
(607,684,o),
(608,688,o),
(608,693,cs),
(608,705,o),
(598,715,o),
(584,715,cs),
(496,715,ls),
(488,715,o),
(479,711,o),
(475,704,c),
(326,468,l),
(177,704,l),
(173,711,o),
(164,715,o),
(156,715,cs),
(68,715,ls),
(54,715,o),
(44,705,o),
(44,693,cs),
(44,688,o),
(45,684,o),
(48,680,c),
(254,354,l),
(53,35,l),
(50,31,o),
(49,27,o),
(49,22,cs),
(49,10,o),
(59,0,o),
(73,0,cs)
);
}
);
width = 653;
}
);
unicode = 88;
},
{
glyphname = Y;
kernLeft = Y;
kernRight = Y;
lastChange = "2024-04-10 10:59:03 +0000";
layers = (
{
anchors = (
{
name = bottom;
pos = (284,0);
},
{
name = top;
pos = (284,687);
}
);
hints = (
{
horizontal = 1;
origin = (0,33);
target = up;
type = BottomGhost;
},
{
horizontal = 1;
origin = (0,22);
target = down;
type = TopGhost;
},
{
origin = (0,30);
target = (0,3);
type = Stem;
}
);
layerId = "DDABD3A5-4A8B-4D55-9B9E-1269DFBEF3A1";
name = Regular;
shapes = (
{
closed = 1;
nodes = (
(311,0,ls),
(319,0,o),
(325,6,o),
(325,14,cs),
(325,338,l),
(529,668,ls),
(531,672,o),
(532,675,o),
(532,678,cs),
(532,688,o),
(525,695,o),
(514,695,cs),
(460,695,ls),
(454,695,o),
(449,692,o),
(445,686,cs),
(284,419,l),
(284,419,l),
(122,686,ls),
(118,692,o),
(113,695,o),
(107,695,cs),
(53,695,ls),
(42,695,o),
(35,688,o),
(35,678,cs),
(35,675,o),
(36,672,o),
(38,668,cs),
(243,335,l),
(243,14,ls),
(243,6,o),
(249,0,o),
(257,0,cs)
);
}
);
width = 567;
},
{
anchors = (
{
name = bottom;
pos = (307,0);
},
{
name = top;
pos = (308,710);
}
);
hints = (
{
horizontal = 1;
origin = (0,33);
target = up;
type = BottomGhost;
},
{
horizontal = 1;
origin = (0,22);
target = down;
type = TopGhost;
},
{
origin = (0,30);
target = (0,3);
type = Stem;
}
);
layerId = "1D8279CA-6213-4437-A9CB-DE6E86D89D97";
name = Bold;
shapes = (
{
closed = 1;
nodes = (
(347,0,l),
(359,0,o),
(368,9,o),
(368,21,cs),
(368,327,l),
(579,680,ls),
(582,684,o),
(583,688,o),
(583,693,cs),
(583,705,o),
(573,715,o),
(559,715,cs),
(476,715,ls),
(468,715,o),
(460,711,o),
(456,704,cs),
(308,447,l),
(306,447,l),
(158,704,ls),
(154,711,o),
(146,715,o),
(138,715,cs),
(55,715,ls),
(41,715,o),
(31,705,o),
(31,693,cs),
(31,688,o),
(32,684,o),
(35,680,cs),
(246,327,l),
(246,21,ls),
(246,9,o),
(255,0,o),
(267,0,cs)
);
}
);
width = 615;
}
);
unicode = 89;
},
{
glyphname = Z;
kernLeft = Z;
kernRight = Z;
lastChange = "2024-04-10 10:37:22 +0000";
layers = (
{
anchors = (
{
name = bottom;
pos = (278,0);
},
{
name = top;
pos = (274,687);
}
);
hints = (
{
horizontal = 1;
origin = (0,31);
target = (0,8);
type = Stem;
},
{
horizontal = 1;
origin = (0,16);
target = (0,23);
type = Stem;
}
);
layerId = "DDABD3A5-4A8B-4D55-9B9E-1269DFBEF3A1";
name = Regular;
shapes = (
{
closed = 1;
nodes = (
(482,0,ls),
(490,0,o),
(496,6,o),
(496,14,cs),
(496,63,ls),
(496,71,o),
(490,77,o),
(482,77,cs),
(164,77,l),
(490,640,ls),
(493,645,o),
(494,651,o),
(494,657,cs),
(494,676,o),
(480,695,o),
(460,695,cs),
(82,695,ls),
(74,695,o),
(68,689,o),
(68,681,cs),
(68,632,ls),
(68,624,o),
(74,618,o),
(82,618,cs),
(384,618,l),
(60,55,ls),
(57,50,o),
(55,44,o),
(55,38,cs),
(55,19,o),
(69,0,o),
(89,0,cs)
);
}
);
width = 551;
},
{
anchors = (
{
name = bottom;
pos = (288,0);
},
{
name = top;
pos = (288,710);
}
);
hints = (
{
horizontal = 1;
origin = (0,31);
target = (0,8);
type = Stem;
},
{
horizontal = 1;
origin = (0,16);
target = (0,23);
type = Stem;
}
);
layerId = "1D8279CA-6213-4437-A9CB-DE6E86D89D97";
name = Bold;
shapes = (
{
closed = 1;
nodes = (
(507,0,ls),
(519,0,o),
(528,9,o),
(528,21,cs),
(528,96,ls),
(528,108,o),
(519,117,o),
(507,117,cs),
(213,117,l),
(520,630,ls),
(525,639,o),
(527,648,o),
(527,657,cs),
(527,687,o),
(504,715,o),
(472,715,cs),
(81,715,ls),
(69,715,o),
(60,706,o),
(60,694,cs),
(60,619,ls),
(60,607,o),
(69,598,o),
(81,598,cs),
(361,598,l),
(55,85,ls),
(50,77,o),
(48,67,o),
(48,58,cs),
(48,29,o),
(70,0,o),
(101,0,cs)
);
}
);
width = 578;
}
);
unicode = 90;
},
{
glyphname = a;
kernLeft = a;
kernRight = a;
lastChange = "2024-04-10 10:59:28 +0000";
layers = (
{
anchors = (
{
name = bottom;
pos = (235,0);
},
{
name = ogonek;
pos = (451,0);
},
{
name = top;
pos = (274,566);
}
);
hints = (
{
horizontal = 1;
origin = (0,49);
target = (1,12);
type = Stem;
},
{
horizontal = 1;
origin = (0,14);
target = (0,33);
type = Stem;
},
{
horizontal = 1;
origin = (0,6);
target = up;
type = BottomGhost;
},
{
origin = (0,46);
target = (1,2);
type = Stem;
},
{
origin = (0,3);
target = (0,10);
type = Stem;
}
);
layerId = "DDABD3A5-4A8B-4D55-9B9E-1269DFBEF3A1";
name = Regular;
shapes = (
{
closed = 1;
nodes = (
(302,-13,o),
(369,23,o),
(410,83,c),
(410,14,ls),
(410,6,o),
(416,0,o),
(424,0,cs),
(466,0,ls),
(474,0,o),
(480,6,o),
(480,14,cs),
(480,398,ls),
(480,507,o),
(397,579,o),
(275,579,cs),
(185,579,o),
(116,538,o),
(79,476,cs),
(77,472,o),
(76,469,o),
(76,466,cs),
(76,459,o),
(79,454,o),
(85,449,cs),
(112,431,ls),
(116,428,o),
(121,426,o),
(125,426,cs),
(133,426,o),
(140,431,o),
(145,439,cs),
(169,479,o),
(213,505,o),
(273,505,cs),
(346,505,o),
(404,463,o),
(404,398,cs),
(404,390,ls),
(404,351,o),
(388,332,o),
(349,326,cs),
(306,320,o),
(267,315,o),
(219,308,cs),
(113,293,o),
(50,233,o),
(50,145,cs),
(50,50,o),
(123,-13,o),
(225,-13,cs)
);
},
{
closed = 1;
nodes = (
(169,57,o),
(125,93,o),
(125,148,cs),
(125,200,o),
(159,232,o),
(225,242,cs),
(307,254,o),
(346,260,o),
(407,267,c),
(407,226,ls),
(407,153,o),
(337,57,o),
(233,57,cs)
);
}
);
width = 560;
},
{
anchors = (
{
name = bottom;
pos = (269,0);
},
{
name = ogonek;
pos = (473,10);
},
{
name = top;
pos = (281,573);
}
);
hints = (
{
horizontal = 1;
origin = (0,49);
target = (1,12);
type = Stem;
},
{
horizontal = 1;
origin = (0,14);
target = (0,33);
type = Stem;
},
{
horizontal = 1;
origin = (0,6);
target = up;
type = BottomGhost;
},
{
origin = (0,46);
target = (1,2);
type = Stem;
},
{
origin = (1,9);
target = (0,10);
type = Stem;
},
{
horizontal = 1;
origin = (0,27);
target = up;
type = BottomGhost;
}
);
layerId = "1D8279CA-6213-4437-A9CB-DE6E86D89D97";
name = Bold;
shapes = (
{
closed = 1;
nodes = (
(293,-13,o),
(347,11,o),
(393,60,c),
(393,21,ls),
(393,8,o),
(402,0,o),
(414,0,cs),
(482,0,ls),
(494,0,o),
(503,9,o),
(503,21,cs),
(503,384,ls),
(503,506,o),
(415,586,o),
(282,586,cs),
(186,586,o),
(106,543,o),
(67,470,cs),
(66,467,o),
(65,464,o),
(65,461,cs),
(65,454,o),
(68,448,o),
(74,444,cs),
(130,406,ls),
(134,403,o),
(138,402,o),
(143,402,cs),
(150,402,o),
(157,407,o),
(162,415,cs),
(186,453,o),
(226,474,o),
(280,474,cs),
(337,474,o),
(384,445,o),
(387,397,c),
(387,392,l),
(387,368,o),
(375,354,o),
(350,350,cs),
(331,346,o),
(250,336,o),
(223,332,cs),
(107,313,o),
(40,250,o),
(40,158,cs),
(40,56,o),
(117,-13,o),
(229,-13,cs)
);
},
{
closed = 1;
nodes = (
(187,94,o),
(154,121,o),
(154,162,cs),
(154,200,o),
(181,223,o),
(236,233,cs),
(263,238,o),
(345,248,o),
(390,255,c),
(390,235,ls),
(390,161,o),
(317,94,o),
(238,94,cs)
);
}
);
width = 575;
}
);
unicode = 97;
},
{
glyphname = aogonek;
kernLeft = a;
kernRight = a;
lastChange = "2024-04-10 10:59:40 +0000";
layers = (
{
hints = (
{
horizontal = 1;
origin = (0,66);
target = (0,8);
type = Stem;
},
{
horizontal = 1;
origin = (0,56);
target = (1,12);
type = Stem;
},
{
horizontal = 1;
origin = (0,21);
target = (0,40);
type = Stem;
},
{
horizontal = 1;
origin = (0,56);
target = up;
type = BottomGhost;
},
{
origin = (0,53);
target = (1,2);
type = Stem;
},
{
origin = (0,63);
target = (0,11);
type = Stem;
},
{
origin = (1,9);
target = (0,17);
type = Stem;
},
{
horizontal = 1;
origin = (0,34);
target = up;
type = BottomGhost;
}
);
layerId = "DDABD3A5-4A8B-4D55-9B9E-1269DFBEF3A1";
name = Regular;
shapes = (
{
closed = 1;
nodes = (
(470,-197,ls),
(478,-197,o),
(485,-190,o),
(485,-182,cs),
(485,-142,ls),
(485,-134,o),
(478,-127,o),
(470,-127,cs),
(453,-127,ls),
(432,-127,o),
(411,-120,o),
(411,-90,cs),
(411,-58,o),
(436,-32,o),
(467,0,cs),
(475,8,o),
(480,17,o),
(480,28,cs),
(480,398,ls),
(480,507,o),
(397,579,o),
(275,579,cs),
(185,579,o),
(116,538,o),
(79,476,cs),
(77,472,o),
(76,469,o),
(76,466,cs),
(76,459,o),
(79,453,o),
(85,449,cs),
(112,431,ls),
(116,428,o),
(121,426,o),
(125,426,cs),
(133,426,o),
(140,431,o),
(145,439,cs),
(169,479,o),
(213,505,o),
(273,505,cs),
(346,505,o),
(404,463,o),
(404,398,cs),
(404,390,ls),
(404,351,o),
(388,332,o),
(349,326,cs),
(306,320,o),
(267,315,o),
(219,308,cs),
(113,293,o),
(50,233,o),
(50,145,cs),
(50,50,o),
(123,-13,o),
(225,-13,cs),
(302,-13,o),
(369,23,o),
(410,83,c),
(410,9,l),
(378,-15,o),
(332,-61,o),
(332,-112,cs),
(332,-165,o),
(382,-197,o),
(440,-197,cs)
);
},
{
closed = 1;
nodes = (
(169,57,o),
(125,93,o),
(125,148,cs),
(125,200,o),
(159,232,o),
(225,242,cs),
(307,254,o),
(346,260,o),
(407,267,c),
(407,226,ls),
(407,153,o),
(337,57,o),
(233,57,cs)
);
}
);
width = 565;
},
{
hints = (
{
horizontal = 1;
origin = (0,66);
target = (0,8);
type = Stem;
},
{
horizontal = 1;
origin = (0,56);
target = (1,12);
type = Stem;
},
{
horizontal = 1;
origin = (0,21);
target = (0,40);
type = Stem;
},
{
horizontal = 1;
origin = (0,56);
target = up;
type = BottomGhost;
},
{
origin = (0,53);
target = (1,2);
type = Stem;
},
{
origin = (1,9);
target = (0,3);
type = Stem;
},
{
origin = (0,63);
target = (0,11);
type = Stem;
}
);
layerId = "1D8279CA-6213-4437-A9CB-DE6E86D89D97";
name = Bold;
shapes = (
{
closed = 1;
nodes = (
(486,-193,ls),
(495,-193,o),
(503,-185,o),
(503,-176,cs),
(503,-119,ls),
(503,-109,o),
(495,-102,o),
(486,-102,cs),
(465,-102,ls),
(438,-102,o),
(417,-88,o),
(417,-63,cs),
(417,-36,o),
(441,-14,o),
(480,-4,cs),
(494,-1,o),
(503,9,o),
(503,22,cs),
(503,384,ls),
(503,506,o),
(415,586,o),
(282,586,cs),
(186,586,o),
(106,543,o),
(67,470,c),
(66,467,o),
(65,464,o),
(65,461,cs),
(65,454,o),
(68,448,o),
(74,444,cs),
(130,406,l),
(134,403,o),
(138,402,o),
(143,402,cs),
(150,402,o),
(157,407,o),
(162,415,cs),
(186,453,o),
(226,474,o),
(280,474,cs),
(338,474,o),
(386,444,o),
(387,394,c),
(387,392,l),
(387,368,o),
(375,354,o),
(350,350,c),
(331,346,o),
(250,336,o),
(223,332,cs),
(107,313,o),
(40,250,o),
(40,158,cs),
(40,56,o),
(117,-13,o),
(229,-13,cs),
(293,-13,o),
(347,11,o),
(393,60,c),
(393,6,l),
(348,-19,o),
(324,-54,o),
(324,-94,cs),
(324,-157,o),
(384,-193,o),
(451,-193,cs)
);
},
{
closed = 1;
nodes = (
(187,94,o),
(154,121,o),
(154,162,cs),
(154,200,o),
(181,223,o),
(236,233,cs),
(263,238,o),
(345,248,o),
(390,255,c),
(390,235,ls),
(390,161,o),
(317,94,o),
(238,94,cs)
);
}
);
width = 575;
}
);
metricLeft = a;
metricRight = a;
unicode = 261;
},
{
glyphname = ae;
kernLeft = a;
kernRight = e;
lastChange = "2024-04-10 10:59:53 +0000";
layers = (
{
anchors = (
{
name = bottom;
pos = (453,0);
},
{
name = top;
pos = (453,566);
}
);
hints = (
{
horizontal = 1;
origin = (0,67);
target = (1,12);
type = Stem;
},
{
horizontal = 1;
origin = (0,18);
target = (2,8);
type = Stem;
},
{
horizontal = 1;
origin = (0,32);
target = (0,51);
type = Stem;
},
{
horizontal = 1;
origin = (0,5);
target = (0,14);
type = Stem;
},
{
origin = (0,64);
target = (1,2);
type = Stem;
},
{
origin = (1,9);
target = (0,17);
type = Stem;
},
{
origin = (2,7);
target = (0,22);
type = Stem;
},
{
horizontal = 1;
origin = (0,45);
target = up;
type = BottomGhost;
}
);
layerId = "DDABD3A5-4A8B-4D55-9B9E-1269DFBEF3A1";
name = Regular;
shapes = (
{
closed = 1;
nodes = (
(314,-13,o),
(395,35,o),
(436,109,c),
(473,44,o),
(543,0,o),
(624,0,cs),
(769,0,ls),
(777,0,o),
(783,6,o),
(783,14,cs),
(783,60,ls),
(783,68,o),
(777,74,o),
(769,74,cs),
(624,74,ls),
(547,74,o),
(485,136,o),
(485,213,cs),
(485,257,l),
(805,257,ls),
(825,257,o),
(841,273,o),
(841,293,cs),
(841,361,ls),
(841,482,o),
(744,579,o),
(624,579,cs),
(554,579,o),
(492,546,o),
(453,495,c),
(419,548,o),
(355,579,o),
(275,579,cs),
(185,579,o),
(116,538,o),
(79,476,cs),
(77,472,o),
(76,469,o),
(76,466,cs),
(76,459,o),
(79,454,o),
(85,449,cs),
(112,431,ls),
(116,428,o),
(121,426,o),
(125,426,cs),
(133,426,o),
(140,431,o),
(145,439,cs),
(169,479,o),
(213,505,o),
(273,505,cs),
(346,505,o),
(404,463,o),
(404,398,cs),
(404,390,ls),
(404,351,o),
(388,332,o),
(349,326,cs),
(306,320,o),
(267,315,o),
(219,308,cs),
(113,293,o),
(50,233,o),
(50,145,cs),
(50,50,o),
(123,-13,o),
(225,-13,cs)
);
},
{
closed = 1;
nodes = (
(169,57,o),
(125,93,o),
(125,148,cs),
(125,200,o),
(159,232,o),
(225,242,cs),
(307,254,o),
(346,260,o),
(407,267,c),
(407,226,ls),
(407,153,o),
(337,57,o),
(233,57,cs)
);
},
{
closed = 1;
nodes = (
(485,366,ls),
(485,443,o),
(547,505,o),
(624,505,cs),
(701,505,o),
(763,443,o),
(763,366,cs),
(763,329,l),
(485,329,l)
);
}
);
width = 899;
},
{
anchors = (
{
name = bottom;
pos = (458,0);
},
{
name = top;
pos = (458,573);
}
);
hints = (
{
horizontal = 1;
origin = (0,67);
target = (1,12);
type = Stem;
},
{
horizontal = 1;
origin = (0,18);
target = (2,8);
type = Stem;
},
{
horizontal = 1;
origin = (0,32);
target = (2,3);
type = Stem;
},
{
horizontal = 1;
origin = (0,5);
target = (0,14);
type = Stem;
},
{
origin = (0,64);
target = (1,2);
type = Stem;
},
{
origin = (1,9);
target = (0,17);
type = Stem;
},
{
origin = (2,7);
target = (0,22);
type = Stem;
},
{
origin = (0,55);
target = (0,17);
type = Stem;
}
);
layerId = "1D8279CA-6213-4437-A9CB-DE6E86D89D97";
name = Bold;
shapes = (
{
closed = 1;
nodes = (
(312,-13,o),
(386,22,o),
(438,93,c),
(482,36,o),
(550,0,o),
(628,0,cs),
(787,0,ls),
(799,0,o),
(808,9,o),
(808,21,cs),
(808,93,ls),
(808,105,o),
(799,114,o),
(787,114,cs),
(628,114,ls),
(563,114,o),
(510,167,o),
(510,232,cs),
(510,237,l),
(823,237,ls),
(847,237,o),
(866,256,o),
(866,280,cs),
(866,347,ls),
(866,480,o),
(760,586,o),
(628,586,cs),
(561,586,o),
(501,559,o),
(458,515,c),
(419,560,o),
(358,586,o),
(282,586,cs),
(186,586,o),
(106,543,o),
(67,470,cs),
(66,467,o),
(65,464,o),
(65,461,cs),
(65,454,o),
(68,448,o),
(74,444,cs),
(130,406,ls),
(134,403,o),
(138,402,o),
(143,402,cs),
(150,402,o),
(157,407,o),
(162,415,cs),
(186,453,o),
(226,474,o),
(280,474,cs),
(338,474,o),
(385,444,o),
(387,395,c),
(387,392,l),
(387,368,o),
(375,355,o),
(350,350,cs),
(331,346,o),
(250,336,o),
(223,332,cs),
(107,313,o),
(40,250,o),
(40,158,cs),
(40,56,o),
(117,-13,o),
(229,-13,cs)
);
},
{
closed = 1;
nodes = (
(187,94,o),
(154,121,o),
(154,162,cs),
(154,200,o),
(181,223,o),
(236,233,cs),
(263,238,o),
(345,248,o),
(390,255,c),
(390,235,ls),
(390,161,o),
(317,94,o),
(238,94,cs)
);
},
{
closed = 1;
nodes = (
(510,354,ls),
(510,419,o),
(563,472,o),
(628,472,cs),
(693,472,o),
(746,419,o),
(746,354,cs),
(746,345,l),
(510,345,l)
);
}
);
width = 918;
}
);
metricLeft = a;
metricRight = e;
unicode = 230;
},
{
glyphname = b;
kernLeft = h;
kernRight = o;
lastChange = "2024-04-10 10:37:22 +0000";
layers = (
{
anchors = (
{
name = bottom;
pos = (316,0);
},
{
name = top;
pos = (129,760);
}
);
hints = (
{
horizontal = 1;
origin = (0,29);
target = (1,13);
type = Stem;
},
{
horizontal = 1;
origin = (0,6);
target = (1,6);
type = Stem;
},
{
horizontal = 1;
origin = (0,14);
target = down;
type = TopGhost;
},
{
horizontal = 1;
origin = (0,21);
target = up;
type = BottomGhost;
},
{
origin = (0,18);
target = (1,2);
type = Stem;
},
{
origin = (1,10);
target = (0,2);
type = Stem;
}
);
layerId = "DDABD3A5-4A8B-4D55-9B9E-1269DFBEF3A1";
name = Regular;
shapes = (
{
closed = 1;
nodes = (
(431,-13,o),
(525,81,o),
(525,196,cs),
(525,370,ls),
(525,485,o),
(431,579,o),
(316,579,cs),
(258,579,o),
(205,552,o),
(168,509,c),
(168,745,ls),
(168,753,o),
(162,759,o),
(154,759,cs),
(104,759,ls),
(96,759,o),
(90,753,o),
(90,745,cs),
(90,14,ls),
(90,6,o),
(96,0,o),
(104,0,cs),
(150,0,ls),
(158,0,o),
(164,6,o),
(164,14,cs),
(164,53,l),
(202,12,o),
(256,-13,o),
(316,-13,cs)
);
},
{
closed = 1;
nodes = (
(230,61,o),
(168,123,o),
(168,200,cs),
(168,366,ls),
(168,443,o),
(230,505,o),
(308,505,cs),
(385,505,o),
(447,443,o),
(447,366,cs),
(447,200,ls),
(447,123,o),
(385,61,o),
(308,61,cs)
);
}
);
width = 590;
},
{
anchors = (
{
name = bottom;
pos = (328,0);
},
{
name = top;
pos = (138,766);
}
);
associatedMasterId = "1D8279CA-6213-4437-A9CB-DE6E86D89D97";
hints = (
{
horizontal = 1;
origin = (0,29);
target = (1,13);
type = Stem;
},
{
horizontal = 1;
origin = (0,6);
target = (1,6);
type = Stem;
},
{
horizontal = 1;
origin = (0,14);
target = down;
type = TopGhost;
},
{
horizontal = 1;
origin = (0,21);
target = up;
type = BottomGhost;
},
{
origin = (0,18);
target = (1,2);
type = Stem;
},
{
origin = (1,10);
target = (0,2);
type = Stem;
}
);
layerId = "4FB830AF-1D2A-4BCF-8592-266B40025012";
name = Bold;
shapes = (
{
closed = 1;
nodes = (
(453,-13,o),
(555,92,o),
(555,217,cs),
(555,356,ls),
(555,480,o),
(456,586,o),
(332,586,cs),
(283,586,o),
(232,564,o),
(198,522,c),
(198,745,ls),
(198,757,o),
(189,766,o),
(177,766,cs),
(99,766,ls),
(87,766,o),
(78,757,o),
(78,745,cs),
(78,21,ls),
(78,9,o),
(87,0,o),
(99,0,cs),
(164,0,ls),
(176,0,o),
(185,9,o),
(185,21,cs),
(185,64,l),
(221,12,o),
(275,-13,o),
(332,-13,cs)
);
},
{
closed = 1;
nodes = (
(251,102,o),
(198,155,o),
(198,220,cs),
(198,353,ls),
(198,418,o),
(251,471,o),
(317,471,cs),
(382,471,o),
(435,418,o),
(435,353,cs),
(435,220,ls),
(435,155,o),
(382,102,o),
(317,102,cs)
);
}
);
width = 614;
},
{
anchors = (
{
name = bottom;
pos = (328,0);
},
{
name = top;
pos = (138,766);
}
);
hints = (
{
horizontal = 1;
origin = (0,29);
target = (1,13);
type = Stem;
},
{
horizontal = 1;
origin = (0,6);
target = (1,6);
type = Stem;
},
{
horizontal = 1;
origin = (0,14);
target = down;
type = TopGhost;
},
{
horizontal = 1;
origin = (0,21);
target = up;
type = BottomGhost;
},
{
origin = (0,18);
target = (1,2);
type = Stem;
},
{
origin = (1,10);
target = (0,2);
type = Stem;
}
);
layerId = "1D8279CA-6213-4437-A9CB-DE6E86D89D97";
name = Bold;
shapes = (
{
closed = 1;
nodes = (
(453,-13,o),
(555,92,o),
(555,217,cs),
(555,356,ls),
(555,480,o),
(456,586,o),
(332,586,cs),
(283,586,o),
(232,564,o),
(198,522,c),
(198,745,ls),
(198,757,o),
(189,766,o),
(177,766,cs),
(99,766,ls),
(87,766,o),
(78,757,o),
(78,745,cs),
(78,21,ls),
(78,9,o),
(87,0,o),
(99,0,cs),
(164,0,ls),
(176,0,o),
(185,9,o),
(185,21,cs),
(185,64,l),
(221,12,o),
(275,-13,o),
(332,-13,cs)
);
},
{
closed = 1;
nodes = (
(251,102,o),
(198,155,o),
(198,220,cs),
(198,353,ls),
(198,418,o),
(251,471,o),
(317,471,cs),
(382,471,o),
(435,418,o),
(435,353,cs),
(435,220,ls),
(435,155,o),
(382,102,o),
(317,102,cs)
);
}
);
width = 614;
}
);
unicode = 98;
},
{
glyphname = c;
kernLeft = o;
kernRight = c;
lastChange = "2024-04-10 11:00:05 +0000";
layers = (
{
anchors = (
{
name = bottom;
pos = (282,0);
},
{
name = top;
pos = (274,566);
}
);
hints = (
{
horizontal = 1;
origin = (0,55);
target = (0,20);
type = Stem;
},
{
horizontal = 1;
origin = (0,48);
target = (0,27);
type = Stem;
},
{
origin = (0,52);
target = (0,23);
type = Stem;
},
{
horizontal = 1;
origin = (0,33);
target = up;
type = BottomGhost;
},
{
horizontal = 1;
origin = (0,14);
target = down;
type = TopGhost;
}
);
layerId = "DDABD3A5-4A8B-4D55-9B9E-1269DFBEF3A1";
name = Regular;
shapes = (
{
closed = 1;
nodes = (
(341,-13,o),
(393,10,o),
(431,47,cs),
(435,51,o),
(437,56,o),
(437,61,cs),
(437,67,o),
(435,72,o),
(431,76,cs),
(423,85,o),
(416,92,o),
(408,99,cs),
(403,103,o),
(398,105,o),
(393,105,cs),
(387,105,o),
(382,103,o),
(377,98,cs),
(352,75,o),
(319,61,o),
(282,61,cs),
(205,61,o),
(143,123,o),
(143,200,cs),
(143,366,ls),
(143,443,o),
(205,505,o),
(282,505,cs),
(319,505,o),
(352,491,o),
(377,468,cs),
(382,463,o),
(387,461,o),
(393,461,cs),
(398,461,o),
(403,463,o),
(408,467,cs),
(417,475,o),
(424,482,o),
(431,490,cs),
(435,495,o),
(437,500,o),
(437,505,cs),
(437,510,o),
(435,515,o),
(431,519,cs),
(393,556,o),
(341,579,o),
(282,579,cs),
(162,579,o),
(65,482,o),
(65,361,cs),
(65,205,ls),
(65,84,o),
(162,-13,o),
(282,-13,cs)
);
}
);
width = 492;
},
{
anchors = (
{
name = bottom;
pos = (294,0);
},
{
name = top;
pos = (294,573);
}
);
hints = (
{
horizontal = 1;
origin = (0,55);
target = (0,20);
type = Stem;
},
{
horizontal = 1;
origin = (0,48);
target = (0,27);
type = Stem;
},
{
origin = (0,52);
target = (0,23);
type = Stem;
},
{
horizontal = 1;
origin = (0,33);
target = up;
type = BottomGhost;
},
{
horizontal = 1;
origin = (0,14);
target = down;
type = TopGhost;
}
);
layerId = "1D8279CA-6213-4437-A9CB-DE6E86D89D97";
name = Bold;
shapes = (
{
closed = 1;
nodes = (
(362,-13,o),
(426,15,o),
(470,65,cs),
(475,70,o),
(477,76,o),
(477,81,cs),
(477,88,o),
(473,96,o),
(468,101,cs),
(454,115,o),
(439,130,o),
(425,144,cs),
(420,149,o),
(415,151,o),
(409,151,cs),
(403,151,o),
(397,148,o),
(392,142,cs),
(367,117,o),
(335,103,o),
(295,103,cs),
(230,103,o),
(177,156,o),
(177,221,cs),
(177,352,ls),
(177,417,o),
(230,470,o),
(295,470,cs),
(335,470,o),
(367,456,o),
(392,431,cs),
(397,425,o),
(403,422,o),
(409,422,cs),
(415,422,o),
(420,424,o),
(425,429,cs),
(439,443,o),
(454,458,o),
(468,472,cs),
(473,477,o),
(477,485,o),
(477,492,cs),
(477,497,o),
(475,503,o),
(470,508,cs),
(426,558,o),
(362,586,o),
(295,586,cs),
(163,586,o),
(57,480,o),
(57,347,cs),
(57,226,ls),
(57,93,o),
(163,-13,o),
(295,-13,cs)
);
}
);
width = 527;
}
);
unicode = 99;
},
{
glyphname = d;
kernLeft = o;
kernRight = d;
lastChange = "2024-04-10 10:37:22 +0000";
layers = (
{
anchors = (
{
name = bottom;
pos = (285,0);
},
{
name = center;
pos = (457,645);
},
{
name = top;
pos = (461,759);
},
{
name = topright;
pos = (572,562);
}
);
hints = (
{
horizontal = 1;
origin = (0,29);
target = (1,13);
type = Stem;
},
{
horizontal = 1;
origin = (0,22);
target = (1,6);
type = Stem;
},
{
horizontal = 1;
origin = (0,15);
target = down;
type = TopGhost;
},
{
horizontal = 1;
origin = (0,6);
target = up;
type = BottomGhost;
},
{
origin = (0,26);
target = (1,2);
type = Stem;
},
{
origin = (1,10);
target = (0,10);
type = Stem;
}
);
layerId = "DDABD3A5-4A8B-4D55-9B9E-1269DFBEF3A1";
name = Regular;
shapes = (
{
closed = 1;
nodes = (
(334,-13,o),
(388,12,o),
(426,58,c),
(426,14,ls),
(426,6,o),
(432,0,o),
(440,0,cs),
(486,0,ls),
(494,0,o),
(500,6,o),
(500,14,cs),
(500,745,ls),
(500,753,o),
(494,759,o),
(486,759,cs),
(436,759,ls),
(428,759,o),
(422,753,o),
(422,745,cs),
(422,522,l),
(383,558,o),
(330,579,o),
(275,579,cs),
(158,579,o),
(65,485,o),
(65,370,cs),
(65,196,ls),
(65,81,o),
(159,-13,o),
(274,-13,cs)
);
},
{
closed = 1;
nodes = (
(205,61,o),
(143,123,o),
(143,200,cs),
(143,366,ls),
(143,443,o),
(205,505,o),
(282,505,cs),
(360,505,o),
(422,443,o),
(422,366,cs),
(422,200,ls),
(422,123,o),
(360,61,o),
(282,61,cs)
);
}
);
width = 590;
},
{
anchors = (
{
name = bottom;
pos = (277,0);
},
{
name = center;
pos = (463,662);
},
{
name = top;
pos = (475,766);
},
{
name = topright;
pos = (594,573);
}
);
associatedMasterId = "1D8279CA-6213-4437-A9CB-DE6E86D89D97";
hints = (
{
horizontal = 1;
origin = (0,29);
target = (1,13);
type = Stem;
},
{
horizontal = 1;
origin = (0,22);
target = (1,6);
type = Stem;
},
{
horizontal = 1;
origin = (0,15);
target = down;
type = TopGhost;
},
{
horizontal = 1;
origin = (0,6);
target = up;
type = BottomGhost;
},
{
origin = (0,26);
target = (1,2);
type = Stem;
},
{
origin = (1,10);
target = (0,10);
type = Stem;
}
);
layerId = "A4EFC9C8-FFB4-4AD0-B2D9-93A50B6A18B5";
name = Bold;
shapes = (
{
closed = 1;
nodes = (
(338,-13,o),
(391,14,o),
(427,69,c),
(427,21,ls),
(427,9,o),
(436,0,o),
(448,0,cs),
(513,0,ls),
(525,0,o),
(534,9,o),
(534,21,cs),
(534,745,ls),
(534,757,o),
(525,766,o),
(513,766,cs),
(435,766,ls),
(423,766,o),
(414,757,o),
(414,745,cs),
(414,540,l),
(379,570,o),
(329,586,o),
(279,586,cs),
(156,586,o),
(57,480,o),
(57,356,cs),
(57,217,ls),
(57,92,o),
(160,-13,o),
(278,-13,cs)
);
},
{
closed = 1;
nodes = (
(230,102,o),
(177,155,o),
(177,220,cs),
(177,353,ls),
(177,418,o),
(230,471,o),
(295,471,cs),
(361,471,o),
(414,418,o),
(414,353,cs),
(414,220,ls),
(414,155,o),
(361,102,o),
(295,102,cs)
);
}
);
width = 615;
},
{
anchors = (
{
name = bottom;
pos = (277,0);
},
{
name = center;
pos = (463,662);
},
{
name = top;
pos = (475,766);
},
{
name = topright;
pos = (594,573);
}
);
hints = (
{
horizontal = 1;
origin = (0,29);
target = (1,13);
type = Stem;
},
{
horizontal = 1;
origin = (0,22);
target = (1,6);
type = Stem;
},
{
horizontal = 1;
origin = (0,15);
target = down;
type = TopGhost;
},
{
horizontal = 1;
origin = (0,6);
target = up;
type = BottomGhost;
},
{
origin = (0,26);
target = (1,2);
type = Stem;
},
{
origin = (1,10);
target = (0,10);
type = Stem;
}
);
layerId = "1D8279CA-6213-4437-A9CB-DE6E86D89D97";
name = Bold;
shapes = (
{
closed = 1;
nodes = (
(338,-13,o),
(391,14,o),
(427,69,c),
(427,21,ls),
(427,9,o),
(436,0,o),
(448,0,cs),
(513,0,ls),
(525,0,o),
(534,9,o),
(534,21,cs),
(534,745,ls),
(534,757,o),
(525,766,o),
(513,766,cs),
(435,766,ls),
(423,766,o),
(414,757,o),
(414,745,cs),
(414,540,l),
(379,570,o),
(329,586,o),
(279,586,cs),
(156,586,o),
(57,480,o),
(57,356,cs),
(57,217,ls),
(57,92,o),
(160,-13,o),
(278,-13,cs)
);
},
{
closed = 1;
nodes = (
(230,102,o),
(177,155,o),
(177,220,cs),
(177,353,ls),
(177,418,o),
(230,471,o),
(295,471,cs),
(361,471,o),
(414,418,o),
(414,353,cs),
(414,220,ls),
(414,155,o),
(361,102,o),
(295,102,cs)
);
}
);
width = 615;
}
);
unicode = 100;
},
{
glyphname = dcaron;
kernLeft = o;
lastChange = "2024-04-10 11:01:14 +0000";
layers = (
{
annotations = (
{
pos = (13.219,522.266);
type = Text;
}
);
background = {
shapes = (
{
closed = 1;
nodes = (
(593,631,ls),
(606,631,o),
(613,636,o),
(619,643,cs),
(700,736,ls),
(708,745,o),
(703,759,o),
(690,759,cs),
(623,759,ls),
(608,759,o),
(599,750,o),
(595,740,cs),
(558,650,ls),
(554,640,o),
(558,631,o),
(569,631,cs)
);
}
);
};
hints = (
{
horizontal = 1;
origin = (0,29);
target = (1,13);
type = Stem;
},
{
horizontal = 1;
origin = (0,22);
target = (1,6);
type = Stem;
},
{
horizontal = 1;
origin = (0,15);
target = (0,22);
type = Stem;
},
{
horizontal = 1;
origin = (0,6);
target = up;
type = BottomGhost;
},
{
origin = (0,26);
target = (1,2);
type = Stem;
},
{
origin = (1,10);
target = (0,10);
type = Stem;
}
);
layerId = "DDABD3A5-4A8B-4D55-9B9E-1269DFBEF3A1";
name = Regular;
shapes = (
{
pos = (289,0);
ref = acutecomb;
},
{
ref = d;
}
);
width = 595;
},
{
background = {
shapes = (
{
closed = 1;
nodes = (
(653,636,ls),
(660,636,o),
(668,638,o),
(674,644,cs),
(777,740,ls),
(780,743,o),
(782,748,o),
(782,751,cs),
(782,759,o),
(776,766,o),
(767,766,cs),
(659,766,ls),
(651,766,o),
(642,761,o),
(639,753,cs),
(594,656,ls),
(589,645,o),
(596,636,o),
(607,636,cs)
);
}
);
};
hints = (
{
horizontal = 1;
origin = (0,29);
target = (1,13);
type = Stem;
},
{
horizontal = 1;
origin = (0,22);
target = (1,6);
type = Stem;
},
{
horizontal = 1;
origin = (0,15);
target = (0,22);
type = Stem;
},
{
horizontal = 1;
origin = (0,6);
target = up;
type = BottomGhost;
},
{
origin = (0,26);
target = (1,2);
type = Stem;
},
{
origin = (1,10);
target = (0,10);
type = Stem;
}
);
layerId = "1D8279CA-6213-4437-A9CB-DE6E86D89D97";
name = Bold;
shapes = (
{
pos = (383,0);
ref = acutecomb;
},
{
ref = d;
}
);
width = 670;
}
);
unicode = 271;
},
{
glyphname = dcroat;
kernLeft = o;
lastChange = "2024-04-10 10:37:22 +0000";
layers = (
{
hints = (
{
horizontal = 1;
origin = (0,29);
target = (1,13);
type = Stem;
},
{
horizontal = 1;
origin = (0,22);
target = (1,6);
type = Stem;
},
{
horizontal = 1;
origin = (2,15);
target = (2,8);
type = Stem;
},
{
horizontal = 1;
origin = (0,15);
target = (2,15);
type = Stem;
},
{
horizontal = 1;
origin = (0,6);
target = up;
type = BottomGhost;
},
{
origin = (0,26);
target = (1,2);
type = Stem;
},
{
origin = (1,10);
target = (0,10);
type = Stem;
}
);
layerId = "DDABD3A5-4A8B-4D55-9B9E-1269DFBEF3A1";
name = Regular;
shapes = (
{
closed = 1;
nodes = (
(334,-13,o),
(388,12,o),
(426,58,c),
(426,14,ls),
(426,6,o),
(432,0,o),
(440,0,cs),
(486,0,ls),
(494,0,o),
(500,6,o),
(500,14,cs),
(500,745,ls),
(500,753,o),
(494,759,o),
(486,759,cs),
(436,759,ls),
(428,759,o),
(422,753,o),
(422,745,cs),
(422,522,l),
(383,558,o),
(330,579,o),
(275,579,cs),
(158,579,o),
(65,485,o),
(65,370,cs),
(65,196,ls),
(65,81,o),
(159,-13,o),
(274,-13,cs)
);
},
{
closed = 1;
nodes = (
(205,61,o),
(143,123,o),
(143,200,cs),
(143,366,ls),
(143,443,o),
(205,505,o),
(282,505,cs),
(360,505,o),
(422,443,o),
(422,366,cs),
(422,200,ls),
(422,123,o),
(360,61,o),
(282,61,cs)
);
},
{
closed = 1;
nodes = (
(557,615,ls),
(565,615,o),
(571,621,o),
(571,629,cs),
(571,661,ls),
(571,669,o),
(565,675,o),
(557,675,cs),
(333,675,ls),
(325,675,o),
(319,669,o),
(319,661,cs),
(319,629,ls),
(319,621,o),
(325,615,o),
(333,615,cs)
);
}
);
width = 607;
},
{
hints = (
{
horizontal = 1;
origin = (0,29);
target = (1,13);
type = Stem;
},
{
horizontal = 1;
origin = (0,22);
target = (1,6);
type = Stem;
},
{
horizontal = 1;
origin = (2,15);
target = (2,8);
type = Stem;
},
{
horizontal = 1;
origin = (0,15);
target = (2,15);
type = Stem;
},
{
horizontal = 1;
origin = (0,6);
target = up;
type = BottomGhost;
},
{
origin = (0,26);
target = (1,2);
type = Stem;
},
{
origin = (1,10);
target = (0,10);
type = Stem;
}
);
layerId = "1D8279CA-6213-4437-A9CB-DE6E86D89D97";
name = Bold;
shapes = (
{
closed = 1;
nodes = (
(338,-13,o),
(391,14,o),
(427,69,c),
(427,21,ls),
(427,9,o),
(436,0,o),
(448,0,cs),
(513,0,ls),
(525,0,o),
(534,9,o),
(534,21,cs),
(534,745,ls),
(534,757,o),
(525,766,o),
(513,766,cs),
(435,766,ls),
(423,766,o),
(414,757,o),
(414,745,cs),
(414,540,l),
(379,570,o),
(329,586,o),
(279,586,cs),
(156,586,o),
(57,480,o),
(57,356,cs),
(57,217,ls),
(57,92,o),
(160,-13,o),
(278,-13,cs)
);
},
{
closed = 1;
nodes = (
(230,102,o),
(177,155,o),
(177,220,cs),
(177,353,ls),
(177,418,o),
(230,471,o),
(295,471,cs),
(361,471,o),
(414,418,o),
(414,353,cs),
(414,220,ls),
(414,155,o),
(361,102,o),
(295,102,cs)
);
},
{
closed = 1;
nodes = (
(593,619,ls),
(605,619,o),
(614,628,o),
(614,640,cs),
(614,673,ls),
(614,685,o),
(605,694,o),
(593,694,cs),
(335,694,ls),
(323,694,o),
(314,685,o),
(314,673,cs),
(314,640,ls),
(314,628,o),
(323,619,o),
(335,619,cs)
);
}
);
width = 646;
}
);
unicode = 273;
},
{
glyphname = eth;
kernLeft = o;
lastChange = "2024-04-10 11:01:49 +0000";
layers = (
{
hints = (
{
horizontal = 1;
origin = (0,59);
target = (1,13);
type = Stem;
},
{
horizontal = 1;
origin = (1,6);
target = (0,52);
type = Stem;
},
{
horizontal = 1;
origin = (0,21);
target = up;
type = BottomGhost;
},
{
horizontal = 1;
origin = (0,24);
target = (0,31);
type = Stem;
},
{
origin = (0,56);
target = (1,2);
type = Stem;
},
{
origin = (1,10);
target = (0,2);
type = Stem;
},
{
horizontal = 1;
origin = (0,42);
target = up;
type = BottomGhost;
}
);
layerId = "DDABD3A5-4A8B-4D55-9B9E-1269DFBEF3A1";
name = Regular;
shapes = (
{
closed = 1;
nodes = (
(402,-13,o),
(499,84,o),
(499,205,cs),
(499,316,ls),
(499,416,o),
(492,501,o),
(458,574,cs),
(443,604,o),
(425,632,o),
(403,655,c),
(478,690,ls),
(484,693,o),
(489,700,o),
(489,707,cs),
(489,747,ls),
(489,754,o),
(483,759,o),
(477,759,cs),
(476,759,o),
(474,759,o),
(472,758,cs),
(351,701,l),
(297,739,o),
(231,759,o),
(159,759,cs),
(150,759,o),
(144,753,o),
(144,745,cs),
(144,700,ls),
(144,693,o),
(150,686,o),
(157,686,cs),
(198,686,o),
(236,678,o),
(269,663,c),
(188,625,ls),
(182,622,o),
(177,615,o),
(177,608,cs),
(177,568,ls),
(177,561,o),
(183,556,o),
(189,556,cs),
(190,556,o),
(192,556,o),
(194,557,cs),
(332,622,l),
(369,587,o),
(396,541,o),
(409,485,c),
(373,511,o),
(329,526,o),
(282,526,cs),
(162,526,o),
(65,430,o),
(65,308,cs),
(65,205,ls),
(65,84,o),
(162,-13,o),
(282,-13,cs)
);
},
{
closed = 1;
nodes = (
(205,61,o),
(143,123,o),
(143,200,cs),
(143,313,ls),
(143,390,o),
(205,452,o),
(282,452,cs),
(359,452,o),
(421,390,o),
(421,313,cs),
(421,200,ls),
(421,123,o),
(359,61,o),
(282,61,cs)
);
}
);
width = 574;
},
{
hints = (
{
horizontal = 1;
origin = (0,59);
target = (1,13);
type = Stem;
},
{
horizontal = 1;
origin = (1,6);
target = (0,52);
type = Stem;
},
{
horizontal = 1;
origin = (0,24);
target = (0,31);
type = Stem;
},
{
origin = (0,56);
target = (1,2);
type = Stem;
},
{
origin = (1,10);
target = (0,2);
type = Stem;
}
);
layerId = "1D8279CA-6213-4437-A9CB-DE6E86D89D97";
name = Bold;
shapes = (
{
closed = 1;
nodes = (
(425,-14,o),
(531,92,o),
(531,224,cs),
(531,332,ls),
(531,433,o),
(514,516,o),
(484,582,cs),
(470,611,o),
(454,636,o),
(436,658,c),
(497,690,ls),
(503,693,o),
(509,701,o),
(509,709,cs),
(509,751,ls),
(509,762,o),
(503,766,o),
(493,766,cs),
(488,766,o),
(487,765,o),
(485,764,cs),
(380,708,l),
(325,747,o),
(257,766,o),
(177,766,cs),
(165,766,o),
(156,757,o),
(156,745,cs),
(156,679,ls),
(156,670,o),
(161,658,o),
(177,658,cs),
(207,658,o),
(235,653,o),
(260,645,c),
(201,614,ls),
(195,611,o),
(189,603,o),
(189,595,cs),
(189,552,ls),
(189,543,o),
(196,537,o),
(204,537,cs),
(207,537,o),
(209,538,o),
(212,539,c),
(333,603,l),
(361,579,o),
(380,548,o),
(389,512,c),
(362,529,o),
(327,533,o),
(295,533,cs),
(162,533,o),
(57,429,o),
(57,299,cs),
(57,224,ls),
(57,92,o),
(163,-14,o),
(294,-14,cs)
);
},
{
closed = 1;
nodes = (
(228,100,o),
(175,153,o),
(175,219,cs),
(175,304,ls),
(175,370,o),
(228,423,o),
(294,423,cs),
(360,423,o),
(413,370,o),
(413,304,cs),
(413,219,ls),
(413,153,o),
(360,100,o),
(294,100,cs)
);
}
);
width = 599;
}
);
unicode = 240;
},
{
glyphname = e;
kernLeft = o;
kernRight = e;
lastChange = "2024-04-10 10:37:22 +0000";
layers = (
{
anchors = (
{
name = bottom;
pos = (280,0);
},
{
name = ogonek;
pos = (412,0);
},
{
name = top;
pos = (282,566);
}
);
hints = (
{
horizontal = 1;
origin = (0,27);
target = (0,8);
type = Stem;
},
{
horizontal = 1;
origin = (0,12);
target = (1,8);
type = Stem;
},
{
horizontal = 1;
origin = (0,20);
target = (1,3);
type = Stem;
},
{
origin = (0,24);
target = (0,11);
type = Stem;
},
{
origin = (1,7);
target = (0,16);
type = Stem;
}
);
layerId = "DDABD3A5-4A8B-4D55-9B9E-1269DFBEF3A1";
name = Regular;
shapes = (
{
closed = 1;
nodes = (
(427,0,ls),
(435,0,o),
(441,6,o),
(441,14,cs),
(441,60,ls),
(441,68,o),
(435,74,o),
(427,74,cs),
(282,74,ls),
(205,74,o),
(143,136,o),
(143,213,cs),
(143,257,l),
(463,257,ls),
(483,257,o),
(499,273,o),
(499,293,cs),
(499,361,ls),
(499,482,o),
(402,579,o),
(282,579,cs),
(162,579,o),
(65,482,o),
(65,361,cs),
(65,218,ls),
(65,97,o),
(162,0,o),
(282,0,cs)
);
},
{
closed = 1;
nodes = (
(143,366,ls),
(143,443,o),
(205,505,o),
(282,505,cs),
(359,505,o),
(421,443,o),
(421,366,cs),
(421,329,l),
(143,329,l)
);
}
);
width = 557;
},
{
anchors = (
{
name = bottom;
pos = (295,0);
},
{
name = ogonek;
pos = (445,10);
},
{
name = top;
pos = (300,573);
}
);
hints = (
{
horizontal = 1;
origin = (0,27);
target = (0,8);
type = Stem;
},
{
horizontal = 1;
origin = (0,12);
target = (1,8);
type = Stem;
},
{
horizontal = 1;
origin = (0,20);
target = (1,3);
type = Stem;
},
{
origin = (0,24);
target = (0,11);
type = Stem;
},
{
origin = (1,7);
target = (0,16);
type = Stem;
}
);
layerId = "1D8279CA-6213-4437-A9CB-DE6E86D89D97";
name = Bold;
shapes = (
{
closed = 1;
nodes = (
(454,0,ls),
(466,0,o),
(475,9,o),
(475,21,cs),
(475,93,ls),
(475,105,o),
(466,114,o),
(454,114,cs),
(295,114,ls),
(230,114,o),
(177,167,o),
(177,232,cs),
(177,237,l),
(490,237,ls),
(514,237,o),
(533,256,o),
(533,280,cs),
(533,347,ls),
(533,480,o),
(427,586,o),
(295,586,cs),
(163,586,o),
(57,480,o),
(57,347,cs),
(57,239,ls),
(57,106,o),
(163,0,o),
(295,0,cs)
);
},
{
closed = 1;
nodes = (
(177,354,ls),
(177,419,o),
(230,472,o),
(295,472,cs),
(360,472,o),
(413,419,o),
(413,354,cs),
(413,345,l),
(177,345,l)
);
}
);
width = 585;
}
);
unicode = 101;
},
{
glyphname = eogonek;
kernLeft = o;
kernRight = e;
lastChange = "2024-04-10 10:37:22 +0000";
layers = (
{
hints = (
{
horizontal = 1;
origin = (0,48);
target = (0,8);
type = Stem;
},
{
horizontal = 1;
origin = (0,41);
target = (0,22);
type = Stem;
},
{
horizontal = 1;
origin = (0,26);
target = (1,8);
type = Stem;
},
{
horizontal = 1;
origin = (0,34);
target = (1,3);
type = Stem;
},
{
origin = (0,38);
target = (0,25);
type = Stem;
},
{
origin = (0,45);
target = (0,11);
type = Stem;
},
{
origin = (1,7);
target = (0,30);
type = Stem;
}
);
layerId = "DDABD3A5-4A8B-4D55-9B9E-1269DFBEF3A1";
name = Regular;
shapes = (
{
closed = 1;
nodes = (
(431,-197,ls),
(439,-197,o),
(446,-190,o),
(446,-182,cs),
(446,-142,ls),
(446,-134,o),
(439,-127,o),
(431,-127,cs),
(414,-127,ls),
(393,-127,o),
(372,-120,o),
(372,-90,cs),
(372,-58,o),
(397,-32,o),
(428,0,cs),
(436,8,o),
(441,17,o),
(441,28,cs),
(441,60,ls),
(441,68,o),
(435,74,o),
(427,74,cs),
(282,74,ls),
(205,74,o),
(143,136,o),
(143,213,cs),
(143,257,l),
(463,257,ls),
(483,257,o),
(499,273,o),
(499,293,cs),
(499,361,ls),
(499,482,o),
(402,579,o),
(282,579,cs),
(162,579,o),
(65,482,o),
(65,361,cs),
(65,218,ls),
(65,97,o),
(162,0,o),
(282,0,cs),
(360,0,l),
(329,-26,o),
(293,-67,o),
(293,-112,cs),
(293,-165,o),
(343,-197,o),
(401,-197,cs)
);
},
{
closed = 1;
nodes = (
(143,366,ls),
(143,443,o),
(205,505,o),
(282,505,cs),
(359,505,o),
(421,443,o),
(421,366,cs),
(421,329,l),
(143,329,l)
);
}
);
width = 557;
},
{
hints = (
{
horizontal = 1;
origin = (0,48);
target = (0,8);
type = Stem;
},
{
horizontal = 1;
origin = (0,41);
target = (0,22);
type = Stem;
},
{
horizontal = 1;
origin = (0,26);
target = (1,8);
type = Stem;
},
{
horizontal = 1;
origin = (0,34);
target = (1,3);
type = Stem;
},
{
origin = (0,38);
target = (0,25);
type = Stem;
},
{
origin = (1,7);
target = (0,30);
type = Stem;
},
{
origin = (0,45);
target = (0,3);
type = Stem;
}
);
layerId = "1D8279CA-6213-4437-A9CB-DE6E86D89D97";
name = Bold;
shapes = (
{
closed = 1;
nodes = (
(458,-193,ls),
(467,-193,o),
(475,-185,o),
(475,-176,cs),
(475,-119,ls),
(475,-109,o),
(467,-102,o),
(458,-102,cs),
(437,-102,ls),
(410,-102,o),
(389,-88,o),
(389,-63,cs),
(389,-36,o),
(413,-14,o),
(452,-4,cs),
(466,-1,o),
(475,9,o),
(475,22,cs),
(475,93,ls),
(475,105,o),
(466,114,o),
(454,114,cs),
(295,114,ls),
(230,114,o),
(177,167,o),
(177,232,cs),
(177,237,l),
(490,237,ls),
(514,237,o),
(533,256,o),
(533,280,cs),
(533,347,ls),
(533,480,o),
(427,586,o),
(295,586,cs),
(163,586,o),
(57,480,o),
(57,347,cs),
(57,239,ls),
(57,106,o),
(163,0,o),
(295,0,cs),
(355,0,l),
(316,-24,o),
(296,-57,o),
(296,-94,cs),
(296,-157,o),
(356,-193,o),
(423,-193,cs)
);
},
{
closed = 1;
nodes = (
(177,354,ls),
(177,419,o),
(230,472,o),
(295,472,cs),
(360,472,o),
(413,419,o),
(413,354,cs),
(413,345,l),
(177,345,l)
);
}
);
width = 585;
}
);
metricLeft = e;
metricRight = e;
unicode = 281;
},
{
glyphname = f;
kernLeft = f;
kernRight = f;
lastChange = "2024-04-10 10:37:22 +0000";
layers = (
{
anchors = (
{
name = bottom;
pos = (171,0);
},
{
name = top;
pos = (184,759);
}
);
hints = (
{
horizontal = 1;
place = (0,0);
type = Stem;
},
{
horizontal = 1;
origin = (0,13);
target = (0,4);
type = Stem;
},
{
horizontal = 1;
origin = (0,26);
target = (0,17);
type = Stem;
},
{
origin = (0,40);
target = (0,3);
type = Stem;
}
);
layerId = "DDABD3A5-4A8B-4D55-9B9E-1269DFBEF3A1";
name = Regular;
shapes = (
{
closed = 1;
nodes = (
(194,0,ls),
(202,0,o),
(208,6,o),
(208,14,cs),
(208,492,l),
(344,492,ls),
(352,492,o),
(358,498,o),
(358,506,cs),
(358,552,ls),
(358,560,o),
(352,566,o),
(344,566,cs),
(208,566,l),
(208,610,ls),
(208,656,o),
(238,688,o),
(283,688,cs),
(364,688,ls),
(372,688,o),
(378,694,o),
(378,702,cs),
(378,745,ls),
(378,753,o),
(372,759,o),
(364,759,cs),
(284,759,ls),
(184,759,o),
(130,690,o),
(130,606,cs),
(130,566,l),
(54,566,ls),
(46,566,o),
(40,560,o),
(40,552,cs),
(40,506,ls),
(40,498,o),
(46,492,o),
(54,492,cs),
(130,492,l),
(130,14,ls),
(130,6,o),
(136,0,o),
(144,0,cs)
);
}
);
width = 408;
},
{
anchors = (
{
name = bottom;
pos = (195,0);
},
{
name = top;
pos = (195,779);
}
);
hints = (
{
horizontal = 1;
origin = (0,43);
target = up;
type = BottomGhost;
},
{
horizontal = 1;
origin = (0,31);
target = (0,38);
type = Stem;
},
{
horizontal = 1;
origin = (0,26);
target = (0,17);
type = Stem;
},
{
origin = (0,40);
target = (0,3);
type = Stem;
}
);
layerId = "1D8279CA-6213-4437-A9CB-DE6E86D89D97";
name = Bold;
shapes = (
{
closed = 1;
nodes = (
(234,0,ls),
(246,0,o),
(255,9,o),
(255,21,cs),
(255,461,l),
(384,461,ls),
(396,461,o),
(405,470,o),
(405,482,cs),
(405,552,ls),
(405,564,o),
(396,573,o),
(384,573,cs),
(255,573,l),
(255,612,ls),
(255,647,o),
(276,669,o),
(309,669,cs),
(404,669,ls),
(416,669,o),
(425,678,o),
(425,690,cs),
(425,758,ls),
(425,770,o),
(416,779,o),
(404,779,cs),
(310,779,ls),
(206,779,o),
(135,709,o),
(135,605,cs),
(135,573,l),
(56,573,ls),
(44,573,o),
(35,564,o),
(35,552,cs),
(35,482,ls),
(35,470,o),
(44,461,o),
(56,461,cs),
(135,461,l),
(135,21,ls),
(135,9,o),
(144,0,o),
(156,0,cs)
);
}
);
width = 452;
}
);
unicode = 102;
},
{
glyphname = g;
kernLeft = g;
kernRight = g;
lastChange = "2024-04-10 10:50:18 +0000";
layers = (
{
anchors = (
{
name = bottom;
pos = (284,-193);
},
{
name = top;
pos = (275,566);
}
);
hints = (
{
horizontal = 1;
origin = (0,53);
target = (1,17);
type = Stem;
},
{
horizontal = 1;
origin = (0,17);
target = (2,11);
type = Stem;
},
{
horizontal = 1;
origin = (0,32);
target = (0,23);
type = Stem;
},
{
horizontal = 1;
origin = (0,35);
target = (2,5);
type = Stem;
},
{
horizontal = 1;
origin = (0,32);
target = (2,5);
type = Stem;
},
{
origin = (0,50);
target = (1,2);
type = Stem;
},
{
origin = (1,14);
target = (0,2);
type = Stem;
},
{
origin = (0,44);
target = (0,11);
type = Stem;
},
{
origin = (2,8);
target = (0,20);
type = Stem;
},
{
origin = (0,38);
target = (2,2);
type = Stem;
}
);
layerId = "DDABD3A5-4A8B-4D55-9B9E-1269DFBEF3A1";
name = Regular;
shapes = (
{
closed = 1;
nodes = (
(413,-206,o),
(519,-152,o),
(519,-38,cs),
(519,69,o),
(425,80,o),
(353,86,cs),
(261,94,o),
(198,97,o),
(170,112,cs),
(159,118,o),
(150,128,o),
(150,146,cs),
(150,170,o),
(166,193,o),
(196,206,c),
(221,198,o),
(247,193,o),
(275,193,cs),
(389,193,o),
(481,269,o),
(481,386,cs),
(481,427,o),
(470,463,o),
(450,492,c),
(551,492,ls),
(559,492,o),
(565,498,o),
(565,506,cs),
(565,552,ls),
(565,560,o),
(559,566,o),
(551,566,cs),
(353,566,l),
(329,574,o),
(303,579,o),
(275,579,cs),
(161,579,o),
(69,503,o),
(69,386,cs),
(69,322,o),
(97,270,o),
(141,236,c),
(102,211,o),
(76,172,o),
(76,130,cs),
(76,95,o),
(93,74,o),
(124,53,c),
(88,25,o),
(65,-20,o),
(65,-67,cs),
(65,-163,o),
(160,-206,o),
(279,-206,cs)
);
},
{
closed = 1;
nodes = (
(210,-137,o),
(137,-116,o),
(137,-50,cs),
(137,-20,o),
(153,12,o),
(180,32,c),
(190,30,o),
(203,28,o),
(220,26,cs),
(273,19,o),
(313,17,o),
(336,15,cs),
(406,9,o),
(446,4,o),
(446,-46,cs),
(446,-112,o),
(374,-137,o),
(288,-137,cs)
);
},
{
closed = 1;
nodes = (
(195,262,o),
(145,314,o),
(145,386,cs),
(145,458,o),
(195,510,o),
(275,510,cs),
(355,510,o),
(405,458,o),
(405,386,cs),
(405,314,o),
(355,262,o),
(275,262,cs)
);
}
);
width = 585;
},
{
anchors = (
{
name = bottom;
pos = (279,-193);
},
{
name = top;
pos = (279,573);
}
);
hints = (
{
horizontal = 1;
origin = (0,53);
target = (1,17);
type = Stem;
},
{
horizontal = 1;
origin = (1,8);
target = (0,5);
type = Stem;
},
{
horizontal = 1;
origin = (0,17);
target = (2,11);
type = Stem;
},
{
horizontal = 1;
origin = (0,32);
target = (0,23);
type = Stem;
},
{
horizontal = 1;
origin = (2,5);
target = (0,35);
type = Stem;
},
{
horizontal = 1;
origin = (0,32);
target = (2,5);
type = Stem;
},
{
origin = (0,50);
target = (1,2);
type = Stem;
},
{
origin = (1,14);
target = (0,2);
type = Stem;
},
{
origin = (0,44);
target = (0,11);
type = Stem;
},
{
origin = (2,8);
target = (0,20);
type = Stem;
},
{
origin = (0,38);
target = (2,2);
type = Stem;
}
);
layerId = "1D8279CA-6213-4437-A9CB-DE6E86D89D97";
name = Bold;
shapes = (
{
closed = 1;
nodes = (
(424,-207,o),
(540,-153,o),
(540,-27,cs),
(540,89,o),
(440,107,o),
(351,109,cs),
(316,110,o),
(256,110,o),
(225,112,cs),
(190,114,o),
(166,121,o),
(166,149,cs),
(166,166,o),
(175,181,o),
(187,193,c),
(215,183,o),
(245,177,o),
(278,177,cs),
(399,177,o),
(498,257,o),
(498,381,cs),
(498,412,o),
(492,440,o),
(481,465,c),
(559,465,ls),
(571,465,o),
(580,474,o),
(580,486,cs),
(580,552,ls),
(580,564,o),
(571,573,o),
(559,573,cs),
(362,573,l),
(336,582,o),
(308,587,o),
(278,587,cs),
(156,587,o),
(57,506,o),
(57,381,cs),
(57,318,o),
(83,266,o),
(124,231,c),
(86,202,o),
(62,161,o),
(62,114,cs),
(62,82,o),
(73,54,o),
(98,34,c),
(74,9,o),
(60,-21,o),
(60,-61,cs),
(60,-167,o),
(155,-207,o),
(279,-207,cs)
);
},
{
closed = 1;
nodes = (
(225,-104,o),
(174,-94,o),
(174,-39,cs),
(174,-24,o),
(177,-10,o),
(185,3,c),
(209,0,o),
(226,0,o),
(246,0,cs),
(279,0,o),
(311,0,o),
(344,0,cs),
(380,0,o),
(418,-3,o),
(418,-42,cs),
(418,-91,o),
(359,-104,o),
(288,-104,cs)
);
},
{
closed = 1;
nodes = (
(215,282,o),
(176,321,o),
(176,381,cs),
(176,440,o),
(215,482,o),
(278,482,cs),
(342,482,o),
(379,439,o),
(379,381,cs),
(379,322,o),
(342,282,o),
(278,282,cs)
);
}
);
width = 598;
}
);
unicode = 103;
},
{
glyphname = h;
kernLeft = h;
kernRight = h;
lastChange = "2024-04-10 10:37:22 +0000";
layers = (
{
anchors = (
{
name = bottom;
pos = (305,0);
},
{
name = center;
pos = (130,652);
},
{
name = top;
pos = (129,759);
}
);
guides = (
{
angle = 90;
pos = (113,374);
}
);
hints = (
{
horizontal = 1;
origin = (0,37);
target = up;
type = BottomGhost;
},
{
horizontal = 1;
origin = (0,22);
target = (0,7);
type = Stem;
},
{
horizontal = 1;
origin = (0,30);
target = down;
type = TopGhost;
},
{
origin = (0,34);
target = (0,3);
type = Stem;
},
{
origin = (0,11);
target = (0,18);
type = Stem;
}
);
layerId = "DDABD3A5-4A8B-4D55-9B9E-1269DFBEF3A1";
name = Regular;
shapes = (
{
closed = 1;
nodes = (
(154,0,ls),
(162,0,o),
(168,6,o),
(168,14,cs),
(168,341,ls),
(168,446,o),
(230,506,o),
(317,506,cs),
(390,506,o),
(441,462,o),
(441,375,cs),
(441,14,ls),
(441,6,o),
(447,0,o),
(455,0,cs),
(505,0,ls),
(513,0,o),
(519,6,o),
(519,14,cs),
(519,390,ls),
(519,503,o),
(443,579,o),
(329,579,cs),
(261,579,o),
(203,551,o),
(168,496,c),
(168,745,ls),
(168,753,o),
(162,759,o),
(154,759,cs),
(104,759,ls),
(96,759,o),
(90,753,o),
(90,745,cs),
(90,14,ls),
(90,6,o),
(96,0,o),
(104,0,cs)
);
}
);
width = 594;
},
{
anchors = (
{
name = bottom;
pos = (306,0);
},
{
name = center;
pos = (149,656);
},
{
name = top;
pos = (134,766);
}
);
hints = (
{
horizontal = 1;
origin = (0,37);
target = up;
type = BottomGhost;
},
{
horizontal = 1;
origin = (0,22);
target = (0,7);
type = Stem;
},
{
horizontal = 1;
origin = (0,30);
target = down;
type = TopGhost;
},
{
origin = (0,34);
target = (0,3);
type = Stem;
},
{
origin = (0,11);
target = (0,18);
type = Stem;
}
);
layerId = "1D8279CA-6213-4437-A9CB-DE6E86D89D97";
name = Bold;
shapes = (
{
closed = 1;
nodes = (
(177,0,ls),
(189,0,o),
(198,9,o),
(198,21,cs),
(198,327,ls),
(198,416,o),
(247,471,o),
(326,471,cs),
(392,471,o),
(429,431,o),
(429,361,cs),
(429,21,ls),
(429,9,o),
(438,0,o),
(450,0,cs),
(528,0,ls),
(540,0,o),
(549,9,o),
(549,21,cs),
(549,376,ls),
(549,501,o),
(465,586,o),
(340,586,cs),
(287,586,o),
(236,562,o),
(198,524,c),
(198,745,ls),
(198,757,o),
(189,766,o),
(177,766,cs),
(99,766,ls),
(87,766,o),
(78,757,o),
(78,745,cs),
(78,21,ls),
(78,9,o),
(87,0,o),
(99,0,cs)
);
}
);
width = 617;
}
);
unicode = 104;
},
{
glyphname = hbar;
kernRight = h;
lastChange = "2024-04-10 10:37:22 +0000";
layers = (
{
hints = (
{
horizontal = 1;
origin = (0,37);
target = up;
type = BottomGhost;
},
{
horizontal = 1;
origin = (0,22);
target = (0,7);
type = Stem;
},
{
horizontal = 1;
origin = (0,30);
target = (0,22);
type = Stem;
},
{
horizontal = 1;
origin = (0,22);
target = (1,8);
type = Stem;
},
{
origin = (0,34);
target = (0,3);
type = Stem;
},
{
origin = (0,11);
target = (0,18);
type = Stem;
}
);
layerId = "DDABD3A5-4A8B-4D55-9B9E-1269DFBEF3A1";
name = Regular;
shapes = (
{
closed = 1;
nodes = (
(155,0,ls),
(163,0,o),
(170,7,o),
(170,15,cs),
(170,341,ls),
(170,446,o),
(232,506,o),
(319,506,cs),
(392,506,o),
(443,462,o),
(443,375,cs),
(443,14,ls),
(443,6,o),
(449,0,o),
(457,0,cs),
(506,0,ls),
(514,0,o),
(521,7,o),
(521,15,cs),
(521,390,ls),
(521,503,o),
(445,579,o),
(331,579,cs),
(263,579,o),
(205,551,o),
(170,496,c),
(170,744,ls),
(170,752,o),
(163,759,o),
(155,759,cs),
(107,759,ls),
(99,759,o),
(92,752,o),
(92,744,cs),
(92,15,ls),
(92,7,o),
(99,0,o),
(107,0,cs)
);
},
{
closed = 1;
nodes = (
(263,615,ls),
(271,615,o),
(277,621,o),
(277,629,cs),
(277,661,ls),
(277,669,o),
(271,675,o),
(263,675,cs),
(19,675,ls),
(11,675,o),
(5,669,o),
(5,661,cs),
(5,629,ls),
(5,621,o),
(11,615,o),
(19,615,cs)
);
}
);
width = 596;
},
{
hints = (
{
horizontal = 1;
origin = (0,37);
target = up;
type = BottomGhost;
},
{
horizontal = 1;
origin = (0,22);
target = (0,7);
type = Stem;
},
{
horizontal = 1;
origin = (0,30);
target = (1,15);
type = Stem;
},
{
horizontal = 1;
origin = (1,15);
target = (1,8);
type = Stem;
},
{
origin = (0,34);
target = (0,3);
type = Stem;
},
{
origin = (0,11);
target = (0,18);
type = Stem;
}
);
layerId = "1D8279CA-6213-4437-A9CB-DE6E86D89D97";
name = Bold;
shapes = (
{
closed = 1;
nodes = (
(194,0,ls),
(206,0,o),
(215,9,o),
(215,21,cs),
(215,327,ls),
(215,416,o),
(264,471,o),
(343,471,cs),
(409,471,o),
(446,431,o),
(446,361,cs),
(446,21,ls),
(446,9,o),
(455,0,o),
(467,0,cs),
(545,0,ls),
(557,0,o),
(566,9,o),
(566,21,cs),
(566,376,ls),
(566,501,o),
(482,586,o),
(357,586,cs),
(304,586,o),
(253,562,o),
(215,524,c),
(215,745,ls),
(215,757,o),
(206,766,o),
(194,766,cs),
(116,766,ls),
(104,766,o),
(95,757,o),
(95,745,cs),
(95,21,ls),
(95,9,o),
(104,0,o),
(116,0,cs)
);
},
{
closed = 1;
nodes = (
(284,609,ls),
(296,609,o),
(305,618,o),
(305,630,cs),
(305,663,ls),
(305,675,o),
(296,684,o),
(284,684,cs),
(26,684,ls),
(14,684,o),
(5,675,o),
(5,663,cs),
(5,630,ls),
(5,618,o),
(14,609,o),
(26,609,cs)
);
}
);
width = 634;
}
);
unicode = 295;
},
{
glyphname = i;
kernLeft = i;
kernRight = i;
lastChange = "2024-04-10 10:37:22 +0000";
layers = (
{
hints = (
{
horizontal = 1;
origin = (0,25);
target = (0,8);
type = Stem;
},
{
horizontal = 1;
origin = (0,13);
target = (0,20);
type = Stem;
},
{
horizontal = 1;
origin = (1,8);
target = (1,15);
type = Stem;
},
{
origin = (0,22);
target = (0,8);
type = Stem;
}
);
layerId = "DDABD3A5-4A8B-4D55-9B9E-1269DFBEF3A1";
name = Regular;
shapes = (
{
closed = 1;
nodes = (
(344,0,ls),
(352,0,o),
(358,6,o),
(358,14,cs),
(358,60,ls),
(358,68,o),
(352,74,o),
(344,74,cs),
(241,74,l),
(241,530,ls),
(241,550,o),
(225,566,o),
(205,566,cs),
(59,566,ls),
(51,566,o),
(45,560,o),
(45,552,cs),
(45,506,ls),
(45,498,o),
(51,492,o),
(59,492,cs),
(163,492,l),
(163,36,ls),
(163,16,o),
(179,0,o),
(199,0,cs)
);
},
{
closed = 1;
nodes = (
(226,644,ls),
(234,644,o),
(240,650,o),
(240,658,cs),
(240,745,ls),
(240,753,o),
(234,759,o),
(226,759,cs),
(178,759,ls),
(170,759,o),
(164,753,o),
(164,745,cs),
(164,658,ls),
(164,650,o),
(170,644,o),
(178,644,cs)
);
}
);
width = 393;
},
{
hints = (
{
horizontal = 1;
origin = (0,25);
target = (0,8);
type = Stem;
},
{
horizontal = 1;
origin = (0,13);
target = (0,20);
type = Stem;
},
{
horizontal = 1;
origin = (1,15);
target = (1,8);
type = Stem;
},
{
origin = (1,12);
target = (1,3);
type = Stem;
},
{
origin = (0,22);
target = (0,8);
type = Stem;
}
);
layerId = "1D8279CA-6213-4437-A9CB-DE6E86D89D97";
name = Bold;
shapes = (
{
closed = 1;
nodes = (
(343,0,ls),
(355,0,o),
(364,9,o),
(364,21,cs),
(364,93,ls),
(364,105,o),
(355,114,o),
(343,114,cs),
(262,114,l),
(262,523,ls),
(262,551,o),
(240,573,o),
(212,573,cs),
(61,573,ls),
(49,573,o),
(40,564,o),
(40,552,cs),
(40,480,ls),
(40,468,o),
(49,459,o),
(61,459,cs),
(142,459,l),
(142,50,ls),
(142,22,o),
(164,0,o),
(192,0,cs)
);
},
{
closed = 1;
nodes = (
(236,640,ls),
(248,640,o),
(257,649,o),
(257,661,cs),
(257,770,ls),
(257,782,o),
(248,791,o),
(236,791,cs),
(168,791,ls),
(156,791,o),
(147,782,o),
(147,770,cs),
(147,661,ls),
(147,649,o),
(156,640,o),
(168,640,cs)
);
}
);
width = 396;
}
);
unicode = 105;
},
{
glyphname = idotless;
kernLeft = i;
kernRight = i;
lastChange = "2024-04-10 10:37:22 +0000";
layers = (
{
anchors = (
{
name = bottom;
pos = (223,0);
},
{
name = ogonek;
pos = (329,0);
},
{
name = top;
pos = (191,566);
}
);
hints = (
{
horizontal = 1;
place = (0,74);
type = Stem;
},
{
horizontal = 1;
place = (566,-74);
type = Stem;
},
{
place = (162,78);
type = Stem;
}
);
layerId = "DDABD3A5-4A8B-4D55-9B9E-1269DFBEF3A1";
name = Regular;
shapes = (
{
closed = 1;
nodes = (
(344,0,ls),
(352,0,o),
(358,6,o),
(358,14,cs),
(358,60,ls),
(358,68,o),
(352,74,o),
(344,74,cs),
(241,74,l),
(241,530,ls),
(241,550,o),
(225,566,o),
(205,566,cs),
(59,566,ls),
(51,566,o),
(45,560,o),
(45,552,cs),
(45,506,ls),
(45,498,o),
(51,492,o),
(59,492,cs),
(163,492,l),
(163,36,ls),
(163,16,o),
(179,0,o),
(199,0,cs)
);
}
);
width = 393;
},
{
anchors = (
{
name = bottom;
pos = (195,0);
},
{
name = ogonek;
pos = (363,10);
},
{
name = top;
pos = (195,573);
}
);
hints = (
{
horizontal = 1;
origin = (0,25);
target = (0,8);
type = Stem;
},
{
horizontal = 1;
origin = (0,13);
target = (0,20);
type = Stem;
},
{
origin = (0,22);
target = (0,8);
type = Stem;
}
);
layerId = "1D8279CA-6213-4437-A9CB-DE6E86D89D97";
name = Bold;
shapes = (
{
closed = 1;
nodes = (
(343,0,ls),
(355,0,o),
(364,9,o),
(364,21,cs),
(364,93,ls),
(364,105,o),
(355,114,o),
(343,114,cs),
(262,114,l),
(262,523,ls),
(262,551,o),
(240,573,o),
(212,573,cs),
(61,573,ls),
(49,573,o),
(40,564,o),
(40,552,cs),
(40,480,ls),
(40,468,o),
(49,459,o),
(61,459,cs),
(142,459,l),
(142,50,ls),
(142,22,o),
(164,0,o),
(192,0,cs)
);
}
);
width = 396;
}
);
unicode = 305;
},
{
glyphname = iogonek;
kernLeft = i;
kernRight = i;
lastChange = "2024-04-10 10:37:22 +0000";
layers = (
{
hints = (
{
horizontal = 1;
origin = (0,46);
target = (0,8);
type = Stem;
},
{
horizontal = 1;
origin = (0,39);
target = (0,22);
type = Stem;
},
{
horizontal = 1;
origin = (0,27);
target = (0,34);
type = Stem;
},
{
horizontal = 1;
origin = (1,15);
target = (1,8);
type = Stem;
},
{
origin = (1,12);
target = (1,3);
type = Stem;
},
{
origin = (0,43);
target = (0,11);
type = Stem;
},
{
origin = (0,36);
target = (0,22);
type = Stem;
}
);
layerId = "DDABD3A5-4A8B-4D55-9B9E-1269DFBEF3A1";
name = Regular;
shapes = (
{
closed = 1;
nodes = (
(348,-197,ls),
(356,-197,o),
(363,-190,o),
(363,-182,cs),
(363,-142,ls),
(363,-134,o),
(356,-127,o),
(348,-127,cs),
(331,-127,ls),
(310,-127,o),
(289,-120,o),
(289,-90,cs),
(289,-58,o),
(314,-32,o),
(345,0,cs),
(353,8,o),
(358,17,o),
(358,28,cs),
(358,60,ls),
(358,68,o),
(352,74,o),
(344,74,cs),
(241,74,l),
(241,530,ls),
(241,550,o),
(225,566,o),
(205,566,cs),
(59,566,ls),
(51,566,o),
(45,560,o),
(45,552,cs),
(45,506,ls),
(45,498,o),
(51,492,o),
(59,492,cs),
(163,492,l),
(163,36,ls),
(163,16,o),
(179,0,o),
(199,0,cs),
(277,0,l),
(246,-26,o),
(210,-67,o),
(210,-112,cs),
(210,-165,o),
(260,-197,o),
(318,-197,cs)
);
},
{
closed = 1;
nodes = (
(223,664,ls),
(231,664,o),
(237,670,o),
(237,678,cs),
(237,765,ls),
(237,773,o),
(231,779,o),
(223,779,cs),
(175,779,ls),
(167,779,o),
(161,773,o),
(161,765,cs),
(161,678,ls),
(161,670,o),
(167,664,o),
(175,664,cs)
);
}
);
width = 393;
},
{
hints = (
{
horizontal = 1;
origin = (0,46);
target = (0,8);
type = Stem;
},
{
horizontal = 1;
origin = (0,39);
target = (0,22);
type = Stem;
},
{
horizontal = 1;
origin = (0,27);
target = (0,34);
type = Stem;
},
{
horizontal = 1;
origin = (1,15);
target = (1,8);
type = Stem;
},
{
origin = (1,12);
target = (1,3);
type = Stem;
},
{
origin = (0,43);
target = (0,3);
type = Stem;
},
{
origin = (0,36);
target = (0,22);
type = Stem;
}
);
layerId = "1D8279CA-6213-4437-A9CB-DE6E86D89D97";
name = Bold;
shapes = (
{
closed = 1;
nodes = (
(347,-193,ls),
(356,-193,o),
(364,-185,o),
(364,-176,cs),
(364,-119,ls),
(364,-109,o),
(356,-102,o),
(347,-102,cs),
(326,-102,ls),
(299,-102,o),
(278,-88,o),
(278,-63,cs),
(278,-36,o),
(302,-14,o),
(341,-4,cs),
(355,-1,o),
(364,9,o),
(364,22,cs),
(364,93,ls),
(364,105,o),
(355,114,o),
(343,114,cs),
(262,114,l),
(262,523,ls),
(262,551,o),
(240,573,o),
(212,573,cs),
(61,573,ls),
(49,573,o),
(40,564,o),
(40,552,cs),
(40,480,ls),
(40,468,o),
(49,459,o),
(61,459,cs),
(142,459,l),
(142,50,ls),
(142,22,o),
(164,0,o),
(192,0,cs),
(244,0,l),
(205,-24,o),
(185,-57,o),
(185,-94,cs),
(185,-157,o),
(245,-193,o),
(312,-193,cs)
);
},
{
closed = 1;
nodes = (
(233,640,ls),
(245,640,o),
(254,649,o),
(254,661,cs),
(254,770,ls),
(254,782,o),
(245,791,o),
(233,791,cs),
(165,791,ls),
(153,791,o),
(144,782,o),
(144,770,cs),
(144,661,ls),
(144,649,o),
(153,640,o),
(165,640,cs)
);
}
);
width = 396;
}
);
unicode = 303;
},
{
glyphname = j;
kernLeft = j;
kernRight = j;
lastChange = "2024-04-10 11:02:05 +0000";
layers = (
{
guides = (
{
angle = 90;
pos = (31,-135);
}
);
hints = (
{
horizontal = 1;
origin = (0,28);
target = (0,21);
type = Stem;
},
{
horizontal = 1;
origin = (0,8);
target = (0,15);
type = Stem;
},
{
horizontal = 1;
origin = (1,15);
target = (1,8);
type = Stem;
},
{
origin = (0,17);
target = (0,3);
type = Stem;
}
);
layerId = "DDABD3A5-4A8B-4D55-9B9E-1269DFBEF3A1";
name = Regular;
shapes = (
{
closed = 1;
nodes = (
(116,-193,ls),
(206,-193,o),
(260,-124,o),
(260,-43,cs),
(260,530,ls),
(260,550,o),
(244,566,o),
(224,566,cs),
(49,566,ls),
(41,566,o),
(35,560,o),
(35,552,cs),
(35,506,ls),
(35,498,o),
(41,492,o),
(49,492,cs),
(182,492,l),
(182,-43,ls),
(182,-90,o),
(152,-121,o),
(107,-121,cs),
(49,-121,ls),
(41,-121,o),
(35,-127,o),
(35,-135,cs),
(35,-179,ls),
(35,-187,o),
(41,-193,o),
(49,-193,cs)
);
},
{
closed = 1;
nodes = (
(245,664,ls),
(253,664,o),
(259,670,o),
(259,678,cs),
(259,765,ls),
(259,773,o),
(253,779,o),
(245,779,cs),
(197,779,ls),
(189,779,o),
(183,773,o),
(183,765,cs),
(183,678,ls),
(183,670,o),
(189,664,o),
(197,664,cs)
);
}
);
width = 355;
},
{
hints = (
{
horizontal = 1;
origin = (0,28);
target = (0,21);
type = Stem;
},
{
horizontal = 1;
origin = (0,8);
target = (0,15);
type = Stem;
},
{
horizontal = 1;
origin = (1,12);
target = (1,8);
type = Stem;
},
{
origin = (1,12);
target = (1,3);
type = Stem;
},
{
origin = (0,17);
target = (0,3);
type = Stem;
}
);
layerId = "1D8279CA-6213-4437-A9CB-DE6E86D89D97";
name = Bold;
shapes = (
{
closed = 1;
nodes = (
(133,-193,ls),
(229,-193,o),
(298,-121,o),
(298,-22,cs),
(298,523,ls),
(298,551,o),
(276,573,o),
(248,573,cs),
(52,573,ls),
(40,573,o),
(31,564,o),
(31,552,cs),
(31,478,ls),
(31,466,o),
(40,457,o),
(52,457,cs),
(178,457,l),
(178,-22,ls),
(178,-57,o),
(157,-79,o),
(124,-79,cs),
(52,-79,ls),
(40,-79,o),
(31,-88,o),
(31,-100,cs),
(31,-172,ls),
(31,-184,o),
(40,-193,o),
(52,-193,cs)
);
},
{
closed = 1;
nodes = (
(273,640,ls),
(285,640,o),
(294,649,o),
(294,661,cs),
(294,770,ls),
(294,782,o),
(285,791,o),
(273,791,cs),
(205,791,ls),
(193,791,o),
(184,782,o),
(184,770,cs),
(184,661,ls),
(184,649,o),
(193,640,o),
(205,640,cs)
);
}
);
width = 384;
}
);
unicode = 106;
},
{
glyphname = jdotless;
kernLeft = j;
kernRight = j;
lastChange = "2024-04-10 12:02:31 +0000";
layers = (
{
anchors = (
{
name = top;
pos = (184,586);
}
);
guides = (
{
angle = 90;
pos = (31,-135);
}
);
hints = (
{
horizontal = 1;
origin = (0,28);
target = (0,21);
type = Stem;
},
{
horizontal = 1;
origin = (0,8);
target = (0,15);
type = Stem;
},
{
horizontal = 1;
origin = (0,7);
place = (566,115);
type = Stem;
},
{
origin = (0,17);
target = (0,3);
type = Stem;
}
);
layerId = "DDABD3A5-4A8B-4D55-9B9E-1269DFBEF3A1";
name = Regular;
shapes = (
{
closed = 1;
nodes = (
(116,-193,ls),
(206,-193,o),
(260,-124,o),
(260,-43,cs),
(260,530,ls),
(260,550,o),
(244,566,o),
(224,566,cs),
(49,566,ls),
(41,566,o),
(35,560,o),
(35,552,cs),
(35,506,ls),
(35,498,o),
(41,492,o),
(49,492,cs),
(182,492,l),
(182,-43,ls),
(182,-90,o),
(152,-121,o),
(107,-121,cs),
(49,-121,ls),
(41,-121,o),
(35,-127,o),
(35,-135,cs),
(35,-179,ls),
(35,-187,o),
(41,-193,o),
(49,-193,cs)
);
}
);
width = 355;
},
{
anchors = (
{
name = top;
pos = (184,586);
}
);
hints = (
{
horizontal = 1;
origin = (0,28);
target = (0,21);
type = Stem;
},
{
horizontal = 1;
origin = (0,8);
target = (0,15);
type = Stem;
},
{
horizontal = 1;
origin = (0,7);
place = (573,130);
type = Stem;
},
{
origin = (0,16);
target = (0,4);
type = Stem;
},
{
origin = (0,17);
target = (0,3);
type = Stem;
}
);
layerId = "1D8279CA-6213-4437-A9CB-DE6E86D89D97";
name = Bold;
shapes = (
{
closed = 1;
nodes = (
(133,-193,ls),
(229,-193,o),
(298,-121,o),
(298,-22,cs),
(298,523,ls),
(298,551,o),
(276,573,o),
(248,573,cs),
(52,573,ls),
(40,573,o),
(31,564,o),
(31,552,cs),
(31,478,ls),
(31,466,o),
(40,457,o),
(52,457,cs),
(178,457,l),
(178,-22,ls),
(178,-57,o),
(157,-79,o),
(124,-79,cs),
(52,-79,ls),
(40,-79,o),
(31,-88,o),
(31,-100,cs),
(31,-172,ls),
(31,-184,o),
(40,-193,o),
(52,-193,cs)
);
}
);
width = 384;
}
);
unicode = 567;
},
{
glyphname = k;
kernLeft = h;
kernRight = k;
lastChange = "2024-04-10 10:37:22 +0000";
layers = (
{
anchors = (
{
name = bottom;
pos = (293,0);
},
{
name = top;
pos = (280,566);
}
);
hints = (
{
horizontal = 1;
origin = (0,42);
target = up;
type = BottomGhost;
},
{
horizontal = 1;
origin = (0,4);
target = (0,30);
type = Stem;
},
{
horizontal = 1;
origin = (0,25);
target = down;
type = TopGhost;
},
{
horizontal = 1;
origin = (0,35);
target = down;
type = TopGhost;
},
{
origin = (0,39);
target = (0,3);
type = Stem;
}
);
layerId = "DDABD3A5-4A8B-4D55-9B9E-1269DFBEF3A1";
name = Regular;
shapes = (
{
closed = 1;
nodes = (
(153,0,ls),
(161,0,o),
(168,5,o),
(168,13,cs),
(168,272,l),
(209,272,l),
(418,9,ls),
(423,3,o),
(428,0,o),
(435,0,cs),
(500,0,ls),
(508,0,o),
(512,6,o),
(512,12,cs),
(512,15,o),
(511,17,o),
(509,20,cs),
(275,312,l),
(497,544,ls),
(500,547,o),
(501,550,o),
(501,554,cs),
(501,560,o),
(496,566,o),
(488,566,cs),
(423,566,ls),
(416,566,o),
(411,563,o),
(406,557,cs),
(209,346,l),
(168,346,l),
(168,745,ls),
(168,753,o),
(162,759,o),
(154,759,cs),
(104,759,ls),
(96,759,o),
(90,753,o),
(90,745,cs),
(90,13,ls),
(90,5,o),
(97,0,o),
(105,0,cs)
);
}
);
width = 537;
},
{
anchors = (
{
name = bottom;
pos = (287,0);
},
{
name = top;
pos = (140,766);
}
);
hints = (
{
horizontal = 1;
origin = (0,42);
target = up;
type = BottomGhost;
},
{
horizontal = 1;
origin = (0,4);
target = (0,30);
type = Stem;
},
{
horizontal = 1;
origin = (0,25);
target = down;
type = TopGhost;
},
{
horizontal = 1;
origin = (0,35);
target = down;
type = TopGhost;
},
{
origin = (0,39);
target = (0,3);
type = Stem;
}
);
layerId = "1D8279CA-6213-4437-A9CB-DE6E86D89D97";
name = Bold;
shapes = (
{
closed = 1;
nodes = (
(177,0,ls),
(189,0,o),
(198,9,o),
(198,21,cs),
(198,257,l),
(231,257,l),
(423,15,ls),
(430,6,o),
(442,0,o),
(454,0,cs),
(543,0,ls),
(555,0,o),
(562,8,o),
(562,18,cs),
(562,22,o),
(560,27,o),
(557,31,cs),
(329,315,l),
(544,539,ls),
(548,544,o),
(550,549,o),
(550,554,cs),
(550,564,o),
(542,573,o),
(529,573,cs),
(438,573,ls),
(428,573,o),
(418,569,o),
(411,561,cs),
(232,369,l),
(198,369,l),
(198,745,ls),
(198,757,o),
(189,766,o),
(177,766,cs),
(99,766,ls),
(87,766,o),
(78,757,o),
(78,745,cs),
(78,21,ls),
(78,9,o),
(87,0,o),
(99,0,cs)
);
}
);
width = 585;
}
);
unicode = 107;
},
{
glyphname = l;
kernLeft = l;
kernRight = l;
lastChange = "2024-04-10 10:37:22 +0000";
layers = (
{
anchors = (
{
name = bottom;
pos = (224,0);
},
{
name = center;
pos = (161,395);
},
{
name = top;
pos = (167,759);
},
{
name = topright;
pos = (322,695);
}
);
hints = (
{
horizontal = 1;
origin = (0,25);
target = (0,8);
type = Stem;
},
{
horizontal = 1;
origin = (0,13);
target = (0,20);
type = Stem;
},
{
origin = (0,22);
target = (0,8);
type = Stem;
}
);
layerId = "DDABD3A5-4A8B-4D55-9B9E-1269DFBEF3A1";
name = Regular;
shapes = (
{
closed = 1;
nodes = (
(306,0,ls),
(314,0,o),
(320,6,o),
(320,14,cs),
(320,60,ls),
(320,68,o),
(314,74,o),
(306,74,cs),
(200,74,l),
(200,723,ls),
(200,743,o),
(184,759,o),
(164,759,cs),
(29,759,ls),
(21,759,o),
(15,753,o),
(15,745,cs),
(15,699,ls),
(15,691,o),
(21,685,o),
(29,685,cs),
(122,685,l),
(122,36,ls),
(122,16,o),
(138,0,o),
(158,0,cs)
);
}
);
width = 350;
},
{
anchors = (
{
name = bottom;
pos = (214,0);
},
{
name = center;
pos = (194,393);
},
{
name = top;
pos = (184,766);
},
{
name = topright;
pos = (363,573);
}
);
hints = (
{
horizontal = 1;
origin = (0,25);
target = (0,8);
type = Stem;
},
{
horizontal = 1;
origin = (0,13);
target = (0,20);
type = Stem;
},
{
origin = (0,22);
target = (0,8);
type = Stem;
}
);
layerId = "1D8279CA-6213-4437-A9CB-DE6E86D89D97";
name = Bold;
shapes = (
{
closed = 1;
nodes = (
(337,0,ls),
(349,0,o),
(358,9,o),
(358,21,cs),
(358,95,ls),
(358,107,o),
(349,116,o),
(337,116,cs),
(246,116,l),
(246,723,ls),
(246,747,o),
(227,766,o),
(203,766,cs),
(35,766,ls),
(23,766,o),
(14,757,o),
(14,745,cs),
(14,671,ls),
(14,659,o),
(23,650,o),
(35,650,cs),
(126,650,l),
(126,43,ls),
(126,19,o),
(145,0,o),
(169,0,cs)
);
}
);
width = 385;
}
);
unicode = 108;
},
{
glyphname = lcaron;
kernLeft = l;
lastChange = "2024-04-10 11:02:27 +0000";
layers = (
{
background = {
shapes = (
{
closed = 1;
nodes = (
(311,631,ls),
(324,631,o),
(331,636,o),
(337,643,cs),
(418,736,ls),
(426,745,o),
(421,759,o),
(408,759,cs),
(341,759,ls),
(326,759,o),
(317,750,o),
(313,740,cs),
(276,650,ls),
(272,640,o),
(276,631,o),
(287,631,cs)
);
}
);
};
hints = (
{
horizontal = 1;
origin = (0,25);
target = (0,8);
type = Stem;
},
{
horizontal = 1;
origin = (0,13);
target = (0,20);
type = Stem;
},
{
origin = (0,22);
target = (0,8);
type = Stem;
}
);
layerId = "DDABD3A5-4A8B-4D55-9B9E-1269DFBEF3A1";
name = Regular;
shapes = (
{
closed = 1;
nodes = (
(306,0,ls),
(314,0,o),
(320,6,o),
(320,14,cs),
(320,60,ls),
(320,68,o),
(314,74,o),
(306,74,cs),
(200,74,l),
(200,723,ls),
(200,743,o),
(184,759,o),
(164,759,cs),
(29,759,ls),
(21,759,o),
(15,753,o),
(15,745,cs),
(15,699,ls),
(15,691,o),
(21,685,o),
(29,685,cs),
(122,685,l),
(122,36,ls),
(122,16,o),
(138,0,o),
(158,0,cs)
);
},
{
pos = (7,0);
ref = acutecomb;
}
);
width = 362;
},
{
background = {
shapes = (
{
closed = 1;
nodes = (
(367,636,ls),
(374,636,o),
(382,638,o),
(388,644,cs),
(491,740,ls),
(494,743,o),
(496,748,o),
(496,751,cs),
(496,759,o),
(490,766,o),
(481,766,cs),
(373,766,ls),
(365,766,o),
(356,761,o),
(353,753,cs),
(308,656,ls),
(303,645,o),
(310,636,o),
(321,636,cs)
);
}
);
};
hints = (
{
horizontal = 1;
origin = (0,25);
target = (0,8);
type = Stem;
},
{
horizontal = 1;
origin = (0,13);
target = (0,20);
type = Stem;
},
{
horizontal = 1;
origin = (0,13);
target = (0,21);
type = Stem;
},
{
origin = (0,22);
target = (0,8);
type = Stem;
}
);
layerId = "1D8279CA-6213-4437-A9CB-DE6E86D89D97";
name = Bold;
shapes = (
{
closed = 1;
nodes = (
(337,0,ls),
(349,0,o),
(358,9,o),
(358,21,cs),
(358,95,ls),
(358,107,o),
(349,116,o),
(337,116,cs),
(246,116,l),
(246,723,ls),
(246,747,o),
(227,766,o),
(203,766,cs),
(35,766,ls),
(23,766,o),
(14,757,o),
(14,745,cs),
(14,671,ls),
(14,659,o),
(23,650,o),
(35,650,cs),
(126,650,l),
(126,43,ls),
(126,19,o),
(145,0,o),
(169,0,cs)
);
},
{
pos = (98,0);
ref = acutecomb;
}
);
width = 463;
}
);
metricLeft = l;
unicode = 318;
},
{
glyphname = lslash;
lastChange = "2024-04-10 10:37:22 +0000";
layers = (
{
hints = (
{
horizontal = 1;
origin = (0,25);
target = (0,8);
type = Stem;
},
{
horizontal = 1;
origin = (1,10);
target = down;
type = TopGhost;
},
{
horizontal = 1;
origin = (0,13);
target = (0,20);
type = Stem;
},
{
origin = (0,22);
target = (0,8);
type = Stem;
}
);
layerId = "DDABD3A5-4A8B-4D55-9B9E-1269DFBEF3A1";
name = Regular;
shapes = (
{
closed = 1;
nodes = (
(336,0,ls),
(344,0,o),
(350,6,o),
(350,14,cs),
(350,60,ls),
(350,68,o),
(344,74,o),
(336,74,cs),
(230,74,l),
(230,723,ls),
(230,743,o),
(214,759,o),
(194,759,cs),
(59,759,ls),
(51,759,o),
(45,753,o),
(45,745,cs),
(45,699,ls),
(45,691,o),
(51,685,o),
(59,685,cs),
(152,685,l),
(152,36,ls),
(152,16,o),
(168,0,o),
(188,0,cs)
);
},
{
closed = 1;
nodes = (
(62,231,o),
(65,233,o),
(68,235,cs),
(344,490,ls),
(348,494,o),
(350,498,o),
(350,503,cs),
(350,554,ls),
(350,563,o),
(344,569,o),
(337,569,cs),
(333,569,o),
(330,567,o),
(327,565,cs),
(51,310,ls),
(47,306,o),
(45,302,o),
(45,297,cs),
(45,246,ls),
(45,237,o),
(51,231,o),
(58,231,cs)
);
}
);
width = 395;
},
{
hints = (
{
horizontal = 1;
origin = (0,25);
target = (0,8);
type = Stem;
},
{
horizontal = 1;
origin = (1,10);
target = down;
type = TopGhost;
},
{
horizontal = 1;
origin = (0,13);
target = (0,20);
type = Stem;
},
{
origin = (0,22);
target = (0,8);
type = Stem;
},
{
horizontal = 1;
origin = (1,21);
target = up;
type = BottomGhost;
}
);
layerId = "1D8279CA-6213-4437-A9CB-DE6E86D89D97";
name = Bold;
shapes = (
{
closed = 1;
nodes = (
(337,0,ls),
(349,0,o),
(358,9,o),
(358,21,cs),
(358,95,ls),
(358,107,o),
(349,116,o),
(337,116,cs),
(246,116,l),
(246,723,ls),
(246,747,o),
(227,766,o),
(203,766,cs),
(35,766,ls),
(23,766,o),
(14,757,o),
(14,745,cs),
(14,671,ls),
(14,659,o),
(23,650,o),
(35,650,cs),
(126,650,l),
(126,43,ls),
(126,19,o),
(145,0,o),
(169,0,cs)
);
},
{
closed = 1;
nodes = (
(45,197,o),
(50,199,o),
(54,203,cs),
(356,465,ls),
(362,471,o),
(366,479,o),
(366,488,cs),
(365,562,ls),
(365,574,o),
(356,582,o),
(347,582,cs),
(342,582,o),
(337,580,o),
(333,576,cs),
(31,314,ls),
(25,308,o),
(21,300,o),
(21,291,cs),
(22,217,ls),
(22,205,o),
(31,197,o),
(40,197,cs)
);
}
);
width = 385;
}
);
unicode = 322;
},
{
glyphname = m;
kernLeft = n;
kernRight = n;
lastChange = "2024-04-10 10:37:22 +0000";
layers = (
{
anchors = (
{
name = bottom;
pos = (472,0);
},
{
name = top;
pos = (486,566);
}
);
hints = (
{
horizontal = 1;
origin = (0,58);
target = up;
type = BottomGhost;
},
{
horizontal = 1;
origin = (0,37);
target = (0,22);
type = Stem;
},
{
horizontal = 1;
origin = (0,43);
target = (0,7);
type = Stem;
},
{
horizontal = 1;
origin = (0,51);
target = down;
type = TopGhost;
},
{
origin = (0,55);
target = (0,3);
type = Stem;
},
{
origin = (0,11);
target = (0,18);
type = Stem;
},
{
origin = (0,26);
target = (0,33);
type = Stem;
}
);
layerId = "DDABD3A5-4A8B-4D55-9B9E-1269DFBEF3A1";
name = Regular;
shapes = (
{
closed = 1;
nodes = (
(154,0,ls),
(162,0,o),
(168,6,o),
(168,14,cs),
(168,341,ls),
(168,446,o),
(226,506,o),
(307,506,cs),
(380,506,o),
(431,462,o),
(431,375,cs),
(431,14,ls),
(431,6,o),
(437,0,o),
(445,0,cs),
(495,0,ls),
(503,0,o),
(509,6,o),
(509,14,cs),
(509,340,ls),
(509,445,o),
(567,505,o),
(648,505,cs),
(721,505,o),
(772,461,o),
(772,374,cs),
(772,14,ls),
(772,6,o),
(778,0,o),
(786,0,cs),
(836,0,ls),
(844,0,o),
(850,6,o),
(850,14,cs),
(850,389,ls),
(850,502,o),
(774,578,o),
(660,578,cs),
(587,578,o),
(524,541,o),
(495,469,c),
(468,537,o),
(404,579,o),
(319,579,cs),
(256,579,o),
(201,552,o),
(168,498,c),
(168,552,ls),
(168,560,o),
(162,566,o),
(154,566,cs),
(104,566,ls),
(96,566,o),
(90,560,o),
(90,552,cs),
(90,14,ls),
(90,6,o),
(96,0,o),
(104,0,cs)
);
}
);
width = 925;
},
{
anchors = (
{
name = bottom;
pos = (477,0);
},
{
name = top;
pos = (477,573);
}
);
guides = (
{
angle = 90;
pos = (873,396);
},
{
angle = 90;
pos = (532,21);
}
);
hints = (
{
horizontal = 1;
origin = (0,58);
target = up;
type = BottomGhost;
},
{
horizontal = 1;
origin = (0,43);
target = (0,7);
type = Stem;
},
{
horizontal = 1;
origin = (0,51);
target = down;
type = TopGhost;
},
{
origin = (0,55);
target = (0,3);
type = Stem;
},
{
origin = (0,11);
target = (0,18);
type = Stem;
},
{
origin = (0,26);
target = (0,33);
type = Stem;
}
);
layerId = "1D8279CA-6213-4437-A9CB-DE6E86D89D97";
name = Bold;
shapes = (
{
closed = 1;
nodes = (
(177,0,ls),
(189,0,o),
(198,9,o),
(198,21,cs),
(198,327,ls),
(198,416,o),
(247,471,o),
(326,471,cs),
(386,471,o),
(419,432,o),
(419,361,cs),
(419,21,ls),
(419,9,o),
(428,0,o),
(440,0,cs),
(518,0,ls),
(530,0,o),
(539,9,o),
(539,21,cs),
(539,327,ls),
(539,416,o),
(588,471,o),
(667,471,cs),
(727,471,o),
(760,432,o),
(760,361,cs),
(760,21,ls),
(760,9,o),
(769,0,o),
(781,0,cs),
(859,0,ls),
(871,0,o),
(880,9,o),
(880,21,cs),
(880,376,ls),
(880,501,o),
(808,586,o),
(691,586,cs),
(619,586,o),
(553,549,o),
(515,486,c),
(482,550,o),
(423,586,o),
(350,586,cs),
(292,586,o),
(238,558,o),
(198,500,c),
(198,552,ls),
(198,564,o),
(189,573,o),
(177,573,cs),
(99,573,ls),
(87,573,o),
(78,564,o),
(78,552,cs),
(78,21,ls),
(78,9,o),
(87,0,o),
(99,0,cs)
);
}
);
width = 948;
}
);
unicode = 109;
},
{
glyphname = n;
kernLeft = n;
kernRight = n;
lastChange = "2024-04-10 10:37:22 +0000";
layers = (
{
anchors = (
{
name = bottom;
pos = (304,0);
},
{
name = top;
pos = (305,566);
}
);
hints = (
{
horizontal = 1;
origin = (0,30);
target = down;
type = TopGhost;
},
{
horizontal = 1;
origin = (0,7);
target = (0,22);
type = Stem;
},
{
origin = (0,34);
target = (0,3);
type = Stem;
},
{
origin = (0,11);
target = (0,18);
type = Stem;
}
);
layerId = "DDABD3A5-4A8B-4D55-9B9E-1269DFBEF3A1";
name = Regular;
shapes = (
{
closed = 1;
nodes = (
(154,1,ls),
(162,1,o),
(168,7,o),
(168,15,cs),
(168,342,ls),
(168,447,o),
(230,507,o),
(317,507,cs),
(390,507,o),
(441,463,o),
(441,376,cs),
(441,15,ls),
(441,7,o),
(447,1,o),
(455,1,cs),
(505,1,ls),
(513,1,o),
(519,7,o),
(519,15,cs),
(519,391,ls),
(519,504,o),
(443,580,o),
(329,580,cs),
(261,580,o),
(203,552,o),
(168,497,c),
(168,552,ls),
(168,560,o),
(162,566,o),
(154,566,cs),
(104,566,ls),
(96,566,o),
(90,560,o),
(90,552,cs),
(90,15,ls),
(90,7,o),
(96,1,o),
(104,1,cs)
);
}
);
width = 594;
},
{
anchors = (
{
name = bottom;
pos = (311,0);
},
{
name = top;
pos = (314,573);
}
);
hints = (
{
horizontal = 1;
origin = (0,37);
target = up;
type = BottomGhost;
},
{
horizontal = 1;
origin = (0,22);
target = (0,7);
type = Stem;
},
{
horizontal = 1;
origin = (0,30);
target = down;
type = TopGhost;
},
{
origin = (0,34);
target = (0,3);
type = Stem;
},
{
origin = (0,11);
target = (0,18);
type = Stem;
}
);
layerId = "1D8279CA-6213-4437-A9CB-DE6E86D89D97";
name = Bold;
shapes = (
{
closed = 1;
nodes = (
(177,0,ls),
(189,0,o),
(198,9,o),
(198,21,cs),
(198,327,ls),
(198,416,o),
(247,471,o),
(326,471,cs),
(392,471,o),
(429,431,o),
(429,361,cs),
(429,21,ls),
(429,9,o),
(438,0,o),
(450,0,cs),
(528,0,ls),
(540,0,o),
(549,9,o),
(549,21,cs),
(549,376,ls),
(549,498,o),
(465,586,o),
(349,586,cs),
(285,586,o),
(234,554,o),
(198,505,c),
(198,552,ls),
(198,564,o),
(189,573,o),
(177,573,cs),
(99,573,ls),
(87,573,o),
(78,564,o),
(78,552,cs),
(78,21,ls),
(78,9,o),
(87,0,o),
(99,0,cs)
);
}
);
width = 617;
}
);
unicode = 110;
},
{
glyphname = eng;
kernLeft = n;
kernRight = j;
lastChange = "2024-04-10 10:37:22 +0000";
layers = (
{
hints = (
{
horizontal = 1;
origin = (0,45);
target = (0,38);
type = Stem;
},
{
horizontal = 1;
origin = (0,15);
target = down;
type = TopGhost;
},
{
horizontal = 1;
origin = (0,30);
target = (0,7);
type = Stem;
},
{
origin = (0,19);
target = (0,26);
type = Stem;
},
{
origin = (0,34);
target = (0,3);
type = Stem;
}
);
layerId = "DDABD3A5-4A8B-4D55-9B9E-1269DFBEF3A1";
name = Regular;
shapes = (
{
closed = 1;
nodes = (
(375,-193,ls),
(465,-193,o),
(519,-124,o),
(519,-43,cs),
(519,391,ls),
(519,504,o),
(443,580,o),
(329,580,cs),
(261,580,o),
(203,552,o),
(168,497,c),
(168,552,ls),
(168,560,o),
(162,566,o),
(154,566,cs),
(104,566,ls),
(96,566,o),
(90,560,o),
(90,552,cs),
(90,15,ls),
(90,7,o),
(96,1,o),
(104,1,cs),
(154,1,ls),
(162,1,o),
(168,7,o),
(168,15,cs),
(168,342,ls),
(168,447,o),
(230,507,o),
(317,507,cs),
(390,507,o),
(441,463,o),
(441,376,cs),
(441,-43,ls),
(441,-90,o),
(411,-121,o),
(366,-121,cs),
(308,-121,ls),
(300,-121,o),
(294,-127,o),
(294,-135,cs),
(294,-179,ls),
(294,-187,o),
(300,-193,o),
(308,-193,cs)
);
}
);
width = 604;
},
{
hints = (
{
horizontal = 1;
origin = (0,45);
target = (0,38);
type = Stem;
},
{
horizontal = 1;
origin = (0,22);
target = up;
type = BottomGhost;
},
{
horizontal = 1;
origin = (0,7);
target = (0,30);
type = Stem;
},
{
horizontal = 1;
origin = (0,15);
target = down;
type = TopGhost;
},
{
origin = (0,19);
target = (0,26);
type = Stem;
},
{
origin = (0,34);
target = (0,3);
type = Stem;
}
);
layerId = "1D8279CA-6213-4437-A9CB-DE6E86D89D97";
name = Bold;
shapes = (
{
closed = 1;
nodes = (
(384,-193,ls),
(480,-193,o),
(549,-121,o),
(549,-22,cs),
(549,376,ls),
(549,498,o),
(465,586,o),
(349,586,cs),
(285,586,o),
(234,554,o),
(198,505,c),
(198,552,ls),
(198,564,o),
(189,573,o),
(177,573,cs),
(99,573,ls),
(87,573,o),
(78,564,o),
(78,552,cs),
(78,21,ls),
(78,9,o),
(87,0,o),
(99,0,cs),
(177,0,ls),
(189,0,o),
(198,9,o),
(198,21,cs),
(198,327,ls),
(198,416,o),
(247,471,o),
(326,471,cs),
(392,471,o),
(429,431,o),
(429,361,cs),
(429,-22,ls),
(429,-57,o),
(408,-79,o),
(375,-79,cs),
(303,-79,ls),
(291,-79,o),
(282,-88,o),
(282,-100,cs),
(282,-172,ls),
(282,-184,o),
(291,-193,o),
(303,-193,cs)
);
}
);
width = 626;
}
);
unicode = 331;
},
{
glyphname = o;
kernLeft = o;
kernRight = o;
lastChange = "2024-04-10 10:37:22 +0000";
layers = (
{
anchors = (
{
name = bottom;
pos = (283,0);
},
{
name = center;
pos = (282,283);
},
{
name = ogonek;
pos = (372,0);
},
{
name = top;
pos = (280,566);
},
{
name = topright;
pos = (543,566);
}
);
hints = (
{
horizontal = 1;
origin = (0,13);
target = (1,13);
type = Stem;
},
{
horizontal = 1;
origin = (0,6);
target = (1,6);
type = Stem;
},
{
origin = (0,10);
target = (1,2);
type = Stem;
},
{
origin = (1,10);
target = (0,2);
type = Stem;
}
);
layerId = "DDABD3A5-4A8B-4D55-9B9E-1269DFBEF3A1";
name = Regular;
shapes = (
{
closed = 1;
nodes = (
(402,-13,o),
(499,84,o),
(499,205,cs),
(499,361,ls),
(499,482,o),
(402,579,o),
(282,579,cs),
(162,579,o),
(65,482,o),
(65,361,cs),
(65,205,ls),
(65,84,o),
(162,-13,o),
(282,-13,cs)
);
},
{
closed = 1;
nodes = (
(205,61,o),
(143,123,o),
(143,200,cs),
(143,366,ls),
(143,443,o),
(205,505,o),
(282,505,cs),
(359,505,o),
(421,443,o),
(421,366,cs),
(421,200,ls),
(421,123,o),
(359,61,o),
(282,61,cs)
);
}
);
width = 564;
},
{
anchors = (
{
name = bottom;
pos = (295,0);
},
{
name = center;
pos = (295,286);
},
{
name = ogonek;
pos = (379,10);
},
{
name = top;
pos = (295,573);
},
{
name = topright;
pos = (573,573);
}
);
hints = (
{
horizontal = 1;
origin = (0,13);
target = (1,13);
type = Stem;
},
{
horizontal = 1;
origin = (0,6);
target = (1,6);
type = Stem;
},
{
origin = (0,10);
target = (1,2);
type = Stem;
},
{
origin = (1,10);
target = (0,2);
type = Stem;
}
);
layerId = "1D8279CA-6213-4437-A9CB-DE6E86D89D97";
name = Bold;
shapes = (
{
closed = 1;
nodes = (
(427,-13,o),
(533,93,o),
(533,221,cs),
(533,352,ls),
(533,480,o),
(427,586,o),
(295,586,cs),
(163,586,o),
(57,480,o),
(57,352,cs),
(57,221,ls),
(57,93,o),
(163,-13,o),
(295,-13,cs)
);
},
{
closed = 1;
nodes = (
(230,103,o),
(177,156,o),
(177,221,cs),
(177,352,ls),
(177,417,o),
(230,470,o),
(295,470,cs),
(360,470,o),
(413,417,o),
(413,352,cs),
(413,221,ls),
(413,156,o),
(360,103,o),
(295,103,cs)
);
}
);
width = 592;
}
);
unicode = 111;
},
{
glyphname = oe;
kernLeft = o;
kernRight = e;
lastChange = "2024-04-10 10:37:22 +0000";
layers = (
{
anchors = (
{
name = bottom;
pos = (460,0);
},
{
name = top;
pos = (460,566);
}
);
hints = (
{
horizontal = 1;
origin = (0,39);
target = (1,13);
type = Stem;
},
{
horizontal = 1;
origin = (0,18);
target = (2,8);
type = Stem;
},
{
horizontal = 1;
origin = (0,32);
target = (1,6);
type = Stem;
},
{
horizontal = 1;
origin = (0,5);
target = (0,14);
type = Stem;
},
{
origin = (0,36);
target = (1,2);
type = Stem;
},
{
origin = (1,10);
target = (0,17);
type = Stem;
},
{
origin = (2,7);
target = (0,22);
type = Stem;
}
);
layerId = "DDABD3A5-4A8B-4D55-9B9E-1269DFBEF3A1";
name = Regular;
shapes = (
{
closed = 1;
nodes = (
(359,-13,o),
(426,27,o),
(465,87,c),
(504,34,o),
(567,0,o),
(638,0,cs),
(783,0,ls),
(791,0,o),
(797,6,o),
(797,14,cs),
(797,60,ls),
(797,68,o),
(791,74,o),
(783,74,cs),
(638,74,ls),
(561,74,o),
(499,136,o),
(499,213,cs),
(499,257,l),
(819,257,ls),
(839,257,o),
(855,273,o),
(855,293,cs),
(855,361,ls),
(855,482,o),
(758,579,o),
(638,579,cs),
(564,579,o),
(499,542,o),
(460,486,c),
(421,542,o),
(356,579,o),
(282,579,cs),
(162,579,o),
(65,482,o),
(65,361,cs),
(65,205,ls),
(65,84,o),
(162,-13,o),
(282,-13,cs)
);
},
{
closed = 1;
nodes = (
(205,61,o),
(143,123,o),
(143,200,cs),
(143,366,ls),
(143,443,o),
(205,505,o),
(282,505,cs),
(359,505,o),
(421,443,o),
(421,366,cs),
(421,200,ls),
(421,123,o),
(359,61,o),
(282,61,cs)
);
},
{
closed = 1;
nodes = (
(499,366,ls),
(499,443,o),
(561,505,o),
(638,505,cs),
(715,505,o),
(777,443,o),
(777,366,cs),
(777,329,l),
(499,329,l)
);
}
);
width = 913;
},
{
anchors = (
{
name = bottom;
pos = (473,0);
},
{
name = top;
pos = (473,573);
}
);
hints = (
{
horizontal = 1;
origin = (0,39);
target = (1,13);
type = Stem;
},
{
horizontal = 1;
origin = (0,18);
target = (2,8);
type = Stem;
},
{
horizontal = 1;
origin = (0,32);
target = (2,3);
type = Stem;
},
{
horizontal = 1;
origin = (0,5);
target = (0,14);
type = Stem;
},
{
origin = (0,36);
target = (1,2);
type = Stem;
},
{
origin = (1,10);
target = (0,17);
type = Stem;
},
{
origin = (2,7);
target = (0,22);
type = Stem;
}
);
layerId = "1D8279CA-6213-4437-A9CB-DE6E86D89D97";
name = Bold;
shapes = (
{
closed = 1;
nodes = (
(369,-13,o),
(435,21,o),
(479,73,c),
(522,28,o),
(583,0,o),
(651,0,cs),
(810,0,ls),
(822,0,o),
(831,9,o),
(831,21,cs),
(831,93,ls),
(831,105,o),
(822,114,o),
(810,114,cs),
(651,114,ls),
(586,114,o),
(533,167,o),
(533,232,cs),
(533,237,l),
(846,237,ls),
(870,237,o),
(889,256,o),
(889,280,cs),
(889,347,ls),
(889,480,o),
(783,586,o),
(651,586,cs),
(580,586,o),
(517,555,o),
(473,506,c),
(429,555,o),
(366,586,o),
(295,586,cs),
(163,586,o),
(57,480,o),
(57,347,cs),
(57,226,ls),
(57,93,o),
(163,-13,o),
(295,-13,cs)
);
},
{
closed = 1;
nodes = (
(230,103,o),
(177,156,o),
(177,221,cs),
(177,352,ls),
(177,417,o),
(230,470,o),
(295,470,cs),
(360,470,o),
(413,417,o),
(413,352,cs),
(413,221,ls),
(413,156,o),
(360,103,o),
(295,103,cs)
);
},
{
closed = 1;
nodes = (
(533,354,ls),
(533,419,o),
(586,472,o),
(651,472,cs),
(716,472,o),
(769,419,o),
(769,354,cs),
(769,345,l),
(533,345,l)
);
}
);
width = 941;
}
);
metricLeft = o;
metricRight = e;
unicode = 339;
},
{
glyphname = p;
kernLeft = p;
kernRight = o;
lastChange = "2024-04-10 10:37:22 +0000";
layers = (
{
anchors = (
{
name = bottom;
pos = (314,0);
},
{
name = top;
pos = (315,566);
}
);
hints = (
{
horizontal = 1;
origin = (0,7);
target = (1,13);
type = Stem;
},
{
horizontal = 1;
origin = (0,14);
target = (1,6);
type = Stem;
},
{
horizontal = 1;
origin = (0,22);
target = down;
type = TopGhost;
},
{
origin = (0,26);
target = (0,3);
type = Stem;
},
{
origin = (1,10);
target = (0,10);
type = Stem;
}
);
layerId = "DDABD3A5-4A8B-4D55-9B9E-1269DFBEF3A1";
name = Regular;
shapes = (
{
closed = 1;
nodes = (
(154,-193,ls),
(162,-193,o),
(168,-187,o),
(168,-179,cs),
(168,44,l),
(207,8,o),
(260,-13,o),
(315,-13,cs),
(432,-13,o),
(525,81,o),
(525,196,cs),
(525,370,ls),
(525,485,o),
(431,579,o),
(316,579,cs),
(256,579,o),
(202,554,o),
(164,508,c),
(164,552,ls),
(164,560,o),
(158,566,o),
(150,566,cs),
(104,566,ls),
(96,566,o),
(90,560,o),
(90,552,cs),
(90,-179,ls),
(90,-187,o),
(96,-193,o),
(104,-193,cs)
);
},
{
closed = 1;
nodes = (
(230,61,o),
(168,123,o),
(168,200,cs),
(168,366,ls),
(168,443,o),
(230,505,o),
(308,505,cs),
(385,505,o),
(447,443,o),
(447,366,cs),
(447,200,ls),
(447,123,o),
(385,61,o),
(308,61,cs)
);
}
);
width = 590;
},
{
anchors = (
{
name = bottom;
pos = (330,0);
},
{
name = top;
pos = (330,573);
}
);
hints = (
{
horizontal = 1;
origin = (0,29);
target = up;
type = BottomGhost;
},
{
horizontal = 1;
origin = (0,7);
target = (1,13);
type = Stem;
},
{
horizontal = 1;
origin = (0,14);
target = (1,6);
type = Stem;
},
{
horizontal = 1;
origin = (0,22);
target = down;
type = TopGhost;
},
{
origin = (0,26);
target = (0,3);
type = Stem;
},
{
origin = (1,10);
target = (0,10);
type = Stem;
}
);
layerId = "1D8279CA-6213-4437-A9CB-DE6E86D89D97";
name = Bold;
shapes = (
{
closed = 1;
nodes = (
(177,-193,ls),
(189,-193,o),
(198,-184,o),
(198,-172,cs),
(198,47,l),
(235,8,o),
(283,-13,o),
(332,-13,cs),
(456,-13,o),
(555,93,o),
(555,217,cs),
(555,356,ls),
(555,481,o),
(453,586,o),
(332,586,cs),
(275,586,o),
(221,560,o),
(185,507,c),
(185,552,ls),
(185,564,o),
(176,573,o),
(164,573,cs),
(99,573,ls),
(87,573,o),
(78,564,o),
(78,552,cs),
(78,-172,ls),
(78,-184,o),
(87,-193,o),
(99,-193,cs)
);
},
{
closed = 1;
nodes = (
(251,102,o),
(198,155,o),
(198,220,cs),
(198,353,ls),
(198,418,o),
(251,471,o),
(317,471,cs),
(382,471,o),
(435,418,o),
(435,353,cs),
(435,220,ls),
(435,155,o),
(382,102,o),
(317,102,cs)
);
}
);
width = 614;
}
);
unicode = 112;
},
{
glyphname = thorn;
kernRight = o;
lastChange = "2024-04-10 10:37:22 +0000";
layers = (
{
anchors = (
{
name = bottom;
pos = (308,0);
},
{
name = top;
pos = (313,566);
}
);
guides = (
{
angle = 90;
pos = (125,481);
}
);
hints = (
{
horizontal = 1;
origin = (0,7);
target = (1,13);
type = Stem;
},
{
horizontal = 1;
origin = (0,14);
target = (1,6);
type = Stem;
},
{
horizontal = 1;
origin = (0,22);
target = down;
type = TopGhost;
},
{
origin = (0,26);
target = (0,3);
type = Stem;
},
{
origin = (1,10);
target = (0,10);
type = Stem;
}
);
layerId = "DDABD3A5-4A8B-4D55-9B9E-1269DFBEF3A1";
name = Regular;
shapes = (
{
closed = 1;
nodes = (
(154,-193,ls),
(162,-193,o),
(168,-187,o),
(168,-179,cs),
(168,49,l),
(206,11,o),
(258,-13,o),
(316,-13,cs),
(431,-13,o),
(525,81,o),
(525,196,cs),
(525,370,ls),
(525,485,o),
(431,579,o),
(316,579,cs),
(256,579,o),
(202,554,o),
(164,513,c),
(164,745,ls),
(164,753,o),
(158,759,o),
(150,759,cs),
(104,759,ls),
(96,759,o),
(90,753,o),
(90,745,cs),
(90,-179,ls),
(90,-187,o),
(96,-193,o),
(104,-193,cs)
);
},
{
closed = 1;
nodes = (
(230,61,o),
(168,123,o),
(168,200,cs),
(168,366,ls),
(168,443,o),
(230,505,o),
(308,505,cs),
(385,505,o),
(447,443,o),
(447,366,cs),
(447,200,ls),
(447,123,o),
(385,61,o),
(308,61,cs)
);
}
);
width = 590;
},
{
anchors = (
{
name = bottom;
pos = (329,0);
},
{
name = top;
pos = (133,766);
}
);
hints = (
{
horizontal = 1;
origin = (0,29);
target = up;
type = BottomGhost;
},
{
horizontal = 1;
origin = (0,7);
target = (1,13);
type = Stem;
},
{
horizontal = 1;
origin = (0,14);
target = (1,6);
type = Stem;
},
{
horizontal = 1;
origin = (0,22);
target = down;
type = TopGhost;
},
{
origin = (0,26);
target = (0,3);
type = Stem;
},
{
origin = (1,10);
target = (0,10);
type = Stem;
}
);
layerId = "1D8279CA-6213-4437-A9CB-DE6E86D89D97";
name = Bold;
shapes = (
{
closed = 1;
nodes = (
(177,-193,ls),
(189,-193,o),
(198,-184,o),
(198,-172,cs),
(198,47,l),
(235,8,o),
(283,-13,o),
(332,-13,cs),
(456,-13,o),
(555,93,o),
(555,217,cs),
(555,356,ls),
(555,481,o),
(453,586,o),
(332,586,cs),
(275,586,o),
(221,560,o),
(185,507,c),
(185,745,ls),
(185,757,o),
(176,766,o),
(164,766,cs),
(99,766,ls),
(87,766,o),
(78,757,o),
(78,745,cs),
(78,-172,ls),
(78,-184,o),
(87,-193,o),
(99,-193,cs)
);
},
{
closed = 1;
nodes = (
(251,102,o),
(198,155,o),
(198,220,cs),
(198,353,ls),
(198,418,o),
(251,471,o),
(317,471,cs),
(382,471,o),
(435,418,o),
(435,353,cs),
(435,220,ls),
(435,155,o),
(382,102,o),
(317,102,cs)
);
}
);
width = 614;
}
);
unicode = 254;
},
{
glyphname = q;
kernLeft = o;
kernRight = q;
lastChange = "2024-04-10 10:37:22 +0000";
layers = (
{
anchors = (
{
name = bottom;
pos = (463,-197);
},
{
name = top;
pos = (274,566);
}
);
hints = (
{
horizontal = 1;
origin = (0,22);
target = (1,13);
type = Stem;
},
{
horizontal = 1;
origin = (0,15);
target = (1,6);
type = Stem;
},
{
horizontal = 1;
origin = (0,8);
target = down;
type = TopGhost;
},
{
origin = (0,19);
target = (1,2);
type = Stem;
},
{
origin = (0,26);
target = (0,3);
type = Stem;
}
);
layerId = "DDABD3A5-4A8B-4D55-9B9E-1269DFBEF3A1";
name = Regular;
shapes = (
{
closed = 1;
nodes = (
(486,-193,ls),
(494,-193,o),
(500,-187,o),
(500,-179,cs),
(500,552,ls),
(500,560,o),
(494,566,o),
(486,566,cs),
(440,566,ls),
(432,566,o),
(426,560,o),
(426,552,cs),
(426,513,l),
(388,554,o),
(334,579,o),
(274,579,cs),
(159,579,o),
(65,485,o),
(65,370,cs),
(65,196,ls),
(65,81,o),
(159,-13,o),
(274,-13,cs),
(332,-13,o),
(385,14,o),
(422,57,c),
(422,-179,ls),
(422,-187,o),
(428,-193,o),
(436,-193,cs)
);
},
{
closed = 1;
nodes = (
(205,61,o),
(143,123,o),
(143,200,cs),
(143,366,ls),
(143,443,o),
(205,505,o),
(282,505,cs),
(360,505,o),
(422,443,o),
(422,366,cs),
(422,200,ls),
(422,123,o),
(360,61,o),
(282,61,cs)
);
}
);
width = 590;
},
{
anchors = (
{
name = bottom;
pos = (276,0);
},
{
name = top;
pos = (276,573);
}
);
hints = (
{
horizontal = 1;
origin = (0,29);
target = up;
type = BottomGhost;
},
{
horizontal = 1;
origin = (0,22);
target = (1,13);
type = Stem;
},
{
horizontal = 1;
origin = (0,15);
target = (1,6);
type = Stem;
},
{
horizontal = 1;
origin = (0,8);
target = down;
type = TopGhost;
},
{
origin = (0,19);
target = (1,2);
type = Stem;
},
{
origin = (0,26);
target = (0,3);
type = Stem;
}
);
layerId = "1D8279CA-6213-4437-A9CB-DE6E86D89D97";
name = Bold;
shapes = (
{
closed = 1;
nodes = (
(513,-193,ls),
(525,-193,o),
(534,-184,o),
(534,-172,cs),
(534,552,ls),
(534,564,o),
(525,573,o),
(513,573,cs),
(448,573,ls),
(436,573,o),
(427,564,o),
(427,552,cs),
(427,507,l),
(391,560,o),
(337,586,o),
(280,586,cs),
(159,586,o),
(57,481,o),
(57,356,cs),
(57,217,ls),
(57,93,o),
(156,-13,o),
(280,-13,cs),
(329,-13,o),
(377,8,o),
(414,47,c),
(414,-172,ls),
(414,-184,o),
(423,-193,o),
(435,-193,cs)
);
},
{
closed = 1;
nodes = (
(230,102,o),
(177,155,o),
(177,220,cs),
(177,353,ls),
(177,418,o),
(230,471,o),
(295,471,cs),
(361,471,o),
(414,418,o),
(414,353,cs),
(414,220,ls),
(414,155,o),
(361,102,o),
(295,102,cs)
);
}
);
width = 615;
}
);
unicode = 113;
},
{
glyphname = r;
kernLeft = r;
kernRight = r;
lastChange = "2024-04-10 10:37:22 +0000";
layers = (
{
anchors = (
{
name = bottom;
pos = (189,0);
},
{
name = top;
pos = (186,566);
}
);
hints = (
{
horizontal = 1;
origin = (0,48);
target = (0,41);
type = Stem;
},
{
horizontal = 1;
origin = (0,31);
target = (0,38);
type = Stem;
},
{
horizontal = 1;
origin = (0,22);
target = (0,38);
type = Stem;
},
{
origin = (0,40);
target = (0,8);
type = Stem;
}
);
layerId = "DDABD3A5-4A8B-4D55-9B9E-1269DFBEF3A1";
name = Regular;
shapes = (
{
closed = 1;
nodes = (
(341,0,ls),
(349,0,o),
(355,6,o),
(355,14,cs),
(355,60,ls),
(355,68,o),
(349,74,o),
(341,74,cs),
(225,74,l),
(225,392,l),
(284,439,ls),
(345,488,o),
(366,495,o),
(397,495,cs),
(419,495,ls),
(427,495,o),
(433,501,o),
(433,509,cs),
(433,558,ls),
(433,566,o),
(428,572,o),
(419,572,cs),
(389,572,ls),
(357,572,o),
(333,563,o),
(283,525,cs),
(225,480,l),
(225,530,ls),
(225,550,o),
(209,566,o),
(189,566,cs),
(64,566,ls),
(56,566,o),
(50,560,o),
(50,552,cs),
(50,509,ls),
(50,501,o),
(56,495,o),
(64,495,cs),
(147,495,l),
(147,74,l),
(64,74,ls),
(56,74,o),
(50,68,o),
(50,60,cs),
(50,14,ls),
(50,6,o),
(56,0,o),
(64,0,cs)
);
}
);
width = 463;
},
{
anchors = (
{
name = bottom;
pos = (210,0);
},
{
name = top;
pos = (258,573);
}
);
guides = (
{
angle = 90;
pos = (100,74);
}
);
hints = (
{
horizontal = 1;
origin = (0,48);
target = (0,41);
type = Stem;
},
{
horizontal = 1;
origin = (0,31);
target = (0,38);
type = Stem;
},
{
horizontal = 1;
origin = (0,22);
target = (0,13);
type = Stem;
},
{
origin = (0,40);
target = (0,8);
type = Stem;
}
);
layerId = "1D8279CA-6213-4437-A9CB-DE6E86D89D97";
name = Bold;
shapes = (
{
closed = 1;
nodes = (
(367,0,ls),
(379,0,o),
(388,9,o),
(388,21,cs),
(388,95,ls),
(388,107,o),
(379,116,o),
(367,116,cs),
(268,116,l),
(268,368,l),
(323,412,ls),
(375,453,o),
(392,461,o),
(426,461,cs),
(452,461,ls),
(464,461,o),
(473,470,o),
(473,482,cs),
(473,559,ls),
(473,571,o),
(464,580,o),
(452,580,cs),
(421,580,ls),
(380,580,o),
(356,568,o),
(317,537,cs),
(263,494,l),
(263,530,ls),
(263,554,o),
(244,573,o),
(220,573,cs),
(65,573,ls),
(53,573,o),
(44,564,o),
(44,552,cs),
(44,481,ls),
(44,469,o),
(53,460,o),
(65,460,cs),
(151,460,l),
(151,116,l),
(75,116,ls),
(63,116,o),
(54,107,o),
(54,95,cs),
(54,21,ls),
(54,9,o),
(63,0,o),
(75,0,cs)
);
}
);
width = 500;
}
);
unicode = 114;
},
{
glyphname = s;
kernLeft = s;
kernRight = s;
lastChange = "2024-04-10 11:03:02 +0000";
layers = (
{
anchors = (
{
name = bottom;
pos = (235,0);
},
{
name = top;
pos = (233,566);
}
);
hints = (
{
horizontal = 1;
origin = (0,59);
target = (0,41);
type = Stem;
},
{
horizontal = 1;
origin = (0,29);
target = (0,11);
type = Stem;
},
{
origin = (0,53);
target = (0,8);
type = Stem;
},
{
origin = (0,38);
target = (0,2);
type = Stem;
},
{
horizontal = 1;
origin = (0,47);
target = down;
type = TopGhost;
},
{
horizontal = 1;
origin = (0,14);
target = up;
type = BottomGhost;
}
);
layerId = "DDABD3A5-4A8B-4D55-9B9E-1269DFBEF3A1";
name = Regular;
shapes = (
{
closed = 1;
nodes = (
(344,-10,o),
(422,52,o),
(422,156,cs),
(422,257,o),
(345,287,o),
(251,321,cs),
(187,344,o),
(133,359,o),
(133,426,cs),
(133,480,o),
(172,508,o),
(237,508,cs),
(280,508,o),
(321,493,o),
(360,470,cs),
(362,468,o),
(365,468,o),
(367,468,cs),
(372,468,o),
(377,471,o),
(379,476,cs),
(386,490,o),
(392,503,o),
(399,517,cs),
(402,523,o),
(400,530,o),
(395,533,cs),
(351,562,o),
(294,579,o),
(237,579,cs),
(136,579,o),
(55,530,o),
(55,422,cs),
(55,321,o),
(121,288,o),
(226,249,cs),
(300,221,o),
(344,205,o),
(344,151,cs),
(344,93,o),
(299,61,o),
(230,61,cs),
(179,61,o),
(135,78,o),
(97,101,cs),
(94,102,o),
(92,103,o),
(89,103,cs),
(84,103,o),
(79,100,o),
(76,95,cs),
(69,81,o),
(62,67,o),
(55,53,cs),
(53,47,o),
(55,40,o),
(60,37,cs),
(103,6,o),
(166,-10,o),
(226,-10,cs)
);
}
);
width = 470;
},
{
anchors = (
{
name = bottom;
pos = (235,0);
},
{
name = top;
pos = (233,566);
}
);
associatedMasterId = "DDABD3A5-4A8B-4D55-9B9E-1269DFBEF3A1";
hints = (
{
horizontal = 1;
origin = (0,49);
target = (0,36);
type = Stem;
},
{
horizontal = 1;
origin = (0,24);
target = (0,11);
type = Stem;
},
{
origin = (0,27);
target = (0,8);
type = Stem;
},
{
origin = (0,33);
target = (0,2);
type = Stem;
}
);
layerId = "872FD906-CF2B-433B-80FA-E0E4D283C75D";
name = "Regular Feb 17 16, 01:26";
shapes = (
{
closed = 1;
nodes = (
(344,-10,o),
(422,54,o),
(422,162,cs),
(422,273,o),
(341,300,o),
(251,326,cs),
(183,346,o),
(133,361,o),
(133,422,cs),
(133,477,o),
(173,508,o),
(235,508,cs),
(288,508,o),
(333,492,o),
(381,465,c),
(391,460,o),
(400,466,o),
(400,476,cs),
(400,519,ls),
(400,528,o),
(395,537,o),
(387,541,cs),
(345,563,o),
(290,579,o),
(235,579,cs),
(137,579,o),
(55,527,o),
(55,419,cs),
(55,304,o),
(147,277,o),
(226,253,cs),
(285,235,o),
(344,222,o),
(344,155,cs),
(344,95,o),
(297,61,o),
(231,61,cs),
(180,61,o),
(121,81,o),
(74,108,cs),
(65,113,o),
(55,107,o),
(55,97,cs),
(55,52,ls),
(55,43,o),
(60,34,o),
(68,30,cs),
(116,4,o),
(174,-10,o),
(231,-10,cs)
);
}
);
width = 470;
},
{
anchors = (
{
name = bottom;
pos = (250,0);
},
{
name = top;
pos = (257,573);
}
);
associatedMasterId = "1D8279CA-6213-4437-A9CB-DE6E86D89D97";
hints = (
{
horizontal = 1;
origin = (0,59);
target = (0,41);
type = Stem;
},
{
horizontal = 1;
origin = (0,29);
target = (0,11);
type = Stem;
},
{
origin = (0,32);
target = (0,8);
type = Stem;
},
{
origin = (0,38);
target = (0,2);
type = Stem;
},
{
horizontal = 1;
origin = (0,47);
target = down;
type = TopGhost;
},
{
horizontal = 1;
origin = (0,17);
target = up;
type = BottomGhost;
}
);
layerId = "13641F2B-2D6D-497C-812F-80BC431E092E";
name = Bold;
shapes = (
{
closed = 1;
nodes = (
(371,-13,o),
(457,57,o),
(457,163,cs),
(457,278,o),
(352,310,o),
(284,336,cs),
(206,366,o),
(181,385,o),
(181,420,cs),
(181,455,o),
(209,475,o),
(254,475,cs),
(287,475,o),
(330,464,o),
(382,430,cs),
(387,427,o),
(391,426,o),
(396,426,cs),
(404,426,o),
(411,430,o),
(415,437,cs),
(426,459,o),
(436,479,o),
(445,500,cs),
(448,508,o),
(446,518,o),
(439,523,cs),
(390,561,o),
(322,585,o),
(253,585,cs),
(138,585,o),
(61,519,o),
(61,413,cs),
(61,303,o),
(142,265,o),
(210,238,cs),
(295,204,o),
(337,195,o),
(337,155,cs),
(337,119,o),
(307,97,o),
(251,97,cs),
(204,97,o),
(164,112,o),
(117,145,cs),
(112,148,o),
(108,149,o),
(103,149,cs),
(94,149,o),
(88,145,o),
(83,137,cs),
(72,118,o),
(58,95,o),
(49,74,cs),
(46,66,o),
(48,56,o),
(55,51,cs),
(106,12,o),
(174,-13,o),
(248,-13,cs)
);
}
);
width = 500;
},
{
anchors = (
{
name = bottom;
pos = (250,0);
},
{
name = top;
pos = (257,573);
}
);
hints = (
{
horizontal = 1;
origin = (0,59);
target = (0,41);
type = Stem;
},
{
horizontal = 1;
origin = (0,29);
target = (0,11);
type = Stem;
},
{
origin = (0,32);
target = (0,8);
type = Stem;
},
{
origin = (0,38);
target = (0,2);
type = Stem;
},
{
horizontal = 1;
origin = (0,47);
target = down;
type = TopGhost;
},
{
horizontal = 1;
origin = (0,17);
target = up;
type = BottomGhost;
}
);
layerId = "1D8279CA-6213-4437-A9CB-DE6E86D89D97";
name = Bold;
shapes = (
{
closed = 1;
nodes = (
(371,-13,o),
(457,57,o),
(457,163,cs),
(457,278,o),
(352,310,o),
(284,336,cs),
(206,366,o),
(181,385,o),
(181,420,cs),
(181,455,o),
(209,475,o),
(254,475,cs),
(287,475,o),
(330,464,o),
(382,430,cs),
(387,427,o),
(391,426,o),
(396,426,cs),
(404,426,o),
(411,430,o),
(415,437,cs),
(426,459,o),
(436,479,o),
(445,500,cs),
(448,508,o),
(446,518,o),
(439,523,cs),
(390,561,o),
(322,585,o),
(253,585,cs),
(138,585,o),
(61,519,o),
(61,413,cs),
(61,303,o),
(142,265,o),
(210,238,cs),
(295,204,o),
(337,195,o),
(337,155,cs),
(337,119,o),
(307,97,o),
(251,97,cs),
(204,97,o),
(164,112,o),
(117,145,cs),
(112,148,o),
(108,149,o),
(103,149,cs),
(94,149,o),
(88,145,o),
(83,137,cs),
(72,118,o),
(58,95,o),
(49,74,cs),
(46,66,o),
(48,56,o),
(55,51,cs),
(106,12,o),
(174,-13,o),
(248,-13,cs)
);
}
);
width = 500;
}
);
unicode = 115;
},
{
glyphname = germandbls;
lastChange = "2024-04-10 11:03:19 +0000";
layers = (
{
anchors = (
{
name = bottom;
pos = (329,0);
},
{
name = top;
pos = (299,759);
}
);
hints = (
{
horizontal = 1;
origin = (0,35);
target = (0,19);
type = Stem;
},
{
horizontal = 1;
origin = (0,7);
target = (0,47);
type = Stem;
},
{
origin = (0,51);
target = (0,3);
type = Stem;
},
{
origin = (0,13);
target = (0,41);
type = Stem;
},
{
origin = (0,16);
target = (0,38);
type = Stem;
},
{
origin = (0,10);
target = (0,44);
type = Stem;
},
{
horizontal = 1;
origin = (0,22);
target = down;
type = TopGhost;
}
);
layerId = "DDABD3A5-4A8B-4D55-9B9E-1269DFBEF3A1";
name = Regular;
shapes = (
{
closed = 1;
nodes = (
(154,-193,ls),
(162,-193,o),
(168,-187,o),
(168,-179,cs),
(168,535,ls),
(168,638,o),
(215,699,o),
(301,699,cs),
(374,699,o),
(415,654,o),
(415,601,cs),
(415,499,o),
(260,476,o),
(260,373,cs),
(260,254,o),
(464,268,o),
(464,147,cs),
(464,93,o),
(424,61,o),
(371,61,cs),
(332,61,o),
(284,78,o),
(262,87,cs),
(260,88,o),
(259,88,o),
(257,88,cs),
(252,88,o),
(247,83,o),
(247,76,cs),
(246,32,ls),
(246,23,o),
(249,19,o),
(259,14,cs),
(285,1,o),
(336,-10,o),
(375,-10,cs),
(467,-10,o),
(542,50,o),
(542,151,cs),
(542,318,o),
(339,327,o),
(339,384,cs),
(339,434,o),
(493,476,o),
(493,608,cs),
(493,704,o),
(411,771,o),
(302,771,cs),
(171,771,o),
(90,675,o),
(90,540,cs),
(90,-179,ls),
(90,-187,o),
(96,-193,o),
(104,-193,cs)
);
}
);
width = 587;
},
{
anchors = (
{
name = bottom;
pos = (378,0);
},
{
name = top;
pos = (309,766);
}
);
associatedMasterId = "1D8279CA-6213-4437-A9CB-DE6E86D89D97";
hints = (
{
horizontal = 1;
origin = (0,54);
target = up;
type = BottomGhost;
},
{
horizontal = 1;
origin = (0,35);
target = (0,19);
type = Stem;
},
{
horizontal = 1;
origin = (0,47);
target = (0,7);
type = Stem;
},
{
origin = (0,51);
target = (0,3);
type = Stem;
},
{
origin = (0,13);
target = (0,41);
type = Stem;
},
{
origin = (0,16);
target = (0,38);
type = Stem;
},
{
origin = (0,10);
target = (0,44);
type = Stem;
}
);
layerId = "2696B12E-0BF5-4684-92A0-D1C4CF9CC29A";
name = Bold;
shapes = (
{
closed = 1;
nodes = (
(177,-193,ls),
(189,-193,o),
(198,-184,o),
(198,-172,cs),
(198,522,ls),
(198,613,o),
(234,669,o),
(304,669,cs),
(356,669,o),
(393,639,o),
(393,597,cs),
(393,515,o),
(256,470,o),
(256,372,cs),
(256,245,o),
(447,258,o),
(447,158,cs),
(447,119,o),
(420,94,o),
(376,94,cs),
(351,94,o),
(315,103,o),
(279,118,cs),
(270,122,o),
(264,124,o),
(259,124,cs),
(251,124,o),
(239,119,o),
(239,104,cs),
(238,43,ls),
(238,29,o),
(246,18,o),
(259,13,cs),
(288,-2,o),
(341,-13,o),
(380,-13,cs),
(485,-13,o),
(561,59,o),
(561,162,cs),
(561,324,o),
(365,360,o),
(365,386,cs),
(365,413,o),
(506,472,o),
(506,603,cs),
(506,707,o),
(418,779,o),
(304,779,cs),
(163,779,o),
(78,669,o),
(78,517,cs),
(78,-172,ls),
(78,-184,o),
(87,-193,o),
(99,-193,cs)
);
}
);
width = 602;
},
{
anchors = (
{
name = bottom;
pos = (378,0);
},
{
name = top;
pos = (309,766);
}
);
hints = (
{
horizontal = 1;
origin = (0,54);
target = up;
type = BottomGhost;
},
{
horizontal = 1;
origin = (0,35);
target = (0,19);
type = Stem;
},
{
horizontal = 1;
origin = (0,47);
target = (0,7);
type = Stem;
},
{
origin = (0,51);
target = (0,3);
type = Stem;
},
{
origin = (0,13);
target = (0,41);
type = Stem;
},
{
origin = (0,16);
target = (0,38);
type = Stem;
},
{
origin = (0,10);
target = (0,44);
type = Stem;
}
);
layerId = "1D8279CA-6213-4437-A9CB-DE6E86D89D97";
name = Bold;
shapes = (
{
closed = 1;
nodes = (
(177,-193,ls),
(189,-193,o),
(198,-184,o),
(198,-172,cs),
(198,522,ls),
(198,613,o),
(234,669,o),
(304,669,cs),
(356,669,o),
(393,639,o),
(393,597,cs),
(393,515,o),
(256,470,o),
(256,372,cs),
(256,245,o),
(447,258,o),
(447,158,cs),
(447,119,o),
(420,94,o),
(376,94,cs),
(351,94,o),
(315,103,o),
(279,118,cs),
(270,122,o),
(264,124,o),
(259,124,cs),
(251,124,o),
(239,119,o),
(239,104,cs),
(238,43,ls),
(238,29,o),
(246,18,o),
(259,13,cs),
(288,-2,o),
(341,-13,o),
(380,-13,cs),
(485,-13,o),
(561,59,o),
(561,162,cs),
(561,324,o),
(365,360,o),
(365,386,cs),
(365,413,o),
(506,472,o),
(506,603,cs),
(506,707,o),
(418,779,o),
(304,779,cs),
(163,779,o),
(78,669,o),
(78,517,cs),
(78,-172,ls),
(78,-184,o),
(87,-193,o),
(99,-193,cs)
);
}
);
width = 602;
}
);
unicode = 223;
},
{
glyphname = t;
kernLeft = t;
kernRight = t;
lastChange = "2024-04-10 10:37:22 +0000";
layers = (
{
anchors = (
{
name = bottom;
pos = (274,0);
},
{
name = center;
pos = (191,336);
},
{
name = top;
pos = (161,695);
},
{
name = topright;
pos = (428,566);
}
);
hints = (
{
horizontal = 1;
origin = (0,43);
target = (0,7);
type = Stem;
},
{
horizontal = 1;
origin = (0,31);
target = (0,12);
type = Stem;
},
{
horizontal = 1;
origin = (0,26);
target = down;
type = TopGhost;
},
{
origin = (0,40);
target = (0,11);
type = Stem;
}
);
layerId = "DDABD3A5-4A8B-4D55-9B9E-1269DFBEF3A1";
name = Regular;
shapes = (
{
closed = 1;
nodes = (
(374,0,ls),
(382,0,o),
(388,6,o),
(388,14,cs),
(388,60,ls),
(388,68,o),
(382,74,o),
(374,74,cs),
(283,75,ls),
(232,76,o),
(198,110,o),
(198,162,cs),
(198,492,l),
(374,492,ls),
(382,492,o),
(388,498,o),
(388,506,cs),
(388,552,ls),
(388,560,o),
(382,566,o),
(374,566,cs),
(198,566,l),
(198,671,ls),
(198,679,o),
(192,685,o),
(184,685,cs),
(134,685,ls),
(126,685,o),
(120,679,o),
(120,671,cs),
(120,566,l),
(54,566,ls),
(46,566,o),
(40,560,o),
(40,552,cs),
(40,507,ls),
(40,499,o),
(46,493,o),
(54,493,cs),
(120,493,l),
(120,153,ls),
(120,69,o),
(174,0,o),
(274,0,cs)
);
}
);
width = 443;
},
{
anchors = (
{
name = bottom;
pos = (292,0);
},
{
name = center;
pos = (197,315);
},
{
name = top;
pos = (186,714);
},
{
name = topright;
pos = (485,573);
}
);
hints = (
{
horizontal = 1;
origin = (0,43);
target = (0,8);
type = Stem;
},
{
horizontal = 1;
origin = (0,31);
target = (0,12);
type = Stem;
},
{
origin = (0,40);
target = (0,11);
type = Stem;
},
{
horizontal = 1;
origin = (0,25);
target = down;
type = TopGhost;
}
);
layerId = "1D8279CA-6213-4437-A9CB-DE6E86D89D97";
name = Bold;
shapes = (
{
closed = 1;
nodes = (
(414,0,ls),
(426,0,o),
(435,9,o),
(435,21,cs),
(435,91,ls),
(435,103,o),
(426,112,o),
(414,112,cs),
(309,113,ls),
(270,113,o),
(245,139,o),
(245,179,cs),
(245,460,l),
(414,460,ls),
(426,460,o),
(435,469,o),
(435,481,cs),
(435,552,ls),
(435,564,o),
(426,573,o),
(414,573,cs),
(245,573,l),
(245,681,ls),
(245,693,o),
(236,702,o),
(224,702,cs),
(146,702,ls),
(134,702,o),
(125,693,o),
(125,681,cs),
(125,573,l),
(56,573,ls),
(44,573,o),
(35,564,o),
(35,552,cs),
(35,482,ls),
(35,470,o),
(44,461,o),
(56,461,cs),
(125,461,l),
(125,174,ls),
(125,70,o),
(196,0,o),
(300,0,cs)
);
}
);
width = 485;
}
);
unicode = 116;
},
{
glyphname = tbar;
kernLeft = t;
kernRight = t;
lastChange = "2024-04-10 10:37:22 +0000";
layers = (
{
hints = (
{
horizontal = 1;
origin = (0,43);
target = (0,7);
type = Stem;
},
{
horizontal = 1;
origin = (1,15);
target = (1,8);
type = Stem;
},
{
horizontal = 1;
origin = (0,31);
target = (0,12);
type = Stem;
},
{
horizontal = 1;
origin = (0,26);
target = down;
type = TopGhost;
},
{
origin = (0,40);
target = (0,11);
type = Stem;
}
);
layerId = "DDABD3A5-4A8B-4D55-9B9E-1269DFBEF3A1";
name = Regular;
shapes = (
{
closed = 1;
nodes = (
(379,0,ls),
(387,0,o),
(393,6,o),
(393,14,cs),
(393,60,ls),
(393,68,o),
(387,74,o),
(379,74,cs),
(288,75,ls),
(237,76,o),
(203,110,o),
(203,162,cs),
(203,492,l),
(379,492,ls),
(387,492,o),
(393,498,o),
(393,506,cs),
(393,552,ls),
(393,560,o),
(387,566,o),
(379,566,cs),
(203,566,l),
(203,671,ls),
(203,679,o),
(197,685,o),
(189,685,cs),
(139,685,ls),
(131,685,o),
(125,679,o),
(125,671,cs),
(125,566,l),
(59,566,ls),
(51,566,o),
(45,560,o),
(45,552,cs),
(45,507,ls),
(45,499,o),
(51,493,o),
(59,493,cs),
(125,493,l),
(125,153,ls),
(125,69,o),
(179,0,o),
(279,0,cs)
);
},
{
closed = 1;
nodes = (
(379,308,ls),
(387,308,o),
(393,314,o),
(393,322,cs),
(393,354,ls),
(393,362,o),
(387,368,o),
(379,368,cs),
(59,368,ls),
(51,368,o),
(45,362,o),
(45,354,cs),
(45,322,ls),
(45,314,o),
(51,308,o),
(59,308,cs)
);
}
);
width = 453;
},
{
hints = (
{
horizontal = 1;
origin = (0,43);
target = (0,8);
type = Stem;
},
{
horizontal = 1;
origin = (1,15);
target = (1,8);
type = Stem;
},
{
horizontal = 1;
origin = (0,31);
target = (0,12);
type = Stem;
},
{
origin = (0,40);
target = (0,11);
type = Stem;
}
);
layerId = "1D8279CA-6213-4437-A9CB-DE6E86D89D97";
name = Bold;
shapes = (
{
closed = 1;
nodes = (
(419,0,ls),
(431,0,o),
(440,9,o),
(440,21,cs),
(440,91,ls),
(440,103,o),
(431,112,o),
(419,112,cs),
(314,113,ls),
(275,113,o),
(250,139,o),
(250,179,cs),
(250,460,l),
(419,460,ls),
(431,460,o),
(440,469,o),
(440,481,cs),
(440,552,ls),
(440,564,o),
(431,573,o),
(419,573,cs),
(250,573,l),
(250,681,ls),
(250,693,o),
(241,702,o),
(229,702,cs),
(151,702,ls),
(139,702,o),
(130,693,o),
(130,681,cs),
(130,573,l),
(61,573,ls),
(49,573,o),
(40,564,o),
(40,552,cs),
(40,482,ls),
(40,470,o),
(49,461,o),
(61,461,cs),
(130,461,l),
(130,174,ls),
(130,70,o),
(201,0,o),
(305,0,cs)
);
},
{
closed = 1;
nodes = (
(419,291,ls),
(431,291,o),
(440,300,o),
(440,312,cs),
(440,345,ls),
(440,357,o),
(431,366,o),
(419,366,cs),
(61,366,ls),
(49,366,o),
(40,357,o),
(40,345,cs),
(40,312,ls),
(40,300,o),
(49,291,o),
(61,291,cs)
);
}
);
width = 494;
}
);
unicode = 359;
},
{
glyphname = tcaron;
kernLeft = t;
lastChange = "2024-04-10 11:03:57 +0000";
layers = (
{
background = {
shapes = (
{
ref = t;
},
{
alignment = -1;
pos = (100,0);
ref = acutecomb;
}
);
};
hints = (
{
horizontal = 1;
place = (0,74);
type = Stem;
},
{
horizontal = 1;
place = (566,74);
type = Stem;
},
{
horizontal = 1;
place = (759,128);
type = Stem;
},
{
place = (120,78);
type = Stem;
}
);
layerId = "DDABD3A5-4A8B-4D55-9B9E-1269DFBEF3A1";
name = Regular;
shapes = (
{
ref = t;
},
{
alignment = -1;
pos = (100,0);
ref = acutecomb;
}
);
width = 443;
},
{
background = {
shapes = (
{
closed = 1;
nodes = (
(414,0,ls),
(426,0,o),
(435,9,o),
(435,21,cs),
(435,91,ls),
(435,103,o),
(426,112,o),
(414,112,cs),
(309,113,ls),
(270,113,o),
(245,139,o),
(245,179,cs),
(245,460,l),
(384,460,ls),
(396,460,o),
(405,469,o),
(405,481,cs),
(405,552,ls),
(405,564,o),
(396,573,o),
(384,573,cs),
(245,573,l),
(245,681,ls),
(245,693,o),
(236,702,o),
(224,702,cs),
(146,702,ls),
(134,702,o),
(125,693,o),
(125,681,cs),
(125,573,l),
(56,573,ls),
(44,573,o),
(35,564,o),
(35,552,cs),
(35,482,ls),
(35,470,o),
(44,461,o),
(56,461,cs),
(125,461,l),
(125,174,ls),
(125,70,o),
(196,0,o),
(300,0,cs)
);
},
{
closed = 1;
nodes = (
(440,636,ls),
(447,636,o),
(455,638,o),
(461,644,cs),
(564,740,ls),
(567,743,o),
(569,748,o),
(569,751,cs),
(569,759,o),
(563,766,o),
(554,766,cs),
(446,766,ls),
(438,766,o),
(429,761,o),
(426,753,cs),
(381,656,ls),
(376,645,o),
(383,636,o),
(394,636,cs)
);
}
);
};
hints = (
{
horizontal = 1;
place = (0,113);
type = Stem;
},
{
horizontal = 1;
place = (573,113);
type = Stem;
},
{
horizontal = 1;
place = (766,130);
type = Stem;
},
{
place = (125,120);
type = Stem;
}
);
layerId = "1D8279CA-6213-4437-A9CB-DE6E86D89D97";
name = Bold;
shapes = (
{
ref = t;
},
{
alignment = -1;
pos = (171,0);
ref = acutecomb;
}
);
width = 485;
}
);
unicode = 357;
},
{
glyphname = u;
kernLeft = u;
kernRight = u;
lastChange = "2024-04-10 10:37:22 +0000";
layers = (
{
anchors = (
{
name = bottom;
pos = (268,0);
},
{
name = ogonek;
pos = (467,2);
},
{
name = top;
pos = (288,566);
},
{
name = topright;
pos = (588,566);
}
);
hints = (
{
horizontal = 1;
origin = (0,37);
target = (0,22);
type = Stem;
},
{
horizontal = 1;
origin = (0,30);
target = down;
type = TopGhost;
},
{
horizontal = 1;
origin = (0,6);
target = up;
type = BottomGhost;
},
{
origin = (0,34);
target = (0,25);
type = Stem;
},
{
origin = (0,3);
target = (0,10);
type = Stem;
}
);
layerId = "DDABD3A5-4A8B-4D55-9B9E-1269DFBEF3A1";
name = Regular;
shapes = (
{
closed = 1;
nodes = (
(333,-13,o),
(391,15,o),
(426,70,c),
(426,14,ls),
(426,6,o),
(432,0,o),
(440,0,cs),
(490,0,ls),
(498,0,o),
(504,6,o),
(504,14,cs),
(504,552,ls),
(504,560,o),
(498,566,o),
(490,566,cs),
(440,566,ls),
(432,566,o),
(426,560,o),
(426,552,cs),
(426,225,ls),
(426,120,o),
(364,60,o),
(277,60,cs),
(204,60,o),
(153,104,o),
(153,191,cs),
(153,552,ls),
(153,560,o),
(147,566,o),
(139,566,cs),
(89,566,ls),
(81,566,o),
(75,560,o),
(75,552,cs),
(75,176,ls),
(75,63,o),
(151,-13,o),
(265,-13,cs)
);
}
);
width = 594;
},
{
anchors = (
{
name = bottom;
pos = (276,0);
},
{
name = ogonek;
pos = (486,10);
},
{
name = top;
pos = (295,573);
},
{
name = topright;
pos = (587,573);
}
);
guides = (
{
pos = (312,622);
}
);
hints = (
{
horizontal = 1;
origin = (0,37);
target = (0,22);
type = Stem;
},
{
horizontal = 1;
origin = (0,30);
target = down;
type = TopGhost;
},
{
horizontal = 1;
origin = (0,6);
target = up;
type = BottomGhost;
},
{
origin = (0,34);
target = (0,25);
type = Stem;
},
{
origin = (0,3);
target = (0,10);
type = Stem;
}
);
layerId = "1D8279CA-6213-4437-A9CB-DE6E86D89D97";
name = Bold;
shapes = (
{
closed = 1;
nodes = (
(330,-13,o),
(381,19,o),
(417,68,c),
(417,21,ls),
(417,9,o),
(426,0,o),
(438,0,cs),
(516,0,ls),
(528,0,o),
(537,9,o),
(537,21,cs),
(537,552,ls),
(537,564,o),
(528,573,o),
(516,573,cs),
(438,573,ls),
(426,573,o),
(417,564,o),
(417,552,cs),
(417,246,ls),
(417,157,o),
(368,102,o),
(289,102,cs),
(223,102,o),
(186,142,o),
(186,212,cs),
(186,552,ls),
(186,564,o),
(177,573,o),
(165,573,cs),
(87,573,ls),
(75,573,o),
(66,564,o),
(66,552,cs),
(66,197,ls),
(66,75,o),
(150,-13,o),
(266,-13,cs)
);
}
);
width = 618;
}
);
unicode = 117;
},
